<?xml version="1.0" encoding="utf-8"?>
<!-- Generator: Adobe Illustrator 19.0.0, SVG Export Plug-In . SVG Version: 6.00 Build 0)  -->
<svg version="1.1" id="Layer_1" xmlns="http://www.w3.org/2000/svg" xmlns:xlink="http://www.w3.org/1999/xlink" x="0px" y="0px"
	 viewBox="0 0 375 667" style="enable-background:new 0 0 375 667;" xml:space="preserve">
<style type="text/css">
	.st0{fill:#F87D51;}
</style>
<g>
	<g>
		<g>
			<g>
				<g>
					<path class="st0" d="M176.3,87.3c-3.9,0-6-4.6-6-7.8c0-3.1,3.2-5.6,7.1-5.6c3.9,0,7.1,2.5,7.1,5.6
						C184.6,82.7,180.2,87.3,176.3,87.3z M177.4,74.8c-3.5,0-6.3,2.1-6.3,4.7c0,2.9,1.8,7,5.2,7c3.4,0,7.5-4.3,7.5-7
						C183.8,76.9,180.9,74.8,177.4,74.8z"/>
				</g>
				<g>
					<path class="st0" d="M190.2,99.4L190.2,99.4c-0.7,0-1.3-0.1-1.5-0.1h-1.4c-0.2,0-0.8,0.1-1.5,0.1c-1.3,0-2.2-0.4-2.7-1
						c-0.5-0.7-0.5-1.6-0.1-2.8c1.6-4.6,2.9-7.1,4.8-7.4l0.1,0l0.1,0c2,0.3,3.2,2.8,4.8,7.4c0.4,1.2,0.4,2.1-0.1,2.8
						C192.3,99.1,191.4,99.4,190.2,99.4z M187.3,98.5l1.6,0c0,0,0.6,0.1,1.3,0.1c0.7,0,1.6-0.1,2-0.7c0.3-0.4,0.3-1.1,0-2
						c-1.4-4-2.6-6.6-4.1-6.9c-1.5,0.3-2.7,2.8-4.1,6.9c-0.3,0.9-0.3,1.6,0,2c0.4,0.6,1.3,0.7,2,0.7
						C186.6,98.6,187.2,98.5,187.3,98.5L187.3,98.5z"/>
				</g>
				<g>
					<path id="XMLID_275_" class="st0" d="M175.2,98.7l-0.7-0.4c0.1-0.2,3.5-5.6,4.9-7.3c0.6-0.7,1.7-1.7,2.9-2.8
						c-2.2,1.2-5.1,2.6-7.5,3.3c-1.7,0.5-3.5,0.1-5.3-1.2c-2.5-1.7-4.6-4.6-4.7-5.3l0.8-0.1l-0.4,0l0.4-0.1c0.1,0.4,2.1,3.4,4.8,5
						c1.5,0.9,2.9,1.2,4.2,0.8c4.6-1.3,10.9-5.2,10.9-5.2l0.5,0.6c0,0-4.6,3.9-5.9,5.4C178.6,93.1,175.2,98.6,175.2,98.7z"/>
				</g>
				<g>
					<path id="XMLID_274_" class="st0" d="M200.8,98.7c0-0.1-3.5-5.6-4.9-7.2c-1.3-1.5-5.9-5.4-5.9-5.4l0.5-0.6
						c0.1,0,6.3,4,10.9,5.2c1.3,0.4,2.7,0.1,4.2-0.8c2.7-1.6,4.7-4.6,4.8-5l0.8,0.1c-0.1,0.7-2.1,3.6-4.7,5.3
						c-1.9,1.3-3.7,1.7-5.3,1.2c-2.4-0.7-5.3-2.1-7.5-3.3c1.1,1,2.3,2.1,2.9,2.8c1.4,1.7,4.8,7.1,4.9,7.3L200.8,98.7z"/>
				</g>
				<g>
					<g>
						<path id="XMLID_273_" class="st0" d="M188.2,217.4c-0.1-0.1-1.3-2-1.5-5.5c-0.1-3.4-1.9-8.1-1.9-8.2l0-0.1v-86.3h0.8v86.2
							c0.2,0.6,1.8,5,1.9,8.4c0.1,3.3,1.3,5.1,1.3,5.1L188.2,217.4z"/>
					</g>
					<g>
						<g>
							<path id="XMLID_272_" class="st0" d="M182.1,161.2c-4.2,0-11.3-0.8-14.3-5.9c-0.8-1.3-1-3.1-0.4-5c0.8-2.8,2.9-5.3,5.6-6.7
								c6.2-3.3,12.2-1.9,12.4-1.8l-0.2,0.8c-0.1,0-5.9-1.3-11.9,1.8c-2.5,1.3-4.5,3.6-5.2,6.2c-0.5,1.7-0.4,3.2,0.3,4.4
								c4.1,6.8,16.6,5.4,16.8,5.3l0.1,0.8C185.1,161,183.9,161.2,182.1,161.2z"/>
						</g>
						<g>
							<path id="XMLID_271_" class="st0" d="M182.5,157.3c-4,0-11.2-0.5-14.3-4.1c-0.7-0.8-0.9-1.9-0.6-3.1c0.6-2.4,3-4.7,6-5.8
								c6.2-2.2,11.2-1,11.5-1l-0.2,0.8c0,0-5-1.2-11,1c-3.2,1.1-5,3.4-5.5,5.2c-0.2,0.7-0.2,1.7,0.4,2.4c4.1,4.6,16.2,3.7,16.4,3.7
								l0.1,0.8C185.1,157.2,184.1,157.3,182.5,157.3z"/>
						</g>
						<g>
							<path id="XMLID_270_" class="st0" d="M183.9,172.5c-5.1,0-22.9-0.7-23.7-10.1c-0.6-7.4,7-11,7.1-11l0.3,0.7
								c-0.1,0-7.2,3.4-6.6,10.2c0.9,10,24,9.3,24.3,9.3l0,0.8C185.1,172.5,184.6,172.5,183.9,172.5z"/>
						</g>
						<g>
							<path id="XMLID_269_" class="st0" d="M181.4,167.6c-4.4,0-11.5-0.6-15.3-3.9c-1.6-1.4-2.4-3.2-2.4-5.2
								c-0.1-3.9,3.3-5.7,3.5-5.8l0.4,0.7c-0.1,0.1-3.1,1.7-3.1,5.1c0,1.8,0.8,3.4,2.2,4.7c5.3,4.7,18.3,3.6,18.5,3.5l0.1,0.8
								C185.1,167.5,183.6,167.6,181.4,167.6z"/>
						</g>
						<g>
							<path id="XMLID_268_" class="st0" d="M183.8,182c-7.1,0-31.9-0.7-33.1-10.1c-0.9-7.4,9.4-10.9,9.8-11l0.3,0.8
								c-0.1,0-10.1,3.4-9.3,10.2c1.2,10,33.8,9.4,34.1,9.3l0,0.8C185.4,182,184.8,182,183.8,182z"/>
						</g>
						<g>
							<path id="XMLID_267_" class="st0" d="M180.3,177.1c-6.7,0-17.9-0.7-22.5-4.8c-1.3-1.2-2-2.7-2.1-4.3
								c-0.1-3.9,4.6-5.8,4.8-5.8l0.3,0.8c0,0-4.4,1.7-4.3,5.1c0,1.4,0.7,2.7,1.8,3.7c6.4,5.8,27,4.5,27.2,4.5l0.1,0.8
								C185.4,177,183.3,177.1,180.3,177.1z"/>
						</g>
						<g>
							<path id="XMLID_266_" class="st0" d="M182.2,189.2c-2.3,0-6-0.3-12.1-1.2c-13.1-2.1-17.1-12.1-17.1-12.2l0.8-0.3
								c0,0.1,3.8,9.7,16.5,11.7c12.1,1.9,14.8,1,14.9,1l0.3,0.7C185.3,188.9,184.6,189.2,182.2,189.2z"/>
						</g>
						<g>
							<path id="XMLID_265_" class="st0" d="M179.1,192.9c-3.6,0-8.7-0.5-15.1-2.4c-12.8-3.9-11.1-14.7-11.1-14.8l0.8,0.1
								c-0.1,0.4-1.6,10.2,10.5,13.9c12.5,3.8,20.4,1.9,20.5,1.9l0.2,0.8C184.7,192.4,182.7,192.9,179.1,192.9z"/>
						</g>
						<g>
							<path id="XMLID_264_" class="st0" d="M167.5,198.5c-6.7,0-13.4-1.7-15.7-7.7c-1.6-4.1,3.5-6.8,3.5-6.8l0.4,0.7
								c-0.2,0.1-4.5,2.4-3.1,5.8c4.9,12.8,31.9,4.5,32.1,4.5l0.2,0.8C184.3,195.9,175.8,198.5,167.5,198.5z"/>
						</g>
						<g>
							<path id="XMLID_263_" class="st0" d="M169.5,203.4c-7.3,0-14.9-1.7-17.5-8.3c-1.5-3.9-0.6-6.8-0.5-6.9l0.8,0.2
								c0,0-0.9,2.8,0.5,6.4c4.9,12.8,31.6,5.9,31.9,5.8l0.2,0.8C184.3,201.5,177.1,203.4,169.5,203.4z"/>
						</g>
						<g>
							<path id="XMLID_262_" class="st0" d="M165.2,208.4c-1.2,0-2.3-0.1-3.3-0.3c-8.7-1.5-9.1-11.8-9.1-11.9l0.8,0
								c0,0.4,0.4,9.7,8.4,11.1c8.3,1.5,22.9-4.1,23-4.1l0.3,0.7C184.8,204.1,173.7,208.4,165.2,208.4z"/>
						</g>
						<g>
							<path id="XMLID_261_" class="st0" d="M163.5,211c-1.1,0-2.1-0.1-3-0.2c-8.8-1.5-7.7-14.2-7.6-14.4l0.8,0.1
								c0,0.1-1.1,12.1,7,13.5c8.3,1.5,24.7-4.7,24.9-4.8l0.3,0.8C185.2,206.2,172.4,211,163.5,211z"/>
						</g>
						<g>
							<path id="XMLID_260_" class="st0" d="M164.5,219.7c-2,0-3.8-0.3-5.5-0.7c-3.3-0.9-5.6-2.7-6.4-4.9c-1.3-3.8,0.2-12.6,0.4-13
								l0.7,0.3c-0.1,0.4-1.6,8.9-0.4,12.5c0.7,2,2.8,3.6,5.8,4.4c5.3,1.5,13.3,0.7,19.4-4.3c7-5.8,7.1-7.2,7.2-7.3c0,0,0,0,0,0.1
								l0.7-0.3c0.4,0.9-2.2,3.8-7.4,8.1C174.7,218.3,169.2,219.7,164.5,219.7z"/>
						</g>
						<g>
							<path id="XMLID_259_" class="st0" d="M164.8,223.5c-2,0-3.9-0.3-5.5-0.7c-3.8-1.1-6.5-3.2-7.4-5.7
								c-1.3-3.9,0.7-14.8,0.9-15.1l0.7,0.3l-0.4-0.2l0.4,0.1c-0.1,0.4-2.1,11-0.9,14.5c0.8,2.3,3.3,4.2,6.8,5.2
								c4.8,1.4,12,1.1,17.8-3.7c7.6-6.3,9-9.8,9-9.8l0.8,0.3c-0.1,0.1-1.4,3.7-9.2,10.2C173.8,222.3,169,223.5,164.8,223.5z"/>
						</g>
						<g>
							<path id="XMLID_258_" class="st0" d="M160.6,230.1c-2.7,0-5.2-0.8-7.6-2.5c-3.9-2.7-1.3-11.1-1.2-11.4l0.8,0.2
								c0,0.1-2.5,8.2,0.9,10.5c2.9,2,6.2,2.7,9.6,2.1c9.5-1.8,17.6-13.6,17.7-13.7l0.7,0.5c-0.3,0.5-8.3,12.2-18.2,14
								C162.3,230,161.4,230.1,160.6,230.1z"/>
						</g>
						<g>
							<path id="XMLID_257_" class="st0" d="M160.1,232.9c-2.5,0-4.8-0.7-7.1-2c-3.7-2.2-2.3-8.9-2.2-9.2l0.8,0.2
								c0,0.1-1.3,6.4,1.8,8.3c3.2,1.9,6.7,2.4,10.3,1.4c11.2-3.1,20.1-19.4,20.2-19.5l0.7,0.4c-0.4,0.7-9.2,16.8-20.7,19.9
								C162.6,232.7,161.4,232.9,160.1,232.9z"/>
						</g>
						<g>
							<path id="XMLID_256_" class="st0" d="M157.3,239.4c-0.8,0-1.6-0.2-2.3-0.7c-3.6-2.5-4.2-10.8-4.2-11.1l0.8-0.1
								c0,0.1,0.6,8.2,3.9,10.5c0.9,0.6,1.8,0.7,3,0.4c6.3-1.9,12-10.3,12.1-10.3l0.7,0.4c-0.2,0.4-6,8.7-12.5,10.7
								C158.2,239.4,157.7,239.4,157.3,239.4z"/>
						</g>
						<g>
							<path id="XMLID_255_" class="st0" d="M157.8,242.2c-0.9,0-1.7-0.3-2.5-0.8c-3.6-2.6-4.1-10.6-4.1-11l0.8,0
								c0,0.1,0.5,8,3.8,10.4c0.9,0.7,1.9,0.8,3,0.5c8.6-2.1,14.3-15.1,14.3-15.3l0.7,0.3c-0.2,0.5-5.9,13.5-14.9,15.7
								C158.6,242.1,158.2,242.2,157.8,242.2z"/>
						</g>
						<g>
							<path id="XMLID_254_" class="st0" d="M156.1,246.3c-0.4,0-0.8-0.1-1.1-0.4c-2.1-1.7-2.3-8.2-2.3-8.5l0.8,0
								c0.1,1.8,0.5,6.7,2,7.9c0.3,0.2,0.5,0.3,0.9,0.2c2.4-0.5,8.6-7.4,10.8-10l0.6,0.5c-0.3,0.4-8.1,9.7-11.3,10.3
								C156.4,246.3,156.2,246.3,156.1,246.3z"/>
						</g>
						<g>
							<path id="XMLID_253_" class="st0" d="M156.4,250C156.4,250,156.4,250,156.4,250c-1.1,0-1.9-0.4-2.6-1.2
								c-2.6-3.1-1.2-11.2-1.2-11.5l0.8,0.1c0,0.1-1.4,8.1,1,10.9c0.5,0.6,1.2,0.9,2,0.9h0c3.6,0,9.6-10.7,11.6-14.8l0.7,0.4
								C168.4,235.3,161.2,250,156.4,250z"/>
						</g>
					</g>
					<g>
						<g>
							<path id="XMLID_252_" class="st0" d="M185.2,121.2h-4.6c-0.9,0-1.6-0.5-1.6-1.1c0-0.6,0.7-1.1,1.6-1.1h4.6v0.8h-4.6
								c-0.5,0-0.8,0.2-0.8,0.3c0,0,0.3,0.2,0.8,0.2h4.6V121.2z"/>
						</g>
						<g>
							<path id="XMLID_251_" class="st0" d="M185.2,126.1H179c-1.2,0-2.1-0.6-2.1-1.3s0.9-1.3,2.1-1.3h6.2v0.8H179
								c-0.8,0-1.3,0.3-1.3,0.5c0,0.1,0.4,0.5,1.3,0.5h6.2V126.1z"/>
						</g>
						<g>
							<path id="XMLID_250_" class="st0" d="M185.2,132.4h-9.2c-1.2,0-2.4-0.4-2.4-1.3c0-0.8,1.2-1.3,2.4-1.3h9.2v0.8h-9.2
								c-1,0-1.6,0.4-1.6,0.5c0,0.1,0.5,0.5,1.6,0.5h9.2V132.4z"/>
						</g>
						<g>
							<path id="XMLID_249_" class="st0" d="M185.2,138H174c-1.2,0-2.4-0.4-2.4-1.3c0-0.8,1.2-1.3,2.4-1.3h11.2v0.8H174
								c-1,0-1.6,0.4-1.6,0.5c0,0.1,0.6,0.5,1.6,0.5h11.2V138z"/>
						</g>
					</g>
					<g>
						<g>
							<path id="XMLID_248_" class="st0" d="M185.1,222h-4.6c-0.9,0-1.6-0.5-1.6-1.1s0.7-1.1,1.6-1.1h4.6v0.8h-4.6
								c-0.5,0-0.8,0.2-0.8,0.3c0,0,0.3,0.2,0.8,0.2h4.6V222z"/>
						</g>
						<g>
							<path id="XMLID_247_" class="st0" d="M181.3,228.7c-1.6,0-3.4,0-4.1-0.8c-0.2-0.2-0.4-0.5-0.4-0.9c0-0.4,0.1-0.7,0.4-0.9
								c0.5-0.4,1.3-0.3,2.3-0.2c0.6,0.1,1.3,0.2,2,0.2c0.9-0.1,3.5-0.3,3.5-0.4l0.1,0.8c-0.1,0-2.7,0.3-3.6,0.4
								c-0.7,0-1.5-0.1-2.2-0.2c-0.7-0.1-1.4-0.2-1.7,0c-0.1,0.1-0.1,0.2-0.1,0.3c0,0.1,0,0.2,0.1,0.3c0.5,0.5,2.5,0.5,3.8,0.5
								c0.8,0,3.4-0.3,3.4-0.3l0.1,0.8c-0.1,0-2.7,0.4-3.5,0.4C181.4,228.7,181.3,228.7,181.3,228.7z"/>
						</g>
						<g>
							<path id="XMLID_246_" class="st0" d="M181.3,281.7c-0.9,0-1.9,0-2.7-0.2c-1.2-0.2-1.8-0.7-1.8-1.5c0-0.4,0.1-0.7,0.4-0.9
								c0.5-0.4,1.3-0.3,2.3-0.2c0.6,0.1,1.3,0.2,2,0.2c0.9-0.1,3.5-0.3,3.5-0.4l0.1,0.8c-0.1,0-2.7,0.3-3.6,0.4
								c-0.7,0-1.5-0.1-2.2-0.2c-0.7-0.1-1.4-0.2-1.7,0c-0.1,0.1-0.1,0.2-0.1,0.3c0,0.3,0.4,0.6,1.1,0.7c0.8,0.1,1.9,0.1,2.8,0.1
								c0.8,0,3.4-0.3,3.4-0.4l0.1,0.8c-0.1,0-2.7,0.4-3.5,0.4C181.5,281.7,181.4,281.7,181.3,281.7z"/>
						</g>
						<g>
							<path id="XMLID_245_" class="st0" d="M180.4,236.1c-0.3,0-0.7,0-1.1-0.1c-4.5-0.5-7.2-1.1-7.2-2.5c0-0.4,0.2-0.7,0.3-0.8
								c0.6-0.5,1.6-0.2,3.1,0.1c1.1,0.3,2.4,0.6,3.7,0.6c3.5,0,5.2-1.1,5.2-1.2l0.5,0.6c-0.1,0.1-1.9,1.4-5.7,1.3
								c-1.3,0-2.7-0.3-3.8-0.6c-1-0.2-2.2-0.5-2.5-0.3c0,0,0,0.1,0,0.1c0,0.6,2.2,1.2,6.5,1.7c3.1,0.4,5.1-1.1,5.1-1.2l0.5,0.6
								C184.9,234.8,183.2,236.1,180.4,236.1z"/>
						</g>
						<g>
							<path id="XMLID_244_" class="st0" d="M180.4,243.6c-0.3,0-0.7,0-1.1-0.1c-4.5-0.5-7.2-1.1-7.2-2.5c0-0.4,0.2-0.7,0.3-0.8
								c0.6-0.5,1.6-0.2,3.1,0.1c1.1,0.3,2.4,0.6,3.7,0.6c3.5,0,5.2-1.1,5.2-1.2l0.5,0.6c-0.1,0.1-1.9,1.4-5.7,1.3
								c-1.3,0-2.7-0.3-3.8-0.6c-1-0.2-2.2-0.5-2.5-0.3c0,0,0,0.1,0,0.1c0,0.6,2.2,1.2,6.5,1.7c3.1,0.4,5.1-1.1,5.1-1.2l0.5,0.6
								C184.9,242.3,183.2,243.6,180.4,243.6z"/>
						</g>
						<g>
							<path id="XMLID_243_" class="st0" d="M180.4,251.5c-0.3,0-0.7,0-1.1-0.1c-4.5-0.5-7.2-1.1-7.2-2.5c0-0.4,0.2-0.7,0.3-0.8
								c0.6-0.5,1.6-0.2,3.1,0.1c1.1,0.3,2.4,0.6,3.7,0.6c0.1,0,0.1,0,0.2,0c3.4,0,5-1.1,5-1.2l0.5,0.6c-0.1,0.1-1.9,1.4-5.7,1.3
								c-1.3,0-2.7-0.3-3.8-0.6c-1-0.2-2.2-0.5-2.5-0.3c0,0,0,0.1,0,0.1c0,0.6,2.2,1.2,6.5,1.7c3.1,0.4,5.1-1.1,5.1-1.2l0.5,0.6
								C184.9,250.2,183.2,251.5,180.4,251.5z"/>
						</g>
						<g>
							<path id="XMLID_242_" class="st0" d="M180.4,259.4c-0.3,0-0.7,0-1.1-0.1c-1.9-0.2-7.2-1.3-7.2-3.2c0-0.4,0.2-0.6,0.3-0.7
								c0.5-0.4,1.4-0.1,2.8,0.4c1.2,0.4,2.7,0.9,4.1,0.9c3.5,0.1,5.2-1.1,5.2-1.2l0.5,0.6c-0.1,0.1-1.9,1.4-5.7,1.3
								c-1.5,0-3.1-0.6-4.3-1c-0.8-0.3-1.8-0.6-2-0.5c0,0,0,0,0,0.1c0,0.7,3,2,6.5,2.4c3.1,0.4,5.1-1.1,5.1-1.2l0.5,0.6
								C184.9,258.1,183.2,259.4,180.4,259.4z"/>
						</g>
						<g>
							<path id="XMLID_241_" class="st0" d="M180.4,267.2c-0.3,0-0.7,0-1.1-0.1c-6.6-0.8-6.6-2.2-6.6-2.7c0-0.4,0.2-0.7,0.3-0.8
								c0.5-0.4,1.4-0.1,2.6,0.2c1.1,0.3,2.4,0.7,3.7,0.7c3.5,0,5.2-1.1,5.2-1.2l0.5,0.6c-0.1,0.1-1.9,1.4-5.7,1.3
								c-1.4,0-2.8-0.4-3.9-0.7c-0.7-0.2-1.7-0.5-1.9-0.3c0,0,0,0,0,0.2c0,0.4,1.2,1.3,5.9,1.9c3.1,0.4,5.1-1.1,5.1-1.2l0.5,0.6
								C184.9,265.9,183.2,267.2,180.4,267.2z"/>
						</g>
						<g>
							<path id="XMLID_240_" class="st0" d="M180.4,275.1c-0.3,0-0.7,0-1.1-0.1c-2.7-0.3-6.6-1.7-6.6-3.4c0-0.4,0.2-0.6,0.3-0.8
								c0.5-0.3,1.2,0,2.3,0.5c1.1,0.5,2.6,1.1,4,1.1c3.5,0,5.2-1.1,5.2-1.2l0.5,0.6c-0.1,0.1-1.8,1.4-5.7,1.3
								c-1.6,0-3.2-0.7-4.3-1.2c-0.5-0.2-1.3-0.5-1.5-0.5c0,0,0,0,0,0.1c0,0.8,2.9,2.2,5.9,2.6c3.1,0.4,5.1-1.1,5.1-1.2l0.5,0.6
								C184.9,273.8,183.2,275.1,180.4,275.1z"/>
						</g>
					</g>
					<g>
						<path id="XMLID_239_" class="st0" d="M187.9,291.9c-2.1-0.3-3.5-0.9-3.5-1.7v-78.7h0.8v78.7c0,0.1,0.7,0.7,2.8,0.9
							L187.9,291.9z"/>
					</g>
				</g>
				<g>
					<g>
						<path class="st0" d="M128.4,240.8c-3.7,0-7.4-1.5-9.2-3.8c-1.1-1.4-1.4-3-1-4.6c0.9-3.5,2.3-4.7,3.5-5.7
							c0.7-0.6,1.3-1.1,1.7-2c2-4.6,3.5-28.7,0.5-45.6c-1.6-9.2-1.9-19.5,1.2-20.1l0.1,0l0.1,0c0.3,0.1,6.4,1.8,9,6.5
							c1.2,2.2,1.4,4.8,0.5,7.6c-1.7,5.3-3.2,14.6-3,21.1c0.1,2.4,0.4,6.6,0.7,11.5c0.6,8.3,1.3,18.5,1.2,24c0,2.8,0.2,4.7,0.4,6.1
							c0.4,3.2,0.4,4-3.5,4.7C130,240.7,129.2,240.8,128.4,240.8z M125.2,159.8c-1.8,0.6-2.4,8-0.5,19.2c3,17.1,1.5,41.4-0.6,46.1
							c-0.5,1.1-1.2,1.7-1.9,2.3c-1.1,0.9-2.4,2-3.2,5.2c-0.3,1.4-0.1,2.7,0.9,3.9c1.6,2.1,5.1,3.5,8.5,3.5c0.7,0,1.4-0.1,2.1-0.2
							c3.3-0.6,3.2-0.9,2.8-3.8c-0.2-1.4-0.5-3.4-0.4-6.2c0.1-5.4-0.6-15.7-1.2-23.9c-0.3-4.9-0.6-9.1-0.7-11.5
							c-0.2-6.6,1.4-16.1,3.1-21.4c0.8-2.6,0.6-4.9-0.5-6.9C131.4,161.8,126,160.1,125.2,159.8z"/>
					</g>
					<g>
						<path id="XMLID_236_" class="st0" d="M129.7,238.7c-0.7,0-1.1-0.7-1.8-1.9c-0.5-0.8-1.2-1.9-2.2-3.3c-0.9-1.2-1.7-1.8-2.5-1.7
							c-0.9,0-1.4,0.9-1.4,0.9l-0.7-0.4c0-0.1,0.8-1.2,2.1-1.3c1.1,0,2.1,0.7,3.2,2.1c1,1.4,1.7,2.5,2.2,3.3c0.8,1.4,1,1.6,1.3,1.4
							l0.3,0.7C130,238.6,129.9,238.7,129.7,238.7z"/>
					</g>
					<g>
						<path class="st0" d="M111.8,328.3c-0.1,0-0.1,0-0.2,0c-1.1-0.2-2.1-1.2-2.7-2.6c-0.4-1-0.8-3,0.7-5.2c4-6,10.2-43.4,10.7-49.4
							c0.5-5.3,1.6-17.6-0.7-19.7c-2.5-2.3-1-11.4-0.8-12.4l0.2-1l0.6,0.8c1.3,2,4.5,3,9.4,3c1.2,0,2.3-0.1,3.1-0.1
							c0.5,0,0.9,0,1.1,0c0.2,0,0.4,0.1,0.5,0.3c1,1.7-3.6,15.8-5.9,19.9c-2,3.6-3.7,15-5.4,26c-0.5,3.4-1.1,6.9-1.6,10.2
							C119,308.9,114.5,328.3,111.8,328.3z M119.6,240c-0.5,3.1-1,9.3,0.7,10.8c2.3,2.1,1.8,11,0.9,20.4
							c-0.6,6.2-6.7,43.5-10.9,49.8c-1.3,2-0.9,3.7-0.6,4.5c0.4,1.1,1.3,1.9,2.1,2.1c1.5-0.4,5.8-15.1,8.2-29.7
							c0.5-3.2,1.1-6.7,1.6-10.1c1.7-11.1,3.4-22.5,5.5-26.2c2.6-4.7,6.4-17.4,5.9-19c-0.2,0-0.5,0-0.9,0c-0.8,0-1.9,0.1-3.1,0.1
							C124.5,242.6,121.3,241.7,119.6,240z"/>
					</g>
					<g>
						<path id="XMLID_233_" class="st0" d="M107.5,327c-0.7,0-1.4-0.3-1.9-0.6l-0.2-0.1l0-0.2c-0.1-10.1,5.9-49,7.4-57.1
							c1.6-8.4,5.9-28.7,6-28.9l0.8,0.2c0,0.2-4.4,20.5-6,28.9c-1.5,8.1-7.4,46.3-7.4,56.7c0.5,0.2,1.5,0.7,1.9,0
							c0.4-0.7,0.4-0.7,0.4-2.9c0-1,0-2.6,0.1-4.9c0.2-7.5,4-36,6.2-46.1c2.5-11.5,4.7-20.9,4.8-21l0.8,0.2c0,0.1-2.3,9.5-4.8,21
							c-2.2,10.1-6,38.4-6.2,45.9c-0.1,2.3-0.1,3.8-0.1,4.9c0,2.4,0,2.4-0.5,3.3C108.5,326.8,108,327,107.5,327z"/>
					</g>
				</g>
				<g>
					<path class="st0" d="M148.8,211.6L148.8,211.6c-0.3,0-0.6-0.2-1.1-0.7c-3.4-3.2-4.9-16.4-5.5-24.1c-0.6-7.6-3.5-10.5-5.2-12.3
						c-0.4-0.5-0.8-0.9-1.1-1.2c-0.7-1.1-0.7-3.5-0.6-5.8c0-1.5,0.1-3-0.1-3.8c-0.4-1.5-4.6-3.4-6.9-4.4c-0.8-0.3-1.4-0.6-1.7-0.8
						c-1.7-0.9-1.6-2.4-0.9-4.8c0.8-2.5,5-3,6.8-3.2l0.1,0c0.7-0.1,1.8,0.3,3.4,0.8c2,0.7,4.4,1.5,6.7,1.5l0.2,0
						c3.9-0.1,23.2-2.3,23.4-2.3c0.5-0.1,0.6,0.2,0.6,0.3c0.2,0.5-0.4,1.2-3.3,4c-1.5,1.5-3.2,3.1-4.1,4.3c-0.9,1.3-2.1,2-3.5,2.9
						c-1.7,1.1-3.6,2.3-5.5,4.7c-2.7,3.4-0.6,9.7,0.9,14.3c0.4,1.1,0.7,2.2,1,3.1c0.7,2.7-0.1,4.3-1.3,6.5c-0.9,1.7-2,3.8-2.7,7.1
						c-0.9,4.1,0.1,8.4,0.6,10.9c0.4,1.8,0.5,2.4,0.2,2.8C149.1,211.5,149,211.6,148.8,211.6z M132.7,151.1c0,0-0.1,0-0.1,0l-0.1,0
						c-1.5,0.2-5.5,0.6-6.1,2.7c-0.7,2.4-0.6,3.3,0.5,3.9c0.3,0.2,0.9,0.4,1.6,0.8c3.5,1.5,7,3.2,7.4,4.9c0.2,1,0.2,2.4,0.2,4
						c-0.1,2.1-0.1,4.5,0.5,5.4c0.2,0.3,0.6,0.7,1,1.1c1.8,1.8,4.7,4.9,5.4,12.8c1,12.8,3,21.4,5.3,23.5c0.1,0.1,0.3,0.2,0.3,0.3
						c0-0.4-0.2-1.2-0.4-1.9c-0.6-2.6-1.6-7-0.6-11.3c0.7-3.4,1.9-5.6,2.8-7.3c1.1-2.2,1.8-3.6,1.2-6c-0.2-0.9-0.6-1.9-1-3
						c-1.6-4.8-3.8-11.3-0.8-15.1c2-2.5,3.9-3.8,5.7-4.9c1.3-0.8,2.5-1.6,3.3-2.7c0.9-1.2,2.6-2.9,4.2-4.4c1-1,2.3-2.2,2.8-2.9
						c-3.1,0.3-19.4,2.2-23,2.2l-0.2,0c-2.3,0-4.9-0.8-6.9-1.5C134.4,151.5,133.3,151.1,132.7,151.1z"/>
				</g>
				<g>
					<path id="XMLID_230_" class="st0" d="M148.5,152.8c0,0-1.4-1.4-3.3-2.3c-1.9-0.9-11.3,0.3-12,0.6l-0.1-0.3h-0.5l0.2-0.4
						c0.6-0.4,10.7-1.6,12.8-0.6c2.1,1,3.5,2.4,3.6,2.5L148.5,152.8z"/>
				</g>
				<g>
					<path id="XMLID_229_" class="st0" d="M153.2,152.5c-0.1-0.1-3.4-1.8-5.9-3.8c-2.2-1.8-8.9-1.3-11-1.1l-0.3,0
						c-1.7,0.1-4.5,2.8-5.5,3.8l-0.6-0.6c0.1-0.2,3.7-3.8,6-4l0.3,0c2.5-0.2,9.2-0.7,11.6,1.3c2.4,1.9,5.7,3.7,5.7,3.7L153.2,152.5z
						"/>
				</g>
				<g>
					<path id="XMLID_228_" class="st0" d="M188.3,329.7c-3.9,0-7-1.1-10.2-2.3c-2-0.7-4-1.4-6.3-1.9c-2.6-0.5-5.6-0.3-8.5,0
						c-4.1,0.4-8,0.8-10.5-1.3c-2.9-2.3-2.9-4.1-2.9-7.2c0-1.7,0-3.9-0.4-6.9c-0.5-3.8-1.8-6.5-3-9.1c-1.6-3.5-3.2-6.8-3.1-12.1
						c0.1-9.5,12.2-17.8,16.9-18.1c4.5-0.3,11.9,8.7,13.6,12.5c1.6,3.5,6.4,4.1,6.5,4.1l-0.1,0.8c-0.2,0-5.3-0.7-7.1-4.5
						c-1.7-3.6-8.9-12.3-12.9-12c-3.7,0.2-16,8-16.1,17.3c-0.1,5.2,1.4,8.4,3,11.8c1.3,2.7,2.6,5.5,3.1,9.4c0.4,3,0.4,5.2,0.4,7
						c0,3.2,0,4.6,2.6,6.6c2.3,1.8,6,1.5,10,1.1c2.9-0.3,6-0.6,8.7,0c2.3,0.5,4.4,1.2,6.4,1.9c3.6,1.3,7,2.5,11.5,2.2l0.1,0.8
						C189.4,329.7,188.8,329.7,188.3,329.7z"/>
				</g>
				<g>
					<path class="st0" d="M183.1,321.1l-8.8-2.4c-6.6-1.8-6.8-5.8-6.9-8.8c0-0.9-0.1-1.8-0.3-2.5c-0.7-2.1,1.6-4.9,6.9-8.3l0.1,0
						c0.1-2.2,0.6-4.7,1.5-5.1c1.7-0.8,2-1.5,3.3-4.4l0.4-0.9c1.7-3.6,5.7-2.6,5.7-2.6l-0.2,0.8c-0.1,0-3.3-0.9-4.8,2.1l-0.4,0.9
						c-1.3,2.9-1.8,3.8-3.7,4.7c-0.4,0.2-1.2,2.8-1,5.6c0.1,1.6,0.7,3.7,2.5,4.5c7.4,3.1,5.9,15.3,5.8,15.8L183.1,321.1z M174,300
						c-6.1,4-6.5,6.2-6.2,7.1c0.3,0.8,0.3,1.7,0.3,2.7c0.1,3,0.3,6.4,6.3,8.1l7.9,2.1c0.2-2.2,0.7-11.9-5.4-14.5
						C175.2,304.8,174.1,302.9,174,300z"/>
				</g>
				<g>
					<path class="st0" d="M156.7,299.8c-0.7,0-1.3-0.3-1.8-0.8c-1.7-1.9-1.7-6.3-1.3-9.8c0.7-7.1,1.9-9.4,6.4-12.3
						c1.2-0.8,2.2-1.1,3-1.1c1.7,0,2.6,1.4,4,3.5c0.5,0.7,1,1.6,1.7,2.5c3.3,4.4,7.2,8.8,7.3,8.9l0.4,0.4l-0.5,0.2
						c-0.6,0.2-1,1.1-1.6,2.2c-0.9,1.8-2.1,4.1-4.7,5c-0.8,0.3-1.6,0.4-2.4,0.4l0,0c-1,0-1.9-0.2-2.7-0.4c-0.8-0.2-1.6-0.3-2.4-0.3
						c-1.1,0-2,0.3-3.1,0.9C158.1,299.6,157.4,299.8,156.7,299.8z M163,276.6c-0.7,0-1.5,0.3-2.6,1c-4.3,2.8-5.4,4.8-6.1,11.7
						c-0.4,4.6,0,7.9,1.1,9.2c0.7,0.8,1.7,0.7,3-0.1c1.2-0.7,2.3-1,3.5-1c0.9,0,1.8,0.2,2.6,0.4c0.8,0.2,1.7,0.4,2.6,0.4l0,0
						c0.7,0,1.4-0.1,2.1-0.4c2.4-0.8,3.4-2.9,4.3-4.6c0.5-1,0.9-1.9,1.5-2.3c-1-1.2-4.2-4.9-7-8.6c-0.7-0.9-1.2-1.8-1.7-2.5
						C165.1,277.8,164.3,276.6,163,276.6z"/>
				</g>
				<g>
					<path class="st0" d="M159.8,322.3c-1.2,0-2.4-2.1-3.1-17.1l0-0.4c0-1,0.2-1.7,0.7-2.3c0.9-0.9,2.4-1.1,3.4-1.1c0.3,0,0.7,0,1,0
						c0.3,0,0.5,0,0.7,0c0.9-0.1,1.6,0.3,2.1,1c1.6,2.6-0.7,9.7-2.1,12.2c-0.7,1.3-0.8,2.8-0.9,4.2
						C161.4,320.6,161.2,322.2,159.8,322.3L159.8,322.3z M160.7,302.2c-1.4,0-2.3,0.3-2.8,0.8c-0.4,0.4-0.5,0.9-0.5,1.7l0,0.4
						c0.8,15.6,2.1,16.4,2.3,16.4v0.4l0-0.4c0.7,0,0.8-0.8,0.9-2.6c0.1-1.4,0.2-3.1,1-4.5c1.3-2.3,3.4-9.2,2.1-11.4
						c-0.3-0.5-0.7-0.7-1.3-0.6c-0.2,0-0.5,0-0.8,0C161.4,302.3,161.1,302.2,160.7,302.2z"/>
				</g>
				<g>
					<path id="XMLID_221_" class="st0" d="M173.8,335c-6.6,0-7.4-10.2-7.4-10.3l0.8-0.1c0,0.1,0.8,9.9,7,9.5c2.1-0.1,5.4-4.4,6.6-6
						l0.7,0.5c-0.2,0.3-4.2,6.1-7.2,6.3C174.1,335,174,335,173.8,335z"/>
				</g>
				<g>
					<path id="XMLID_220_" class="st0" d="M173.9,339c-0.5,0-1,0-1.5-0.1c-10.4-1.4-9.5-13.3-9.5-13.4l0.8,0.1
						c0,0.5-0.9,11.2,8.8,12.5c8.6,1.2,13.7-8.9,13.7-9l0.7,0.4C186.8,329.6,182.1,339,173.9,339z"/>
				</g>
				<g>
					<path id="XMLID_219_" class="st0" d="M154.3,337.4c-0.3,0-0.6-0.1-0.8-0.2c-1.6-0.7-2.6-3.3-3.3-5.1c-0.2-0.5-0.4-0.9-0.5-1.1
						c-0.6-1,0.3-1.6,1-2.3c0.4-0.3,0.8-0.7,1.1-1.1c0.7-1-0.4-4.6-0.6-5l0.6-0.5c0.3,0.3,1.7,4.5,0.6,5.9c-0.4,0.5-0.9,0.9-1.3,1.3
						c-0.8,0.7-1,0.9-0.8,1.2c0.1,0.2,0.3,0.7,0.5,1.3c0.6,1.5,1.6,4.1,2.9,4.6c0.3,0.1,0.7,0.1,1.1,0c1.5-0.6,1.7-1.9,1.9-3.3
						c0.1-0.9,0.3-1.9,0.8-2.6c1.4-1.8,5.4-2.7,5.5-2.7l0.2,0.8c0,0-3.9,0.8-5.1,2.4c-0.4,0.6-0.6,1.4-0.7,2.3
						c-0.2,1.4-0.4,3.1-2.4,3.9C154.9,337.4,154.6,337.4,154.3,337.4z"/>
				</g>
				<g>
					<path id="XMLID_218_" class="st0" d="M157.5,331.7l-0.2-0.3l0.3-0.2l-0.3,0c0-0.1-0.1-0.4-0.1-0.5l0-0.1c0-0.3-0.1-0.6-0.3-1
						c-0.3-0.9-1.1-2.2-1.9-2.4l0.2-0.8c1.3,0.3,2.2,2.2,2.4,2.9c0.1,0.4,0.2,0.8,0.3,1.1l0,0.1c0.1,0.6,0.2,0.9-0.2,1L157.5,331.7z
						"/>
				</g>
				<g>
					<path class="st0" d="M160.3,463.6c-1,0-2.2-0.2-3.4-0.6c-4-1.2-3.8-7.6-3.7-9.7c0-0.2,0-0.4,0-0.5c0-1.5,3.1-2.4,3.7-2.6l0.1,0
						l0.1,0c0,0,1.4,0,2.3,0c0,0,0,0,0,0c0.5,0,1.3,0.2,2.3,0.4c1.4,0.3,3.2,0.7,4.7,0.8c2.5,0.1,2.8,1.1,3,2.7c0,0.1,0,0.3,0.1,0.4
						c0.2,1.5,0,6.8-1.5,8.1c-0.5,0.5-1.3,0.7-2.4,0.7c-1.1,0-2.1-0.2-2.5-0.3C162.5,463.3,161.7,463.6,160.3,463.6z M157,451.2
						c-1.3,0.3-3.1,1.1-3.1,1.8c0,0.1,0,0.3,0,0.5c-0.1,1.9-0.2,7.8,3.1,8.9c1.2,0.4,2.2,0.5,3.2,0.5c1.6,0,2.3-0.5,2.3-0.5l0.1-0.1
						l0.2,0c0,0,1.2,0.3,2.4,0.3c0.9,0,1.5-0.2,1.9-0.5c1.1-1,1.5-5.7,1.3-7.4c0-0.2,0-0.3-0.1-0.5c-0.2-1.3-0.3-1.9-2.2-2
						c-1.5-0.1-3.3-0.5-4.8-0.8c-1-0.2-1.8-0.4-2.1-0.4C158.4,451.2,157.3,451.2,157,451.2z"/>
				</g>
				<g>
					<path id="XMLID_215_" class="st0" d="M162.5,462.8c-0.2-1-0.8-2.1-1.8-3.2c-0.2-0.3-0.5-0.5-0.7-0.7c-0.6-0.6-1.2-1.2-1.6-2
						c-0.3-0.7-0.5-1.4-0.7-2.2l0.8-0.2c0.1,0.7,0.4,1.4,0.6,2c0.3,0.7,0.8,1.2,1.4,1.7c0.3,0.3,0.5,0.5,0.7,0.8
						c1,1.2,1.7,2.4,2,3.6L162.5,462.8z"/>
				</g>
				<g>
					<g>
						<path id="XMLID_214_" class="st0" d="M164.6,451.2c-1.9,0-3.7-0.5-4.3-1.1c-0.4-0.4-1.2-0.4-2.3-0.3c-1.2,0.1-2.7,0.2-4.1-0.4
							c-0.6-0.3-1.1-0.8-1.3-1.5c-0.9-2.6,0.7-8,2.7-11.5c1.7-3,0-13.8-1.8-24.2c-0.6-3.6-1.2-7.3-1.7-10.8
							c-0.9-6.2-3.6-18.7-6.3-30.9c-3.4-15.5-6.6-30.1-6.6-34.2c0-1.8,0.6-3.3,1.8-4.4c3.1-2.9,9-2.5,9.3-2.5l-0.1,0.8
							c-0.1,0-5.8-0.4-8.6,2.2c-1,1-1.6,2.3-1.6,3.8c0,4,3.4,19.3,6.6,34.1c2.7,12.1,5.4,24.7,6.3,30.9c0.5,3.5,1.1,7.2,1.7,10.8
							c1.8,11,3.5,21.5,1.7,24.7c-1.9,3.4-3.5,8.5-2.7,10.9c0.2,0.5,0.5,0.9,0.9,1c1.3,0.5,2.6,0.4,3.8,0.4c1.2-0.1,2.2-0.2,2.9,0.5
							c0.6,0.6,3.9,1.3,6.1,0.5c1.2-0.4,1.9-1.2,2-2.2c0.3-2.9-1.5-8.3-3.5-14c-0.7-2-1.4-4-2-6c-2.1-6.7-14.8-80.9-14-85.8l0-0.2
							c0.2-1.2,0.4-2.4,0.9-3.5c0.5-1,1.4-1.6,2.2-2l0.4,0.7c-0.6,0.4-1.4,0.9-1.8,1.6c-0.5,1-0.7,2.1-0.9,3.3l0,0.2
							c-0.6,4.1,11.2,76.8,14,85.5c0.6,2,1.3,4,2,5.9c2,5.8,3.9,11.3,3.5,14.4c-0.2,1.4-1,2.3-2.5,2.9
							C166.4,451.1,165.5,451.2,164.6,451.2z"/>
					</g>
					<g>
						<path id="XMLID_213_" class="st0" d="M159.9,449.7c-0.3-0.5-0.1-1.1,0.1-1.6c0.1-0.1,0.1-0.3,0.1-0.4c0.3-1.4,0.5-3.2,0.4-5
							c-0.1-1.7-0.8-3.4-1.6-5c-0.1-0.2-0.2-0.4-0.4-0.7c-0.4-0.6-0.8-1.2-0.7-2l0.8,0.1c-0.1,0.5,0.3,1,0.6,1.5
							c0.2,0.2,0.3,0.5,0.4,0.7c0.8,1.7,1.6,3.5,1.7,5.3c0.1,1.9,0,3.8-0.4,5.2c0,0.2-0.1,0.3-0.2,0.5c-0.1,0.3-0.3,0.7-0.2,0.9
							L159.9,449.7z"/>
					</g>
					<g>
						<path id="XMLID_212_" class="st0" d="M156,443.6l-0.3-0.7c1.7-0.7,1.4-3.6,0.9-5.2c-0.4-1.2-0.5-2.2-0.5-3.3h0.8
							c0,1,0.1,1.9,0.4,3C158,439.4,158.2,442.7,156,443.6z"/>
					</g>
					<g>
						<path id="XMLID_211_" class="st0" d="M158.5,449.7c-0.8-0.4-0.8-2.8-0.8-3.1c0-0.6,0.1-1.3,0.6-1.9c0.8-0.9,1.9-1.3,2.9-1
							l-0.2,0.8c-0.8-0.2-1.6,0.2-2.1,0.7c-0.3,0.4-0.4,0.8-0.4,1.4c0,0.9,0.2,2.2,0.4,2.4L158.5,449.7z"/>
					</g>
				</g>
				<g>
					<path class="st0" d="M159.6,568.7c-0.2,0-0.4,0-0.5-0.1c-2.4-1.2-6.4-34.8-7-41.2c-0.6-6.9-0.3-26-0.1-40
						c0.1-5,0.1-9.3,0.1-11.8c0-10.4,3.8-11.5,5.4-11.5c0.2,0,0.4,0,0.6,0.1c0.4,0.1,0.8,0.3,1,0.7c1.2,2-0.4,7.6-0.6,8.3l-0.1,0.2
						l-0.2,0.1c-2,0.9-2,1.8-2.1,4.7c0,0.7,0,1.6-0.1,2.6c-0.3,5.2-1.1,29.4-1.5,43.1c-0.4,14.4,5.7,34.8,6.8,36.2
						c1.1,1.3,0.5,5.5-0.4,7.4C160.7,568.2,160.2,568.7,159.6,568.7z M157.5,464.9c-1.4,0-4.6,1-4.6,10.7c0,2.5-0.1,6.8-0.1,11.8
						c-0.2,13.9-0.5,33,0.1,39.9c1,11.7,4.9,39.4,6.5,40.6c0.1,0,0.1,0,0.2,0l0,0c0.3,0,0.6-0.4,0.9-1c0.9-2,1.2-5.6,0.5-6.5
						c-1.4-1.8-7.4-22.4-7-36.7c0.4-13.7,1.2-37.9,1.5-43.1c0.1-1,0.1-1.8,0.1-2.6c0.1-2.9,0.1-4.3,2.4-5.4c0.5-1.8,1.5-6.1,0.6-7.4
						c-0.1-0.2-0.3-0.3-0.5-0.3C157.8,464.9,157.6,464.9,157.5,464.9z"/>
				</g>
				<g>
					<path id="XMLID_208_" class="st0" d="M161.7,560.6l-0.7-0.3c0.1-0.2,0.2-0.4,0.4-0.8c0.9-1.8,3-6.1,3.1-10.9
						c0.1-5.2-2.8-64.1-4.2-69.5c-1.3-5-2.1-5.7-2.1-5.8l0.5-0.7c0.2,0.1,1.1,1,2.4,6.2c1.4,5.5,4.4,64.6,4.3,69.8
						c-0.1,5-2.2,9.4-3.1,11.3C161.9,560.1,161.7,560.4,161.7,560.6z"/>
				</g>
				<g>
					<path id="XMLID_207_" class="st0" d="M170.4,576.7c-0.4,0-0.9-0.2-1.4-0.5c-1.9-1.3-3.6-1.5-5.5-1.6c-0.7,0-1.3-0.1-2.1-0.2
						c-2-0.3-2.9-2.1-3.2-3.7c-0.2-1.4,0.1-2.5,0.8-2.9l0.4,0.7c-0.3,0.2-0.6,0.9-0.4,2c0.2,1.3,1,2.8,2.5,3c0.7,0.1,1.4,0.1,2,0.2
						c1.9,0.1,3.8,0.3,5.9,1.7c0.5,0.3,0.8,0.4,1.2,0.4c0.7-0.2,1.1-1.3,1.5-2.2c0.3-0.7,0.6-1.4,1-1.8c0.7-0.7-0.6-3-2.2-5.8
						c-0.5-0.8-1-1.6-1.5-2.5c-1.9-3.4-1.7-9.2-1.4-18.1c0.1-3.3,0.2-7,0.3-11.2c0.1-8.3-0.4-21.2-0.8-31.6
						c-0.3-8.6-0.6-16-0.5-18.6c0.3-5.9,1.2-8.3,3.1-11.4c1.9-2.9,0-6.8-1.5-8c-0.6-0.5-1.4-0.1-2.5,0.5c-1,0.6-2.2,1.2-3,0.3
						c-0.7-0.8-3.4-0.4-4.8,0.1l-0.3-0.8c0.4-0.1,4.4-1.4,5.7,0.1c0.4,0.4,1,0.1,2-0.5c1.1-0.6,2.4-1.3,3.4-0.5
						c1.8,1.4,3.8,5.6,1.7,9c-1.9,3-2.7,5.2-3,11c-0.1,2.5,0.2,9.9,0.5,18.5c0.4,10.4,0.9,23.2,0.8,31.6c0,4.2-0.2,7.9-0.3,11.2
						c-0.3,8.7-0.5,14.5,1.3,17.6c0.5,0.9,1,1.7,1.5,2.5c2,3.4,3.3,5.6,2.1,6.8c-0.3,0.3-0.6,1-0.9,1.6c-0.5,1.2-1,2.4-2.1,2.6
						C170.7,576.7,170.5,576.7,170.4,576.7z"/>
				</g>
				<g>
					<g>
						<path class="st0" d="M83.2,354c-0.3,0-0.8-0.1-1.1-0.8l-0.1-0.2l0.1-0.2c3.5-6.2,5.7-9.4,6.4-9.4c0.2,0,0.3,0.1,0.4,0.2
							c0.6,0.9,0.9,1.8,0.9,1.8l0.1,0.2l-0.1,0.2C89.1,347.2,85.3,354,83.2,354z M82.9,353.1c0.1,0.2,0.2,0.2,0.3,0.2
							c1.2,0,4.1-4.4,5.9-7.6c-0.1-0.2-0.3-0.7-0.6-1.2C87.6,345.2,85.1,349.2,82.9,353.1z"/>
					</g>
					<g>
						<path class="st0" d="M90.6,375c-0.3,0-0.6-0.1-0.9-0.4l-0.1-0.1l0-0.2c1.8-11,2.6-11,3-11c0.1,0,0.2,0,0.3,0.1
							c0.9,0.6,1.4,1.4,1.5,1.4l0.1,0.1l0,0.2C94,367.3,92.8,375,90.6,375z M90.4,374.1c1,0.7,2.5-4.4,3.2-9.1
							c-0.2-0.2-0.5-0.6-1-0.9C92,365.1,91.1,369.8,90.4,374.1z"/>
					</g>
					<g>
						<path class="st0" d="M91.1,345.2l-2.2-2.6l0.2-0.3c0.3-0.3,7-7.2,8.2-8c0.2-0.1,0.4-0.2,0.5-0.2c0.2,0,0.6,0.1,0.8,0.8
							c0.3,1,0,3-0.9,3.5c-0.8,0.5-4.9,4.8-6.4,6.5L91.1,345.2z M90,342.6l1.1,1.4c1.3-1.3,5.3-5.7,6.3-6.3c0.3-0.2,0.6-1,0.7-1.8
							c0-0.6-0.1-0.9-0.1-1c0,0,0,0-0.1,0C96.9,335.5,92.1,340.5,90,342.6z"/>
					</g>
					<g>
						<path class="st0" d="M108.9,341.7L108.9,341.7c-3.2,0-7-2.7-8.5-4.5c-0.7-0.8-0.7-1.1-0.7-1.3c0-0.2-0.1-0.7-0.2-1.2
							c-0.3-1.1-0.7-2.5,0.5-3c0.7-0.3,2.3-1.8,3.4-2.8c1.3-1.2,1.5-1.4,1.8-1.4h0.1l0.1,0.1c0.8,0.6,3,0.8,4.4,1
							c1.4,0.2,1.8,0.2,2,0.5c0,0.1,0.1,0.4,0.2,0.9c0.3,1.2,0.8,3.3,1.3,4.3c0.5,0.9,0.8,3.1-0.1,4.8c-0.7,1.3-1.9,2.1-3.4,2.4
							C109.4,341.7,109.1,341.7,108.9,341.7z M105.1,328.4c-0.3,0.2-0.8,0.7-1.2,1.1c-1.3,1.2-2.8,2.6-3.7,3c-0.5,0.2-0.3,0.9,0,2
							c0.2,0.6,0.3,1.1,0.3,1.5c0.1,0.8,4.7,4.9,8.4,4.9l0,0c0.2,0,0.5,0,0.7-0.1c1.3-0.2,2.3-0.9,2.9-2c0.8-1.5,0.5-3.3,0.1-4.1
							c-0.6-1.1-1.1-3.3-1.4-4.5c-0.1-0.3-0.1-0.5-0.2-0.7c-0.3-0.1-0.8-0.1-1.3-0.2C108.2,329.3,106.1,329,105.1,328.4z"/>
					</g>
					<g>
						<path class="st0" d="M98.2,350.7L98.2,350.7c-0.6,0-1.4-0.4-1.9-0.7c-0.9-0.5-0.4-1.7,0.5-3.7c0.2-0.4,0.3-0.7,0.5-1.2
							c1-2.5,1.7-7.2,1.7-7.2l0.1-0.7l2.8,2.2l-0.1,0.3c0,0.1-2.3,8.9-2.5,10.1C99.2,350.3,98.8,350.7,98.2,350.7z M99.8,338.7
							c-0.2,1.4-0.8,4.7-1.6,6.7c-0.2,0.4-0.3,0.8-0.5,1.2c-0.5,1.2-1.1,2.6-0.9,2.7c0.6,0.4,1.1,0.6,1.4,0.6c0.2,0,0.3-0.1,0.4-0.3
							c0.2-1.1,2.1-8.4,2.5-9.9L99.8,338.7z"/>
					</g>
					<g>
						<path class="st0" d="M94.2,362.8c-0.4,0-0.7-0.2-0.9-0.5c-0.3-0.4-0.4-0.9-0.2-1.6c0.4-1.6,2.6-9.8,2.6-9.9l0.1-0.4l0.4,0.2
							c0.2,0.1,1.5,0.6,1.9,1.5c0.1,0.3,0.2,0.7,0,1c-0.2,0.5-0.5,1.8-0.9,3.3c-0.6,2.3-1.2,4.7-1.7,5.5
							C95.2,362.5,94.7,362.8,94.2,362.8z M96.3,351.6c-0.5,1.8-2.1,8.1-2.5,9.4c-0.1,0.4-0.1,0.7,0.1,0.9c0.2,0.3,0.7,0.1,0.9-0.3
							c0.4-0.7,1-3.2,1.6-5.3c0.4-1.5,0.7-2.8,0.9-3.4c0.1-0.1,0.1-0.3,0-0.4C97.2,352.1,96.7,351.8,96.3,351.6z"/>
					</g>
					<g>
						<path class="st0" d="M101.6,374.6c-0.3,0-0.5-0.1-0.8-0.3l-0.2-0.1l0-0.2c0.7-10,1.4-10,1.8-10h0.1l0.1,0.1
							c0.8,0.5,1.4,1.1,1.4,1.1l0.1,0.1l0,0.2C104.2,367.6,103.7,374.6,101.6,374.6z M101.5,373.8c0,0,0.1,0,0.1,0
							c0.8,0,1.6-3.8,1.8-8.2c-0.2-0.1-0.5-0.4-0.9-0.7C102.2,365.9,101.8,370,101.5,373.8z"/>
					</g>
					<g>
						<path class="st0" d="M106.2,352.7L106.2,352.7c-0.5,0-1.2-0.3-1.6-0.5c-0.8-0.4-0.5-1.5,0.1-3.4c0.1-0.3,0.2-0.7,0.3-1
							c0.7-2.3,1.2-5.5,1.2-5.5l0.1-0.4l2.4,0.4l-0.1,0.4c0,0.1-1.2,8-1.4,9.1C107.3,352.3,106.9,352.7,106.2,352.7z M107.1,342.8
							c-0.1,0.9-0.6,3.4-1.1,5.2c-0.1,0.4-0.2,0.7-0.3,1.1c-0.3,1-0.7,2.2-0.6,2.4c0.5,0.3,0.9,0.4,1.2,0.4l0,0
							c0.2,0,0.3-0.1,0.3-0.3c0.1-0.9,1.1-7,1.3-8.7L107.1,342.8z"/>
					</g>
					<g>
						<path class="st0" d="M103.8,363.6c-0.3,0-0.6-0.1-0.8-0.4c-0.3-0.3-0.4-0.8-0.3-1.4c0.2-1.4,1.4-8.8,1.4-8.9l0.1-0.4l0.4,0.1
							c0.1,0,1.4,0.4,1.9,1.2c0.2,0.3,0.2,0.6,0.1,0.9c-0.1,0.4-0.3,1.6-0.5,2.9c-0.3,2.1-0.7,4.3-1,5
							C104.8,363.3,104.3,363.6,103.8,363.6z M104.8,353.6c-0.3,1.7-1.2,7.2-1.3,8.4c0,0.3,0,0.6,0.1,0.7c0.2,0.2,0.5,0.2,0.7-0.3
							c0.3-0.6,0.6-2.9,0.9-4.8c0.2-1.4,0.4-2.6,0.5-3c0-0.1,0-0.2,0-0.3C105.6,354,105.1,353.7,104.8,353.6z"/>
					</g>
					<g>
						<path class="st0" d="M108.5,367.6c-0.2,0-0.4-0.1-0.6-0.2l-0.1-0.1l0-0.2c-0.1-4.9,0-7.5,0.4-7.9l0.1-0.1l0.2,0
							c0.1,0,0.2,0,0.2,0.1c0.6,0.3,1.1,0.8,1.1,0.8l0.1,0.1l0,0.2c0,1,0.2,6.1-0.8,7.2C108.9,367.5,108.6,367.6,108.5,367.6z
							 M108.6,360c-0.2,1-0.2,4-0.1,6.8c0.4-0.5,0.7-3.3,0.6-6.4C109,360.2,108.8,360.1,108.6,360z"/>
					</g>
					<g>
						<path class="st0" d="M110.2,350L110.2,350c-0.4,0-0.8-0.2-1.1-0.3c-0.7-0.3-0.5-1.2-0.2-2.8c0.1-0.3,0.1-0.5,0.2-0.8
							c0.3-1.8,0.4-4.4,0.4-4.4l0-0.4l1.9,0.2l0,0.4c0,0.1-0.3,6.4-0.3,7.2C111.1,349.6,110.7,350,110.2,350z M110.3,342.2
							c0,0.8-0.2,2.7-0.4,4.1c-0.1,0.3-0.1,0.6-0.2,0.9c-0.2,0.8-0.3,1.7-0.2,1.9c0.3,0.1,0.5,0.2,0.7,0.2l0,0c0.1,0,0.1,0,0.1,0
							c0,0,0,0,0-0.1c0-0.7,0.2-5.5,0.3-6.9L110.3,342.2z"/>
					</g>
					<g>
						<path class="st0" d="M109.2,358.8c-0.2,0-0.5-0.1-0.6-0.3c-0.2-0.2-0.4-0.5-0.3-1.1c0-1.1,0.4-6.9,0.4-7.1l0-0.5l0.5,0.1
							c0.7,0.1,1.8,0.7,1.6,1.6c-0.1,0.3-0.1,1.3-0.2,2.3c-0.1,2-0.2,3.4-0.4,4C110.1,358.4,109.7,358.8,109.2,358.8z M109.4,350.9
							c-0.1,1.5-0.3,5.6-0.4,6.6c0,0.4,0.1,0.5,0.1,0.5l0,0c0,0,0.1-0.1,0.2-0.3c0.1-0.5,0.2-2.3,0.3-3.8c0.1-1.1,0.1-2,0.2-2.4
							C110,351.2,109.7,351,109.4,350.9z"/>
					</g>
					<g>
						<path class="st0" d="M94.6,378.8c-0.3,0-0.6-0.2-0.9-0.5l-0.1-0.1l0-0.2c1.8-11.7,2.6-11.7,3-11.7c0.1,0,0.2,0,0.3,0.1
							c0.9,0.7,1.4,1.4,1.5,1.5l0.1,0.1l0,0.2C98.1,370.7,96.8,378.8,94.6,378.8z M94.4,377.9c1,0.8,2.5-4.6,3.2-9.7
							c-0.2-0.2-0.5-0.6-1-1C96.1,368.4,95.1,373.3,94.4,377.9z"/>
					</g>
					<g>
						<path class="st0" d="M102.3,353L102.3,353c-0.6,0-1.4-0.4-1.9-0.7c-0.8-0.5-0.3-1.7,0.5-3.9c0.2-0.4,0.3-0.8,0.5-1.2
							c1-2.6,1.7-7.6,1.7-7.7l0.1-0.7l2.8,2.3l-0.1,0.2c0,0.1-2.3,9.5-2.5,10.7C103.3,352.7,102.9,353,102.3,353z M103.8,340.3
							c-0.2,1.5-0.8,5-1.6,7.1c-0.2,0.4-0.3,0.9-0.5,1.2c-0.5,1.3-1.1,2.8-0.9,2.9c0.6,0.4,1.1,0.6,1.4,0.6l0,0c0.1,0,0.3,0,0.4-0.4
							c0.2-1.2,2.1-9,2.5-10.5L103.8,340.3z"/>
					</g>
					<g>
						<path class="st0" d="M98.3,365.9c-0.4,0-0.7-0.2-0.9-0.4c-0.3-0.4-0.4-1-0.3-1.7c0.4-1.7,2.6-10.4,2.6-10.5l0.1-0.4l0.4,0.2
							c1,0.4,2.4,1.4,1.9,2.7c-0.2,0.5-0.5,1.9-0.9,3.5c-0.6,2.5-1.2,5-1.6,5.8C99.3,365.6,98.8,365.9,98.3,365.9z M100.3,354
							c-0.5,1.9-2.1,8.6-2.5,10c-0.1,0.4-0.1,0.8,0.1,1c0.1,0.1,0.2,0.1,0.3,0.1c0.2,0,0.4-0.1,0.6-0.5c0.4-0.7,1-3.4,1.6-5.6
							c0.4-1.6,0.7-3,0.9-3.6C101.6,354.8,100.8,354.3,100.3,354z"/>
					</g>
				</g>
				<g>
					<g>
						<path class="st0" d="M165,580.7c-1.1,0-1.5-0.3-2.3-0.9c-0.3-0.3-1.1-0.4-1.9-0.5c-1.4-0.2-2.9-0.4-3.4-1.6
							c-0.2-0.4-0.2-0.8,0-1.2c0.3-0.7,1.2-1.2,1.9-1.4c0.4-0.1,0.7-0.2,0.7-0.2l0.1,0l0.1,0c0.3,0,8.4,1.1,10.9,3.1
							c0.4,0.3,1,0.9,0.8,1.4c-0.3,0.8-1.6,0.9-3.8,1c-0.6,0-1.2,0.1-1.6,0.1C165.8,580.7,165.3,580.7,165,580.7z M160.2,575.8
							c-0.1,0-0.3,0.1-0.5,0.2c-0.8,0.3-1.3,0.6-1.4,1c-0.1,0.2-0.1,0.4,0,0.6c0.3,0.7,1.6,0.9,2.7,1.1c0.9,0.1,1.7,0.2,2.2,0.6
							c0.7,0.5,1,0.7,1.8,0.7c0.3,0,0.7,0,1.4-0.1c0.5-0.1,1.1-0.1,1.7-0.1c0.9,0,2.8-0.1,3-0.5l0,0c0,0,0-0.2-0.5-0.6
							C168.4,576.9,161,575.9,160.2,575.8z"/>
					</g>
					<g>
						<path class="st0" d="M166.9,600.1L166.9,600.1c-0.9,0-1.8-0.1-2.2-0.2c-0.5-0.1-0.9-0.3-1-0.7c-0.3-0.8,0.3-2.1,2-4.5
							c1.1-1.5,1-3.7,1-5.2c0-1.2,0-2.1,0.6-2.2c1.3-0.2,2.3,0.1,2.9,0.9c1.5,1.8,0.7,5.5,0.2,8c-0.2,0.8-0.3,1.5-0.3,1.9
							c0,0.5-0.2,1.2-1.1,1.6C168.5,600,167.7,600.1,166.9,600.1z M167.5,588.2c-0.1,0.2,0,0.8,0,1.4c0,1.6,0.1,4-1.1,5.7
							c-0.8,1.2-2.2,3.1-1.9,3.7c0,0.1,0.2,0.2,0.4,0.2c0.3,0.1,1.2,0.2,2.1,0.2l0,0c0.8,0,1.4-0.1,1.8-0.3c0.6-0.3,0.7-0.6,0.7-0.8
							c0-0.4,0.1-1.1,0.3-2c0.4-2.2,1.1-5.9-0.1-7.4C169.1,588.3,168.5,588.1,167.5,588.2z"/>
					</g>
					<g>
						<path class="st0" d="M164.2,611.4c-1.3,0-3-0.9-3.7-2c-0.4-0.6-0.5-1.1-0.2-1.7c0.8-1.9,3.2-6.9,3.3-6.9l0.1-0.3l0.3,0.1
							c0,0,1.2,0.2,2.4,0.2c0.7,0,1.2-0.1,1.6-0.2c0.3-0.1,0.6,0,0.8,0.3c0.7,1.3-2.7,9-3.3,9.9C165.4,611,165,611.4,164.2,611.4z
							 M164.2,601.4c-0.5,1.1-2.4,5.1-3.1,6.6c-0.1,0.3-0.1,0.6,0.2,0.9c0.5,0.8,2,1.6,3,1.6c0.2,0,0.5,0,0.6-0.2
							c0.9-1.5,3.4-7.7,3.3-9c-0.5,0.1-1,0.2-1.7,0.2C165.5,601.6,164.6,601.5,164.2,601.4z"/>
					</g>
					<g>
						<path class="st0" d="M161.4,620.3L161.4,620.3c-1.6,0-3.9-0.9-4.7-1.9c-0.3-0.3-0.4-0.7-0.4-1c0.2-1.4,2.8-6.9,2.9-7.2
							l0.3-0.7l0.4,0.7c0,0,0.7,1.3,3.3,1.7c0.8,0.1,1.4,0.5,1.7,1.2c0.9,1.9-1.1,5.3-1.7,6.3C163,619.9,162.5,620.3,161.4,620.3z
							 M159.6,611.3c-0.8,1.8-2.4,5.4-2.5,6.3c0,0.1,0.1,0.2,0.2,0.4c0.7,0.8,2.7,1.6,4.1,1.6h0c0.3,0,1-0.1,1.2-0.4
							c1.1-1.8,2.2-4.4,1.6-5.6c-0.2-0.4-0.6-0.6-1.1-0.7C161.2,612.5,160.1,611.8,159.6,611.3z"/>
					</g>
					<g>
						<g>
							<path class="st0" d="M161.4,600.1L161.4,600.1c-0.9,0-1.8-0.3-2.2-0.5c-0.4-0.2-0.6-0.5-0.6-0.7c-0.2-0.8,0.4-2,2-4.3
								c1-1.4,1.3-3.6,1.5-5.1c0.2-1.4,0.3-2,0.8-2.1c0.8,0,1.4,0.2,1.8,0.7c1.2,1.7,0,5.8-0.7,8.5c-0.2,0.8-0.4,1.5-0.5,1.8
								C163.3,599.5,162.5,600.1,161.4,600.1z M163.1,588.3c-0.1,0.3-0.2,0.9-0.2,1.4c-0.2,1.6-0.5,3.9-1.6,5.5
								c-0.8,1.2-2.1,3-1.9,3.6c0,0,0,0.1,0.2,0.2c0.2,0.1,1.1,0.4,1.9,0.4c1,0,1.2-0.5,1.3-0.9c0.1-0.4,0.3-1.1,0.5-1.9
								c0.7-2.4,1.9-6.4,0.9-7.8C163.8,588.4,163.5,588.3,163.1,588.3z"/>
						</g>
						<g>
							<path class="st0" d="M157.2,610.7c-0.5,0-1.1-0.3-1.4-0.9c-0.4-0.7-0.5-1.5-0.1-2.3c0.8-1.7,2.5-7.1,2.5-7.2l0.1-0.4l0.4,0.2
								c0,0,1.2,0.5,2.1,0.5c0.2,0,0.4,0,0.5-0.1c0.3-0.1,0.5,0,0.7,0.2c0.6,1.2-3.7,9.2-3.8,9.2C158,610.5,157.6,610.7,157.2,610.7
								z M158.8,601.1c-0.4,1.3-1.7,5.3-2.4,6.8c-0.3,0.7-0.1,1.3,0.1,1.5c0.3,0.5,0.9,0.7,1.1,0.3c0.9-1.4,3.5-6.8,3.7-8.2
								c-0.1,0-0.3,0-0.4,0C160.1,601.5,159.3,601.2,158.8,601.1z"/>
						</g>
						<g>
							<path class="st0" d="M153.1,619.1L153.1,619.1c-0.3,0-0.6-0.1-0.8-0.4c-0.2-0.3-0.3-0.8-0.2-1.3c0.3-1.4,2.3-6.8,2.4-7.1
								l0.8,0.2c0-0.1,0-0.1,0-0.1c0,0,0.1,0.4,1.6,1c0.6,0.2,0.8,0.7,0.9,1c0.3,1.3-1.1,3.1-2.3,4.6c-0.3,0.4-0.6,0.7-0.8,1
								C154.3,618.7,153.6,619.1,153.1,619.1z M154.9,611.4c-0.6,1.6-1.9,5.2-2.1,6.3c-0.1,0.3-0.1,0.5,0,0.6c0,0,0.1,0.1,0.2,0.1
								c0.2,0,0.6-0.2,1-0.8c0.2-0.3,0.5-0.7,0.8-1c0.9-1.2,2.3-3,2.1-3.9c0-0.1-0.1-0.3-0.5-0.4
								C155.8,611.9,155.3,611.6,154.9,611.4z"/>
						</g>
					</g>
					<g>
						<g>
							<path class="st0" d="M157.1,599.1L157.1,599.1c-0.7,0-1.4-0.4-1.7-0.5c-0.2-0.1-0.4-0.3-0.4-0.6c-0.2-0.7,0.4-1.8,1.9-3.9
								c0.9-1.3,1.3-3.3,1.6-4.7c0.3-1.4,0.4-1.9,0.9-1.9c0,0,0,0,0,0c0.7,0,1,0.3,1.2,0.6c0.9,1.3-0.1,4.5-1.3,8
								c-0.3,0.7-0.5,1.3-0.6,1.7C158.5,598.6,157.9,599.1,157.1,599.1z M159.6,588.3c-0.1,0.2-0.2,0.8-0.3,1.2
								c-0.3,1.4-0.8,3.5-1.8,4.9c-0.8,1.1-1.9,2.8-1.8,3.3c0,0,0,0.1,0.1,0.1c0.3,0.2,0.9,0.4,1.3,0.4l0,0c0.3,0,0.7-0.1,0.9-0.8
								c0.1-0.4,0.3-1,0.6-1.8c0.8-2.2,2.2-6.2,1.4-7.2C159.9,588.4,159.8,588.3,159.6,588.3z"/>
						</g>
						<g>
							<path class="st0" d="M153,608.9c-0.5,0-0.9-0.3-1.3-1c-0.4-0.7-0.8-1.9-0.3-2.8c0.8-1.6,3.1-5.9,3.1-5.9l0.2-0.4l0.4,0.2
								c0.2,0.1,0.9,0.5,1.5,0.5c0.1,0,0.2,0,0.3,0l0.2,0c0.2,0,0.3,0.1,0.4,0.2c0.6,1-3.6,8.6-3.6,8.7
								C153.6,608.7,153.3,608.9,153,608.9z M155,599.9c-0.6,1.1-2.3,4.2-2.9,5.5c-0.3,0.6-0.1,1.5,0.2,2.1c0.3,0.4,0.5,0.6,0.6,0.6
								c0,0,0.1,0,0.1-0.1c0.7-1.1,3.2-6.2,3.5-7.7C156.1,600.3,155.4,600.1,155,599.9z"/>
						</g>
						<g>
							<path class="st0" d="M149,615.9L149,615.9c-0.5,0-1-0.3-1.4-0.8c-0.4-0.5-0.5-1.1-0.3-1.7l0.1-0.2c0.2-0.6,0.3-1,2.9-5.9
								l0.7-1.3l0.1,1.5c0,0,0.1,1.2,1.2,1.8c0.3,0.2,0.5,0.5,0.6,0.8c0.2,1.1-1,2.8-1.9,4.1c-0.3,0.4-0.5,0.7-0.7,1
								C149.9,615.6,149.5,615.9,149,615.9z M150.5,608.6c-2.1,4-2.2,4.4-2.4,4.9l-0.1,0.2c-0.1,0.3,0,0.7,0.2,1
								c0.4,0.5,0.9,0.6,1.2,0.1c0.2-0.3,0.4-0.6,0.7-1c0.8-1.1,1.9-2.7,1.8-3.4c0-0.1-0.1-0.2-0.2-0.3
								C151.1,609.6,150.7,609.1,150.5,608.6z"/>
						</g>
					</g>
					<g>
						<g>
							<path class="st0" d="M153.1,599L153.1,599c-0.7,0-1.3-0.5-1.5-0.7c-0.7-0.7,0.2-1.9,2-3.9c0.9-1,1.7-2.8,2.2-4
								c0.5-1.2,0.7-1.6,1.1-1.6c0.6,0.1,0.8,0.3,0.9,0.6c0.6,1.2-0.8,4.1-2.5,7.1c-0.3,0.6-0.6,1.1-0.8,1.4
								C154.2,598.8,153.6,599,153.1,599z M157.1,589.7c-0.1,0.2-0.3,0.6-0.5,1c-0.5,1.2-1.3,3.1-2.3,4.2c-0.7,0.8-2.2,2.4-2.1,2.8
								c0.2,0.2,0.6,0.5,1,0.5c0.1,0,0.4,0,0.7-0.6c0.1-0.3,0.4-0.8,0.8-1.5C155.6,594.4,157.6,590.7,157.1,589.7
								C157.1,589.7,157.1,589.7,157.1,589.7z"/>
						</g>
						<g>
							<path class="st0" d="M147.9,607.3c-0.2,0-0.6-0.1-0.9-0.6c-0.4-0.8-0.5-2.1,0.2-3c0.9-1.3,3.6-4.9,3.6-4.9l0.3-0.4l0.3,0.3
								c0.2,0.2,0.8,0.6,1.2,0.6l0.1,0c0.2,0,0.3,0.1,0.4,0.3c0.4,0.9-4.5,7.4-4.5,7.5C148.3,607.3,148.1,607.3,147.9,607.3z
								 M151.2,599.6c-0.7,0.9-2.6,3.5-3.3,4.6c-0.4,0.5-0.4,1.3-0.2,1.9c0.1,0.3,0.2,0.5,0.3,0.5c0,0,0,0,0,0
								c0.7-0.9,3.6-5.1,4.3-6.4C151.8,600,151.5,599.8,151.2,599.6z"/>
						</g>
						<g>
							<path class="st0" d="M143.6,613L143.6,613c-0.3,0-0.5-0.1-0.7-0.4c-0.3-0.4-0.2-1.1,0.1-1.7c0.6-1.1,2.8-5.3,2.9-5.3l1.2-2.2
								l-0.5,2.5c0,0-0.2,1,0.5,1.7c0.2,0.2,0.3,0.5,0.3,0.8c0,1-1.1,2.2-2.2,3.2c-0.3,0.3-0.6,0.6-0.8,0.8
								C144.2,612.8,143.9,613,143.6,613z M145.9,607.1c-0.7,1.3-1.9,3.4-2.2,4.1c-0.2,0.5-0.2,0.9-0.1,1c0,0,0.2-0.1,0.4-0.3
								c0.2-0.3,0.5-0.6,0.8-0.9c0.8-0.8,2-2,1.9-2.7c0-0.1,0-0.1-0.1-0.2C146.3,607.8,146.1,607.5,145.9,607.1z"/>
						</g>
					</g>
					<g>
						<g>
							<path class="st0" d="M150.7,597.2L150.7,597.2c-0.7,0-1.3-0.5-1.5-0.7c-0.2-0.1-0.3-0.3-0.3-0.6c0-0.6,0.6-1.3,2-2.8
								c0.7-0.7,1.4-1.6,2-2.3c1-1.3,1.3-1.6,1.6-1.6l0.1,0c0.5,0.1,0.8,0.4,0.9,0.6c0.4,1-0.7,2.6-2.4,4.8c-0.5,0.7-1,1.3-1.1,1.6
								C151.6,597.1,151.1,597.2,150.7,597.2z M154.6,590.1c-0.2,0.2-0.7,0.8-1.1,1.3c-0.6,0.8-1.3,1.7-2,2.4
								c-0.6,0.6-1.8,1.9-1.8,2.2c0.3,0.2,0.7,0.5,1,0.5h0c0.2,0,0.3-0.1,0.5-0.4c0.2-0.4,0.6-1,1.2-1.8c0.9-1.2,2.5-3.4,2.3-4.1
								C154.7,590.2,154.7,590.1,154.6,590.1z"/>
						</g>
						<g>
							<path class="st0" d="M146.2,604.1c-0.4,0-0.7-0.3-1-0.8c-0.3-0.7-0.4-1.7,0.1-2.5c0.8-1.1,3.1-4,3.2-4l0.3-0.3l0.3,0.3
								c0.2,0.2,0.8,0.6,1.1,0.6l0.1,0c0.2,0,0.4,0.1,0.4,0.3c0.4,0.9-3.9,6.1-3.9,6.2C146.6,604,146.3,604.1,146.2,604.1z
								 M148.9,597.6c-0.6,0.8-2.2,2.8-2.9,3.7c-0.3,0.4-0.3,1-0.1,1.4c0.1,0.3,0.3,0.5,0.3,0.5c0.7-0.8,3.1-4,3.7-5.2
								C149.5,598,149.1,597.8,148.9,597.6z"/>
						</g>
						<g>
							<path class="st0" d="M142.3,608.7L142.3,608.7c-0.3,0-0.5-0.2-0.7-0.4c-0.2-0.4-0.2-1,0.1-1.5c0.5-0.9,2.4-4.2,2.4-4.4
								l1.1-1.9l-0.3,2.1c0,0-0.1,0.8,0.6,1.4c0.2,0.2,0.4,0.5,0.4,0.8c0,0.9-1,1.8-1.9,2.7c-0.3,0.3-0.5,0.5-0.7,0.7
								C142.9,608.5,142.6,608.7,142.3,608.7z M144.3,603.8c-0.6,1.1-1.6,2.8-1.9,3.4c-0.2,0.4-0.1,0.7,0,0.7c0,0,0.1,0,0.3-0.2
								c0.2-0.2,0.5-0.5,0.7-0.7c0.6-0.6,1.7-1.6,1.7-2.1c0-0.1,0-0.1-0.1-0.2C144.6,604.4,144.4,604.1,144.3,603.8z"/>
						</g>
					</g>
					<g>
						<path class="st0" d="M169.8,587.1c-0.7,0-1.7-0.3-2.7-0.6c-1.1-0.3-2.2-0.6-3.1-0.6c-0.7,0-1.5,0.2-2.4,0.4
							c-0.9,0.2-1.9,0.4-2.8,0.4l0,0c-1,0-1.8-0.3-2.4-0.9c-1.7-1.9,0.1-5.7,0.3-6.2c0.1-0.3,0.3-0.6,1.1-0.6c1.8,0,6.2,1.6,7.1,2.2
							c0.2,0.1,0.6,0.2,1.1,0.2c0.3,0,0.6,0,0.9,0c0.3,0,0.7,0,1,0c0.7,0,1.6,0.1,2.2,0.6c1.4,1.1,1.5,3.2,0.8,4.7
							C170.8,586.9,170.4,587.1,169.8,587.1z M164,585.1c1,0,2.2,0.3,3.3,0.7c1,0.3,1.9,0.5,2.5,0.5c0.4,0,0.5-0.1,0.5-0.2
							c0.5-1.2,0.5-2.9-0.6-3.7c-0.3-0.3-0.9-0.4-1.7-0.4c-0.3,0-0.7,0-1,0c-0.3,0-0.7,0-1,0c-0.7,0-1.1-0.1-1.5-0.3
							c-0.9-0.5-5.1-2.1-6.8-2.1c-0.2,0-0.3,0-0.3,0l0,0.1c-0.5,1.1-1.6,4.1-0.5,5.4c0.4,0.4,1,0.7,1.8,0.7c0.8,0,1.7-0.2,2.6-0.4
							C162.2,585.3,163.2,585.1,164,585.1z"/>
					</g>
				</g>
				<g>
					<path class="st0" d="M190.3,117.7c-1.1,0-1.8-0.1-2.3-0.2c-0.9,0.3-3.3,0.3-6.7,0c-6.4-0.7-12.4-16.3-14.8-23
						c-2.6-7.4-3.6-28.8-0.1-37.5c3.5-8.8,18.3-11.1,19-11.2l5.1,0c0.7,0.1,15.5,2.4,19,11.2c3.5,8.7,2.5,30.1-0.1,37.5
						c-2.3,6.7-8.4,22.3-14.8,23C192.9,117.6,191.4,117.7,190.3,117.7z M188.3,116.7c0,0,0.5,0.2,2,0.2c1.1,0,2.6-0.1,4.3-0.3
						c6.1-0.7,12.3-17.4,14.1-22.4c2.5-7.3,3.6-28.4,0.1-37c-3.3-8.4-18.2-10.7-18.3-10.7l-5,0c-0.1,0-14.9,2.3-18.3,10.7
						c-3.4,8.6-2.4,29.6,0.1,37c1.8,5.1,8,21.8,14.1,22.4c1.8,0.2,3.2,0.3,4.3,0.3c1.6,0,2-0.2,2-0.2l0.3-0.3L188.3,116.7
						C188.3,116.7,188.3,116.7,188.3,116.7z"/>
				</g>
				<g>
					<path class="st0" d="M199.7,87.3c-3.9,0-8.3-4.7-8.3-7.8c0-3.1,3.2-5.6,7.1-5.6c3.9,0,7.1,2.5,7.1,5.6
						C205.7,82.7,203.6,87.3,199.7,87.3z M198.6,74.8c-3.5,0-6.3,2.1-6.3,4.7c0,2.7,4.1,7,7.5,7c3.3,0,5.2-4.2,5.2-7
						C204.9,76.9,202.1,74.8,198.6,74.8z"/>
				</g>
				<g>
					<path class="st0" d="M188.7,112.8L188.7,112.8c-0.1,0-0.2,0-0.2,0l-1.2,0c0,0-0.1,0-0.2,0c-1.2,0-7.4-0.3-11.3-6.9
						c-2.8-4.7-1.5-7.5-1.5-7.6l0.1-0.1l0.1-0.1c0.1-0.1,0.3-0.1,0.4-0.1c0.8,0,1.5,0.8,2.5,2c1.9,2.2,4.7,5.5,9.8,5.5c0,0,0,0,0,0
						c0.2,0,0.3,0,0.5,0c0.2,0,0.4,0,0.6,0c5.1,0,8-3.3,9.8-5.5c1-1.2,1.7-2,2.5-2c0.2,0,0.3,0,0.4,0.1l0.1,0.1l0.1,0.1
						c0.1,0.1,1.3,2.9-1.5,7.6C196.1,112.5,189.9,112.8,188.7,112.8z M188.6,112l0.1,0c1.1,0,6.9-0.3,10.6-6.5
						c2.2-3.7,1.7-6,1.5-6.7c-0.4,0-1.1,0.9-1.9,1.7c-2,2.4-5.2,6-11,5.8c-0.2,0-0.3,0-0.5,0c0,0,0,0,0,0c-5.5,0-8.5-3.5-10.4-5.8
						c-0.8-0.9-1.5-1.7-1.9-1.7c-0.2,0.6-0.7,3,1.5,6.7c3.7,6.2,9.5,6.5,10.6,6.5L188.6,112z"/>
				</g>
				<g>
					<g>
						<path id="XMLID_136_" class="st0" d="M187.8,217.4l-0.7-0.5c0,0,1.2-1.8,1.3-5.1c0.1-3.4,1.7-7.7,1.9-8.4v-86.2h0.8v86.3
							l0,0.1c0,0-1.8,4.8-1.9,8.2C189.2,215.4,187.9,217.3,187.8,217.4z"/>
					</g>
					<g>
						<g>
							<path id="XMLID_135_" class="st0" d="M193.9,161.2c-1.8,0-3-0.1-3.2-0.2l0.1-0.8c0.1,0,12.7,1.5,16.8-5.3
								c0.7-1.2,0.8-2.7,0.3-4.4c-0.7-2.6-2.7-4.9-5.2-6.2c-6-3.1-11.8-1.8-11.9-1.8l-0.2-0.8c0.2-0.1,6.2-1.4,12.4,1.8
								c2.7,1.4,4.8,3.9,5.6,6.7c0.5,1.9,0.4,3.7-0.4,5C205.2,160.3,198.1,161.2,193.9,161.2z"/>
						</g>
						<g>
							<path id="XMLID_134_" class="st0" d="M193.5,157.3c-1.5,0-2.6-0.1-2.7-0.1l0.1-0.8c0.1,0,12.3,0.9,16.4-3.7
								c0.7-0.8,0.6-1.7,0.4-2.4c-0.5-1.8-2.3-4.1-5.5-5.2c-6-2.1-11-1-11-1l-0.2-0.8c0.2-0.1,5.2-1.2,11.5,1c3,1.1,5.4,3.4,6,5.8
								c0.3,1.2,0.1,2.3-0.6,3.1C204.6,156.8,197.4,157.3,193.5,157.3z"/>
						</g>
						<g>
							<path id="XMLID_133_" class="st0" d="M192.1,172.5c-0.7,0-1.2,0-1.3,0l0-0.8c0.2,0,23.4,0.7,24.3-9.3
								c0.6-6.8-6.5-10.2-6.6-10.2l0.3-0.7c0.1,0,7.7,3.6,7.1,11C215,171.8,197.2,172.5,192.1,172.5z"/>
						</g>
						<g>
							<path id="XMLID_132_" class="st0" d="M194.6,167.6c-2.1,0-3.6-0.1-3.8-0.1l0.1-0.8c0.1,0,13.2,1.2,18.5-3.5
								c1.4-1.2,2.1-2.8,2.2-4.7c0.1-3.4-3-5.1-3.1-5.1l0.4-0.7c0.1,0.1,3.6,1.9,3.5,5.8c0,2.1-0.9,3.8-2.4,5.2
								C206.1,167.1,199,167.6,194.6,167.6z"/>
						</g>
						<g>
							<path id="XMLID_131_" class="st0" d="M192.2,182c-1,0-1.7,0-1.8,0l0-0.8c0.3,0,32.9,0.7,34.1-9.3c0.8-6.8-9.2-10.1-9.3-10.2
								l0.3-0.8c0.4,0.1,10.7,3.6,9.8,11C224.2,181.3,199.4,182,192.2,182z"/>
						</g>
						<g>
							<path id="XMLID_130_" class="st0" d="M195.7,177.1c-3,0-5.1-0.1-5.3-0.1l0.1-0.8c0.2,0,20.8,1.3,27.2-4.5
								c1.2-1.1,1.8-2.3,1.8-3.7c0.1-3.4-4.3-5.1-4.3-5.1l0.3-0.8c0.2,0.1,4.9,1.9,4.8,5.8c0,1.6-0.7,3.1-2.1,4.3
								C213.6,176.4,202.4,177.1,195.7,177.1z"/>
						</g>
						<g>
							<path id="XMLID_129_" class="st0" d="M193.8,189.2c-2.4,0-3.1-0.3-3.2-0.3l0.3-0.7c0,0,2.8,1,14.9-1
								c12.7-2,16.5-11.6,16.5-11.7l0.8,0.3c0,0.1-4,10.1-17.1,12.2C199.8,189,196.1,189.2,193.8,189.2z"/>
						</g>
						<g>
							<path id="XMLID_128_" class="st0" d="M196.9,192.9c-3.6,0-5.7-0.5-5.8-0.5l0.2-0.8c0.1,0,8,1.9,20.5-1.9
								c12.2-3.7,10.6-13.5,10.5-13.9l0.8-0.1c0,0.1,1.8,10.9-11.1,14.8C205.6,192.4,200.5,192.9,196.9,192.9z"/>
						</g>
						<g>
							<path id="XMLID_127_" class="st0" d="M208.5,198.5c-8.3,0-16.8-2.6-17.5-2.8l0.2-0.8c0.3,0.1,27.3,8.3,32.1-4.5
								c1.3-3.4-3.1-5.8-3.1-5.8l0.4-0.7c0.1,0,5.1,2.7,3.5,6.8C221.9,196.8,215.3,198.5,208.5,198.5z"/>
						</g>
						<g>
							<path id="XMLID_126_" class="st0" d="M206.5,203.4c-7.6,0-14.8-1.9-15.4-2l0.2-0.8c0.3,0.1,27,7,31.9-5.8
								c1.4-3.6,0.5-6.4,0.5-6.4l0.8-0.2c0,0.1,0.9,3-0.5,6.9C221.4,201.6,213.8,203.4,206.5,203.4z"/>
						</g>
						<g>
							<path id="XMLID_125_" class="st0" d="M210.8,208.4c-8.5,0-19.6-4.2-20.1-4.5l0.3-0.7c0.1,0.1,14.7,5.6,23,4.1
								c8.1-1.4,8.4-10.7,8.4-11.1l0.8,0c0,0.1-0.4,10.3-9.1,11.9C213.1,208.3,211.9,208.4,210.8,208.4z"/>
						</g>
						<g>
							<path id="XMLID_124_" class="st0" d="M212.5,211c-8.8,0-21.7-4.8-22.3-5.1l0.3-0.8c0.2,0.1,16.6,6.2,24.9,4.8
								c8-1.4,7-13.4,7-13.5l0.8-0.1c0,0.1,1.1,12.8-7.6,14.4C214.6,210.9,213.5,211,212.5,211z"/>
						</g>
						<g>
							<path id="XMLID_123_" class="st0" d="M211.5,219.7c-4.8,0-10.3-1.5-14.7-5.1c-5.2-4.3-7.8-7.2-7.4-8.1l0.7,0.3
								c0-0.1,0-0.1,0-0.1c0,0.1,0.2,1.5,7.2,7.3c6.1,5,14.2,5.8,19.4,4.3c3.1-0.9,5.1-2.4,5.8-4.4c1.2-3.6-0.3-12.1-0.4-12.5
								l0.7-0.3c0.2,0.5,1.7,9.3,0.4,13c-0.8,2.2-3,4-6.4,4.9C215.4,219.5,213.5,219.7,211.5,219.7z"/>
						</g>
						<g>
							<path id="XMLID_122_" class="st0" d="M211.2,223.5c-4.2,0-8.9-1.2-13-4.6c-7.8-6.4-9.2-10-9.2-10.2l0.8-0.3
								c0,0,1.4,3.5,9,9.8c5.8,4.8,13,5.1,17.8,3.7c3.5-1,6.1-2.9,6.8-5.2c1.2-3.6-0.7-14.1-0.9-14.5l0.7-0.3
								c0.2,0.3,2.2,11.2,0.9,15.1c-0.9,2.5-3.6,4.6-7.4,5.7C215,223.3,213.2,223.5,211.2,223.5z"/>
						</g>
						<g>
							<path id="XMLID_121_" class="st0" d="M215.4,230.1c-0.8,0-1.7-0.1-2.6-0.2c-9.9-1.9-17.9-13.5-18.2-14l0.7-0.5
								c0.1,0.1,8.2,11.9,17.7,13.7c3.4,0.6,6.6-0.1,9.6-2.1c3.4-2.3,0.9-10.4,0.9-10.5l0.8-0.2c0.1,0.4,2.7,8.7-1.2,11.4
								C220.6,229.3,218.1,230.1,215.4,230.1z"/>
						</g>
						<g>
							<path id="XMLID_120_" class="st0" d="M215.9,232.9c-1.3,0-2.5-0.2-3.8-0.5c-11.5-3.2-20.3-19.2-20.7-19.9l0.7-0.4
								c0.1,0.2,9,16.5,20.2,19.5c3.6,1,7,0.5,10.3-1.4c3.2-1.9,1.9-8.2,1.8-8.3l0.8-0.2c0.1,0.3,1.4,7-2.2,9.2
								C220.7,232.2,218.3,232.9,215.9,232.9z"/>
						</g>
						<g>
							<path id="XMLID_119_" class="st0" d="M218.7,239.4c-0.4,0-0.9-0.1-1.4-0.2c-6.6-1.9-12.3-10.3-12.5-10.7l0.7-0.4
								c0.1,0.1,5.8,8.5,12.1,10.3c1.1,0.3,2.1,0.2,3-0.4c3.3-2.3,3.9-10.4,3.9-10.5l0.8,0.1c0,0.3-0.6,8.6-4.2,11.1
								C220.3,239.2,219.5,239.4,218.7,239.4z"/>
						</g>
						<g>
							<path id="XMLID_118_" class="st0" d="M218.2,242.2c-0.4,0-0.8-0.1-1.2-0.2c-9-2.2-14.6-15.2-14.9-15.7l0.7-0.3
								c0.1,0.1,5.8,13.1,14.3,15.3c1.2,0.3,2.2,0.1,3-0.5c3.3-2.4,3.8-10.3,3.8-10.4l0.8,0c0,0.3-0.5,8.3-4.1,11
								C220,241.9,219.1,242.2,218.2,242.2z"/>
						</g>
						<g>
							<path id="XMLID_117_" class="st0" d="M219.9,246.3c-0.1,0-0.2,0-0.4,0c-3.2-0.6-10.9-9.9-11.3-10.3l0.6-0.5
								c2.2,2.6,8.4,9.6,10.8,10c0.3,0.1,0.6,0,0.9-0.2c1.5-1.2,2-6.1,2-7.9l0.8,0c0,0.3-0.3,6.9-2.3,8.5
								C220.7,246.2,220.3,246.3,219.9,246.3z"/>
						</g>
						<g>
							<path id="XMLID_116_" class="st0" d="M219.6,250c-4.8,0-12-14.7-12.3-15.3l0.7-0.4c2,4.1,8,14.8,11.6,14.8c0,0,0,0,0,0
								c0.8,0,1.5-0.3,2-0.9c2.4-2.8,1-10.8,1-10.9l0.8-0.1c0.1,0.3,1.4,8.4-1.2,11.5C221.5,249.6,220.7,250,219.6,250L219.6,250
								L219.6,250z"/>
						</g>
					</g>
					<g>
						<g>
							<path id="XMLID_115_" class="st0" d="M195.4,121.2h-4.6v-0.8h4.6c0.5,0,0.8-0.2,0.8-0.3c0,0-0.3-0.2-0.8-0.2h-4.6v-0.8h4.6
								c0.9,0,1.6,0.5,1.6,1.1C197,120.7,196.3,121.2,195.4,121.2z"/>
						</g>
						<g>
							<path id="XMLID_114_" class="st0" d="M197,126.1h-6.2v-0.8h6.2c0.8,0,1.3-0.3,1.3-0.5c0-0.2-0.5-0.5-1.3-0.5h-6.2v-0.8h6.2
								c1.2,0,2.1,0.6,2.1,1.3C199,125.6,198.1,126.1,197,126.1z"/>
						</g>
						<g>
							<path id="XMLID_113_" class="st0" d="M199.9,132.4h-9.2v-0.8h9.2c1,0,1.6-0.4,1.6-0.5c0-0.1-0.6-0.5-1.6-0.5h-9.2v-0.8h9.2
								c1.2,0,2.4,0.4,2.4,1.3C202.3,132,201.1,132.4,199.9,132.4z"/>
						</g>
						<g>
							<path id="XMLID_112_" class="st0" d="M202,138h-11.2v-0.8H202c1,0,1.6-0.4,1.6-0.5c0-0.1-0.6-0.5-1.6-0.5h-11.2v-0.8H202
								c1.2,0,2.4,0.4,2.4,1.3C204.4,137.5,203.2,138,202,138z"/>
						</g>
					</g>
					<g>
						<g>
							<path id="XMLID_111_" class="st0" d="M195.5,222h-4.6v-0.8h4.6c0.5,0,0.8-0.2,0.8-0.3c0,0-0.3-0.2-0.8-0.2h-4.6v-0.8h4.6
								c0.9,0,1.6,0.5,1.6,1.1C197.2,221.6,196.5,222,195.5,222z"/>
						</g>
						<g>
							<path id="XMLID_110_" class="st0" d="M194.7,228.7c-0.1,0-0.2,0-0.3,0c-0.9,0-3.4-0.3-3.5-0.4l0.1-0.8c0,0,2.6,0.3,3.4,0.3
								c1.3,0,3.3,0,3.8-0.5c0.1-0.1,0.1-0.2,0.1-0.3c0-0.2,0-0.3-0.1-0.3c-0.2-0.2-1-0.1-1.7,0c-0.7,0.1-1.4,0.2-2.2,0.2
								c-0.9-0.1-3.4-0.3-3.6-0.4l0.1-0.8c0,0,2.6,0.3,3.5,0.4c0.7,0,1.4-0.1,2-0.2c1-0.1,1.8-0.3,2.3,0.2c0.2,0.2,0.4,0.5,0.4,0.9
								c0,0.3-0.1,0.6-0.4,0.9C198.1,228.6,196.4,228.7,194.7,228.7z"/>
						</g>
						<g>
							<path id="XMLID_109_" class="st0" d="M194.7,281.7c-0.1,0-0.1,0-0.2,0c-0.9,0-3.4-0.3-3.5-0.4l0.1-0.8c0,0,2.6,0.3,3.4,0.4
								c0.9,0,2,0,2.8-0.1c0.7-0.1,1.1-0.4,1.1-0.7c0-0.2,0-0.3-0.1-0.3c-0.2-0.2-1-0.1-1.7,0c-0.7,0.1-1.4,0.2-2.2,0.2
								c-0.9-0.1-3.4-0.3-3.6-0.4l0.1-0.8c0,0,2.6,0.3,3.5,0.4c0.7,0,1.4-0.1,2-0.2c1-0.1,1.8-0.3,2.3,0.2c0.2,0.2,0.4,0.5,0.4,0.9
								c0,0.8-0.6,1.3-1.8,1.5C196.6,281.7,195.6,281.7,194.7,281.7z"/>
						</g>
						<g>
							<path id="XMLID_108_" class="st0" d="M195.6,236.1c-2.8,0-4.5-1.3-4.6-1.4l0.5-0.6c0,0,2,1.5,5.1,1.2
								c4.3-0.5,6.5-1.1,6.5-1.7c0-0.1,0-0.1,0-0.1c-0.3-0.2-1.5,0.1-2.5,0.3c-1.2,0.3-2.5,0.6-3.8,0.6c-3.8,0-5.6-1.3-5.7-1.3
								l0.5-0.6c0,0,1.7,1.2,5.2,1.2c1.2,0,2.5-0.3,3.7-0.6c1.5-0.3,2.6-0.6,3.1-0.1c0.2,0.1,0.3,0.4,0.3,0.8c0,1.4-2.6,2-7.2,2.5
								C196.3,236.1,195.9,236.1,195.6,236.1z"/>
						</g>
						<g>
							<path id="XMLID_107_" class="st0" d="M195.6,243.6c-2.8,0-4.5-1.3-4.6-1.4l0.5-0.6c0,0,2,1.5,5.1,1.2
								c4.3-0.5,6.5-1.1,6.5-1.7c0-0.1,0-0.1,0-0.1c-0.3-0.2-1.5,0.1-2.5,0.3c-1.2,0.3-2.5,0.6-3.8,0.6c-3.8,0.1-5.6-1.3-5.7-1.3
								l0.5-0.6c0,0,1.7,1.2,5.2,1.2c1.2,0,2.5-0.3,3.7-0.6c1.5-0.3,2.6-0.6,3.1-0.1c0.2,0.1,0.3,0.4,0.3,0.8c0,1.4-2.6,2-7.2,2.5
								C196.3,243.6,195.9,243.6,195.6,243.6z"/>
						</g>
						<g>
							<path id="XMLID_106_" class="st0" d="M195.6,251.5c-2.8,0-4.5-1.3-4.6-1.4l0.5-0.6c0,0,2,1.5,5.1,1.2
								c4.3-0.5,6.5-1.1,6.5-1.7c0-0.1,0-0.1,0-0.1c-0.3-0.2-1.5,0.1-2.5,0.3c-1.2,0.3-2.5,0.6-3.8,0.6c-3.8,0.1-5.6-1.3-5.7-1.3
								l0.5-0.6c0,0,1.7,1.2,5.2,1.2c1.2,0,2.5-0.3,3.7-0.6c1.5-0.3,2.6-0.6,3.1-0.1c0.2,0.1,0.3,0.4,0.3,0.8c0,1.4-2.6,2-7.2,2.5
								C196.3,251.5,195.9,251.5,195.6,251.5z"/>
						</g>
						<g>
							<path id="XMLID_105_" class="st0" d="M195.6,259.4c-2.8,0-4.5-1.3-4.6-1.4l0.5-0.6c0,0,2,1.5,5.1,1.2
								c3.5-0.4,6.5-1.6,6.5-2.4c0-0.1,0-0.1,0-0.1c-0.2-0.1-1.3,0.2-2,0.5c-1.2,0.4-2.8,1-4.3,1c-3.8,0-5.6-1.3-5.7-1.3l0.5-0.6
								c0,0,1.7,1.2,5.2,1.2c1.4,0,2.9-0.5,4.1-0.9c1.3-0.5,2.2-0.8,2.8-0.4c0.2,0.1,0.3,0.3,0.3,0.7c0,1.9-5.3,2.9-7.2,3.2
								C196.3,259.4,195.9,259.4,195.6,259.4z"/>
						</g>
						<g>
							<path id="XMLID_104_" class="st0" d="M195.6,267.2c-2.8,0-4.5-1.3-4.6-1.4l0.5-0.6c0,0,2,1.5,5.1,1.2
								c4.7-0.6,5.9-1.4,5.9-1.9c0-0.1,0-0.1,0-0.2c-0.2-0.1-1.2,0.1-1.9,0.3c-1.1,0.3-2.5,0.7-3.9,0.7c-3.9,0-5.6-1.3-5.7-1.3
								l0.5-0.6c0,0,1.7,1.2,5.2,1.2c1.3,0,2.6-0.4,3.7-0.7c1.3-0.4,2.1-0.6,2.6-0.2c0.2,0.1,0.3,0.4,0.3,0.8c0,0.5,0,1.9-6.6,2.7
								C196.3,267.2,195.9,267.2,195.6,267.2z"/>
						</g>
						<g>
							<path id="XMLID_103_" class="st0" d="M195.6,275.1c-2.8,0-4.5-1.3-4.6-1.4l0.5-0.6c0,0,2,1.5,5.1,1.2
								c3.1-0.4,5.9-1.8,5.9-2.6c0-0.1,0-0.1,0-0.1c-0.1,0-0.9,0.3-1.5,0.6c-1.1,0.5-2.7,1.2-4.3,1.2c-3.8,0-5.6-1.3-5.7-1.3
								l0.5-0.6c0,0,1.7,1.2,5.2,1.2c1.4,0,2.9-0.6,4-1.1c1.1-0.5,1.8-0.8,2.3-0.5c0.2,0.1,0.3,0.3,0.3,0.8c0,1.7-3.9,3.1-6.6,3.4
								C196.3,275.1,195.9,275.1,195.6,275.1z"/>
						</g>
					</g>
					<g>
						<path id="XMLID_102_" class="st0" d="M188.1,291.9l-0.1-0.8c2.1-0.3,2.8-0.8,2.8-1l0-78.6h0.8v78.7
							C191.6,291,190.2,291.7,188.1,291.9z"/>
					</g>
				</g>
				<g>
					<g>
						<path class="st0" d="M247.6,240.8L247.6,240.8c-0.8,0-1.5-0.1-2.2-0.2c-3.9-0.8-3.9-1.5-3.5-4.7c0.2-1.4,0.5-3.4,0.4-6.1
							c-0.1-5.5,0.6-15.7,1.2-24c0.3-4.9,0.6-9.1,0.7-11.5c0.2-6.5-1.4-15.9-3-21.1c-0.9-2.8-0.7-5.3,0.5-7.6c2.6-4.7,8.7-6.4,9-6.5
							l0.1,0l0.1,0c3.1,0.7,2.8,10.9,1.2,20.1c-3,16.9-1.5,41,0.5,45.6c0.4,0.9,1,1.4,1.7,2c1.2,1,2.6,2.1,3.5,5.7
							c0.4,1.6,0.1,3.2-1,4.6C255,239.3,251.3,240.8,247.6,240.8z M250.8,159.8c-0.8,0.2-6.2,2-8.4,6.1c-1.1,2-1.3,4.4-0.5,6.9
							c1.7,5.3,3.3,14.8,3.1,21.4c-0.1,2.4-0.4,6.7-0.7,11.5c-0.6,8.2-1.3,18.5-1.2,23.9c0,2.8-0.2,4.8-0.4,6.2
							c-0.4,3-0.4,3.2,2.8,3.8c0.6,0.1,1.3,0.2,2.1,0.2l0,0c3.4,0,6.9-1.4,8.5-3.5c0.9-1.2,1.2-2.5,0.9-3.9
							c-0.8-3.3-2.1-4.3-3.2-5.2c-0.7-0.6-1.5-1.2-1.9-2.3c-2-4.7-3.5-29-0.6-46.1C253.3,167.8,252.6,160.4,250.8,159.8z"/>
					</g>
					<g>
						<path id="XMLID_99_" class="st0" d="M246.3,238.7c-0.1,0-0.3,0-0.5-0.1l0.3-0.7c0.3,0.1,0.5,0,1.3-1.4
							c0.5-0.8,1.2-1.9,2.2-3.3c1-1.4,2.1-2.1,3.2-2.1c1.3,0,2.1,1.2,2.1,1.3l-0.7,0.4c0,0-0.6-0.9-1.5-0.9c-0.8,0-1.6,0.6-2.5,1.7
							c-1,1.4-1.7,2.5-2.2,3.3C247.4,238,247,238.7,246.3,238.7z"/>
					</g>
					<g>
						<path class="st0" d="M264.2,328.3c-2.6,0-7.2-19.4-9-30.3c-0.5-3.2-1.1-6.7-1.6-10.2c-1.7-11-3.4-22.4-5.4-26
							c-2.3-4.1-6.9-18.2-5.9-19.9c0.1-0.2,0.3-0.3,0.5-0.3c0.2,0,0.6,0,1.1,0c0.8,0,1.9,0.1,3.1,0.1c4.9,0,8-1,9.4-3l0.6-0.8l0.2,1
							c0.2,1,1.7,10.2-0.8,12.4c-2.3,2.1-1.1,14.4-0.7,19.7c0.5,6,6.7,43.4,10.7,49.4c1.5,2.3,1.1,4.3,0.7,5.2
							c-0.5,1.3-1.6,2.3-2.7,2.6C264.3,328.3,264.2,328.3,264.2,328.3L264.2,328.3z M242.9,242.5c-0.4,1.6,3.3,14.3,5.9,19
							c2.1,3.7,3.8,15.2,5.5,26.2c0.5,3.4,1.1,6.9,1.6,10.1c2.4,14.6,6.7,29.3,8.2,29.7c0.8-0.2,1.6-1,2.1-2.1
							c0.3-0.8,0.7-2.5-0.6-4.5c-4.2-6.2-10.3-43.5-10.9-49.8c-0.9-9.4-1.3-18.3,0.9-20.4c1.7-1.5,1.1-7.7,0.7-10.8
							c-1.7,1.8-4.9,2.6-9.4,2.6l0,0c-1.2,0-2.3-0.1-3.1-0.1C243.5,242.5,243.1,242.5,242.9,242.5z"/>
					</g>
					<g>
						<path id="XMLID_96_" class="st0" d="M268.5,327c-0.5,0-1-0.2-1.3-0.7c-0.5-0.9-0.5-1-0.6-3.3c0-1,0-2.6-0.1-4.9
							c-0.2-7.5-4-35.8-6.2-45.9c-2.5-11.5-4.7-20.9-4.8-21l0.8-0.2c0,0.1,2.3,9.5,4.8,21c2.2,10.1,6.1,38.6,6.2,46.1
							c0.1,2.3,0.1,3.8,0.1,4.9c0,2.2,0,2.2,0.4,2.9c0.4,0.6,1.5,0.2,1.9,0c0-10.4-5.9-48.7-7.4-56.7c-1.6-8.4-5.9-28.7-6-28.9
							l0.8-0.2c0,0.2,4.4,20.5,6,28.9c1.5,8.1,7.5,47,7.4,57.1l0,0.2l-0.2,0.1C269.9,326.7,269.2,327,268.5,327z"/>
					</g>
				</g>
				<g>
					<path class="st0" d="M227.2,211.6c-0.2,0-0.3-0.1-0.4-0.2c-0.3-0.4-0.2-1,0.2-2.8c0.6-2.6,1.5-6.9,0.6-10.9
						c-0.7-3.3-1.8-5.4-2.7-7.1c-1.1-2.2-2-3.9-1.3-6.5c0.2-0.9,0.6-1.9,1-3.1c1.5-4.6,3.6-10.9,0.9-14.3c-1.9-2.4-3.8-3.6-5.5-4.7
						c-1.4-0.9-2.6-1.7-3.5-2.9c-0.8-1.1-2.6-2.8-4.1-4.3c-2.8-2.8-3.5-3.5-3.3-4c0-0.1,0.2-0.4,0.6-0.3c0.2,0,19.5,2.2,23.4,2.3
						l0.2,0c2.2,0,4.7-0.8,6.7-1.5c1.5-0.5,2.7-0.9,3.4-0.8l0.1,0c1.8,0.2,6,0.7,6.8,3.2c0.7,2.4,0.8,3.9-0.9,4.8
						c-0.3,0.2-0.9,0.5-1.7,0.8c-2.3,1-6.6,2.9-6.9,4.4c-0.2,0.8-0.2,2.3-0.1,3.8c0.1,2.3,0.1,4.7-0.6,5.8c-0.3,0.4-0.6,0.8-1.1,1.2
						c-1.7,1.8-4.5,4.7-5.2,12.3c-0.6,7.6-2.2,20.9-5.5,24.1C227.8,211.4,227.5,211.6,227.2,211.6z M210.3,151.2
						c0.5,0.7,1.8,1.9,2.8,2.9c1.5,1.5,3.3,3.2,4.2,4.4c0.9,1.1,2,1.9,3.3,2.7c1.7,1.1,3.7,2.3,5.7,4.9c3,3.8,0.8,10.3-0.8,15.1
						c-0.4,1.1-0.7,2.1-1,3c-0.6,2.4,0.1,3.8,1.2,6c0.9,1.7,2,3.9,2.8,7.3c0.9,4.2-0.1,8.6-0.6,11.3c-0.2,0.7-0.3,1.4-0.4,1.9
						c0.1-0.1,0.2-0.2,0.3-0.3c2.3-2.2,4.3-10.8,5.3-23.5c0.6-7.9,3.6-11,5.4-12.8c0.4-0.4,0.8-0.8,1-1.1c0.6-0.9,0.5-3.3,0.5-5.4
						c0-1.6-0.1-3.1,0.2-4c0.4-1.7,3.9-3.4,7.4-4.9c0.7-0.3,1.3-0.6,1.6-0.8c1.1-0.6,1.2-1.5,0.5-3.9c-0.6-2-4.6-2.5-6.1-2.7l-0.1,0
						c-0.5-0.1-1.7,0.3-3,0.8c-2,0.7-4.6,1.5-6.9,1.5l-0.2,0C229.6,153.4,213.3,151.5,210.3,151.2z"/>
				</g>
				<g>
					<path id="XMLID_93_" class="st0" d="M227.5,152.8l-0.6-0.6c0.1-0.1,1.5-1.5,3.6-2.5c2.1-1,12.2,0.2,12.8,0.6l0.2,0.1l0,0.2
						h-0.8h0.4l-0.2,0.3c-0.7-0.3-10.2-1.4-12-0.6C228.8,151.4,227.5,152.8,227.5,152.8z"/>
				</g>
				<g>
					<path id="XMLID_92_" class="st0" d="M222.8,152.5l-0.4-0.7c0,0,3.4-1.8,5.7-3.7c2.4-2,9.1-1.5,11.6-1.3l0.3,0
						c2.3,0.2,5.9,3.9,6,4l-0.6,0.6c-1-1-3.8-3.6-5.5-3.8l-0.3,0c-2.2-0.2-8.9-0.7-11,1.1C226.3,150.7,223,152.4,222.8,152.5z"/>
				</g>
				<g>
					<path class="st0" d="M188.7,322h-1.4l0.1-0.5c0-0.2,2.1-17.1-7.9-20.8c-2.4-0.9-2.3-2.4-2.2-2.9c0.2-1.1,1.3-2,2.5-2
						c0.4,0,0.7,0.1,1,0.2c2.7,1.3,4.6,1.5,5.7,1.5c1,0,1.4-0.2,1.4-0.2l0.1,0l0.2,0l0.1,0c0,0,0.5,0.2,1.4,0.2c1.1,0,3-0.3,5.7-1.5
						c0.3-0.2,0.7-0.2,1-0.2c1.2,0,2.3,0.9,2.5,2c0.1,0.4,0.2,2-2.2,2.9c-10,3.7-8,20.6-7.9,20.8L188.7,322z M179.7,296.7
						c-0.8,0-1.5,0.6-1.7,1.3c-0.1,0.8,0.5,1.5,1.7,2c5.4,2,7.5,7.4,8.3,12.3c0.8-4.9,2.9-10.3,8.3-12.3c1.2-0.5,1.9-1.2,1.7-2
						c-0.1-0.7-0.9-1.3-1.7-1.3c-0.2,0-0.5,0.1-0.7,0.2c-2.8,1.3-4.9,1.6-6,1.6c-0.9,0-1.4-0.1-1.6-0.2c-0.2,0.1-0.8,0.2-1.6,0.2
						c-1.2,0-3.2-0.3-6-1.6C180.1,296.8,179.9,296.7,179.7,296.7z"/>
				</g>
				<g>
					<path id="XMLID_89_" class="st0" d="M187.7,329.7c-0.5,0-1,0-1.6-0.1l0.1-0.8c4.5,0.3,7.9-0.9,11.5-2.2c2-0.7,4.1-1.5,6.4-1.9
						c2.7-0.6,5.8-0.3,8.7,0c3.9,0.4,7.7,0.7,10-1.1c2.6-2.1,2.6-3.4,2.6-6.6c0-1.8,0-3.9,0.4-7c0.5-3.9,1.8-6.7,3.1-9.4
						c1.6-3.4,3.1-6.6,3-11.8c-0.1-9.4-12.4-17.1-16.1-17.3c-3.9-0.2-11.2,8.4-12.9,12c-1.8,3.9-6.9,4.5-7.1,4.5l-0.1-0.8
						c0,0,4.9-0.6,6.5-4.1c1.8-3.7,9.1-12.7,13.6-12.5c4.7,0.3,16.7,8.6,16.9,18.1c0.1,5.4-1.5,8.7-3.1,12.1c-1.2,2.6-2.5,5.4-3,9.1
						c-0.4,3-0.4,5.1-0.4,6.9c0,3.2,0,5-2.9,7.2c-2.6,2-6.4,1.7-10.5,1.3c-2.9-0.3-5.8-0.6-8.5,0c-2.3,0.5-4.3,1.2-6.3,1.9
						C194.6,328.6,191.5,329.7,187.7,329.7z"/>
				</g>
				<g>
					<path class="st0" d="M192.9,321.1l-0.1-0.5c-0.1-0.5-1.5-12.6,5.8-15.8c1.8-0.8,2.4-2.9,2.5-4.5c0.3-2.9-0.6-5.4-1-5.7
						c-1.9-0.9-2.4-1.9-3.7-4.7l-0.4-0.9c-1.4-3-4.6-2.2-4.8-2.1l-0.2-0.8c0,0,4-1.1,5.7,2.6l0.4,0.9c1.3,2.9,1.6,3.6,3.3,4.4
						c0.8,0.4,1.4,2.9,1.5,5.1l0.1,0c5.2,3.4,7.5,6.2,6.9,8.3c-0.2,0.7-0.3,1.6-0.3,2.5c-0.1,3-0.3,7-6.9,8.8L192.9,321.1z M202,300
						c-0.1,2.8-1.2,4.8-3.1,5.6c-6,2.6-5.6,12.3-5.4,14.5l7.9-2.1c6.1-1.6,6.2-5.1,6.3-8.1c0-1,0.1-1.9,0.3-2.7
						C208.5,306.2,208.1,304.1,202,300z"/>
				</g>
				<g>
					<path class="st0" d="M219.3,299.8c-0.7,0-1.4-0.2-2.2-0.7c-1-0.6-2-0.9-3.1-0.9c-0.8,0-1.6,0.2-2.4,0.3
						c-0.9,0.2-1.8,0.4-2.7,0.4c-0.8,0-1.6-0.1-2.4-0.4c-2.7-0.9-3.8-3.2-4.7-5c-0.5-1.1-1-2-1.6-2.2l-0.5-0.2l0.4-0.4
						c0,0,4-4.5,7.3-8.9c0.7-0.9,1.2-1.7,1.7-2.5c1.3-2,2.3-3.5,4-3.5c0.8,0,1.8,0.4,3,1.1c4.6,2.9,5.8,5.2,6.4,12.3
						c0.3,3.4,0.4,7.9-1.3,9.8C220.6,299.5,220,299.8,219.3,299.8z M214.1,297.4c1.2,0,2.3,0.3,3.5,1c1.3,0.8,2.3,0.8,3,0.1
						c1.1-1.3,1.6-4.6,1.1-9.2c-0.6-6.9-1.7-8.9-6.1-11.7c-1.1-0.7-1.9-1-2.6-1c-1.3,0-2.1,1.2-3.3,3.1c-0.5,0.8-1.1,1.6-1.7,2.5
						c-2.8,3.7-6,7.4-7,8.6c0.6,0.5,1,1.3,1.5,2.3c0.9,1.7,1.9,3.8,4.3,4.6c0.7,0.2,1.4,0.4,2.1,0.4c0.9,0,1.7-0.2,2.6-0.4
						C212.3,297.6,213.2,297.4,214.1,297.4z"/>
				</g>
				<g>
					<path class="st0" d="M216.2,322.3L216.2,322.3c-1.5-0.1-1.6-1.7-1.7-3.4c-0.1-1.4-0.2-2.9-0.9-4.2c-1.3-2.5-3.6-9.6-2.1-12.2
						c0.4-0.7,1.1-1.1,2.1-1c0.2,0,0.4,0,0.7,0c0.3,0,0.6,0,1,0c1,0,2.5,0.1,3.4,1.1c0.5,0.6,0.8,1.3,0.7,2.3l0,0.4
						C218.6,320.2,217.4,322.3,216.2,322.3z M213.3,302.3c-0.5,0-0.9,0.2-1.1,0.6c-1.3,2.2,0.8,9.1,2.1,11.4c0.8,1.4,0.9,3.1,1,4.5
						c0.1,1.8,0.3,2.6,0.9,2.6l0,0.4v-0.4c0.4,0,1.6-1.2,2.3-16.4l0-0.4c0-0.7-0.1-1.3-0.5-1.7c-0.5-0.5-1.4-0.8-2.8-0.8
						c-0.3,0-0.7,0-0.9,0c-0.3,0-0.6,0-0.8,0C213.5,302.3,213.4,302.3,213.3,302.3z"/>
				</g>
				<g>
					<path id="XMLID_82_" class="st0" d="M202.2,335c-0.1,0-0.3,0-0.4,0c-2.9-0.2-7-6.1-7.2-6.3l0.7-0.5c1.1,1.6,4.4,5.8,6.6,6
						c6.2,0.4,7-9.4,7-9.5l0.8,0.1C209.6,324.8,208.8,335,202.2,335z"/>
				</g>
				<g>
					<path id="XMLID_81_" class="st0" d="M202.1,339c-8.3,0-13-9.4-13-9.5l0.7-0.4c0.1,0.1,5.1,10.2,13.7,9
						c9.7-1.3,8.8-12.1,8.8-12.5l0.8-0.1c0,0.1,0.9,12-9.5,13.4C203.1,339,202.6,339,202.1,339z"/>
				</g>
				<g>
					<path id="XMLID_80_" class="st0" d="M221.7,337.4c-0.3,0-0.6-0.1-0.9-0.2c-2-0.8-2.2-2.5-2.4-3.9c-0.1-0.9-0.2-1.7-0.7-2.3
						c-1.2-1.6-5-2.4-5.1-2.4l0.2-0.8c0.2,0,4.2,0.9,5.5,2.7c0.6,0.8,0.7,1.7,0.8,2.6c0.2,1.4,0.4,2.6,1.9,3.3
						c0.4,0.2,0.7,0.2,1.1,0c1.3-0.6,2.3-3.1,2.9-4.6c0.2-0.6,0.4-1,0.5-1.3c0.2-0.3,0-0.6-0.8-1.2c-0.4-0.4-0.9-0.8-1.3-1.3
						c-1-1.5,0.4-5.6,0.6-5.9l0.3,0.3l0.3,0.2c-0.2,0.4-1.3,4-0.6,5c0.3,0.4,0.7,0.8,1.1,1.1c0.7,0.6,1.6,1.3,1,2.3
						c-0.1,0.2-0.3,0.6-0.5,1.1c-0.7,1.7-1.7,4.4-3.3,5.1C222.2,337.4,222,337.4,221.7,337.4z"/>
				</g>
				<g>
					<path id="XMLID_79_" class="st0" d="M218.2,331.6c-0.3-0.1-0.3-0.4-0.2-1l0-0.1c0.1-0.3,0.2-0.7,0.3-1.1
						c0.2-0.7,1.2-2.6,2.4-2.9l0.2,0.8c-0.7,0.2-1.6,1.5-1.9,2.4c-0.1,0.4-0.2,0.7-0.3,1l0,0.1c0,0.1-0.1,0.4-0.1,0.5l-0.4,0l0,0
						l0.4,0.2L218.2,331.6z"/>
				</g>
				<g>
					<path class="st0" d="M215.7,463.6c-1.4,0-2.2-0.4-2.6-0.5c-0.4,0.1-1.4,0.3-2.5,0.3c-1.1,0-1.9-0.2-2.4-0.7
						c-1.5-1.3-1.8-6.6-1.5-8.1c0-0.2,0-0.3,0.1-0.4c0.2-1.6,0.5-2.6,3-2.7c1.4-0.1,3.2-0.5,4.7-0.8c1-0.2,1.9-0.4,2.3-0.4
						c1,0,2.3,0,2.3,0l0.1,0l0.1,0c0.6,0.2,3.7,1.1,3.7,2.6c0,0.1,0,0.3,0,0.5c0.1,2.1,0.3,8.4-3.7,9.7
						C217.9,463.4,216.8,463.6,215.7,463.6z M213.3,462.2l0.2,0.1c0,0,0.7,0.5,2.3,0.5c1,0,2-0.2,3.2-0.5c3.4-1.1,3.2-6.9,3.1-8.9
						c0-0.2,0-0.4,0-0.5c0-0.6-1.8-1.4-3.1-1.8c-0.3,0-1.4,0-2.2,0h0c-0.4,0-1.2,0.2-2.1,0.4c-1.5,0.3-3.3,0.7-4.8,0.8
						c-2,0.1-2,0.6-2.2,2c0,0.1,0,0.3-0.1,0.5c-0.3,1.7,0.2,6.4,1.3,7.4c0.3,0.3,1,0.5,1.9,0.5c1.2,0,2.4-0.3,2.4-0.3L213.3,462.2z"
						/>
				</g>
				<g>
					<path id="XMLID_76_" class="st0" d="M213.5,462.8l-0.8-0.2c0.3-1.2,0.9-2.4,2-3.6c0.2-0.3,0.5-0.5,0.8-0.8
						c0.6-0.5,1.1-1.1,1.4-1.7c0.3-0.6,0.5-1.3,0.6-2l0.8,0.2c-0.2,0.8-0.4,1.5-0.7,2.2c-0.4,0.8-1,1.4-1.6,2
						c-0.2,0.2-0.5,0.5-0.7,0.7C214.4,460.6,213.8,461.7,213.5,462.8z"/>
				</g>
				<g>
					<g>
						<path id="XMLID_75_" class="st0" d="M211.4,451.2c-0.9,0-1.8-0.1-2.6-0.4c-1.5-0.5-2.4-1.5-2.5-2.9c-0.4-3.1,1.5-8.6,3.5-14.4
							c0.7-2,1.4-4,2-5.9c2.7-8.7,14.6-81.4,14-85.5l0-0.2c-0.2-1.2-0.3-2.2-0.9-3.3c-0.4-0.8-1.2-1.3-1.8-1.6l0.4-0.7
							c0.8,0.4,1.7,1,2.2,2c0.6,1.1,0.8,2.3,0.9,3.5l0,0.2c0.8,5-11.9,79.1-14,85.8c-0.6,2-1.3,4-2,6c-2,5.7-3.8,11.2-3.5,14
							c0.1,1,0.8,1.8,2,2.2c2.2,0.8,5.5,0.1,6.1-0.5c0.7-0.7,1.7-0.6,2.9-0.5c1.2,0.1,2.5,0.2,3.8-0.4c0.4-0.2,0.7-0.5,0.9-1
							c0.8-2.4-0.7-7.5-2.7-10.9c-1.9-3.2-0.2-13.7,1.7-24.7c0.6-3.6,1.2-7.3,1.7-10.8c0.9-6.2,3.6-18.8,6.3-30.9
							c3.2-14.8,6.6-30,6.6-34.1c0-1.6-0.5-2.8-1.6-3.8c-2.8-2.6-8.6-2.2-8.6-2.2l-0.1-0.8c0.3,0,6.1-0.4,9.3,2.5
							c1.2,1.1,1.8,2.6,1.8,4.4c0,4.1-3.2,18.8-6.6,34.2c-2.7,12.1-5.4,24.7-6.3,30.9c-0.5,3.5-1.1,7.2-1.7,10.8
							c-1.7,10.4-3.5,21.2-1.8,24.2c2,3.5,3.6,8.9,2.7,11.5c-0.3,0.8-0.7,1.3-1.3,1.5c-1.5,0.6-3,0.5-4.1,0.4
							c-1-0.1-1.9-0.1-2.3,0.3C215.2,450.7,213.3,451.2,211.4,451.2z"/>
					</g>
					<g>
						<path id="XMLID_74_" class="st0" d="M216.1,449.7l-0.7-0.4c0.1-0.2,0-0.6-0.2-0.9c-0.1-0.2-0.1-0.4-0.2-0.5
							c-0.3-1.4-0.5-3.3-0.4-5.2c0.1-1.8,0.9-3.6,1.7-5.3c0.1-0.3,0.3-0.5,0.4-0.7c0.3-0.5,0.6-1,0.6-1.5l0.8-0.1
							c0.1,0.8-0.3,1.4-0.7,2c-0.1,0.2-0.3,0.4-0.4,0.7c-0.8,1.6-1.5,3.4-1.6,5c-0.1,1.8,0,3.6,0.4,4.9c0,0.1,0.1,0.3,0.1,0.4
							C216.1,448.6,216.3,449.2,216.1,449.7z"/>
					</g>
					<g>
						<path id="XMLID_73_" class="st0" d="M220,443.6c-2.2-0.9-2-4.2-1.3-6.2c0.4-1.1,0.5-2,0.5-3h0.8c0,1.1-0.1,2.1-0.5,3.3
							c-0.6,1.6-0.8,4.5,0.9,5.2L220,443.6z"/>
					</g>
					<g>
						<path id="XMLID_72_" class="st0" d="M217.5,449.7l-0.4-0.7c0,0,0,0,0,0c0.2-0.2,0.4-1.5,0.4-2.4c0-0.6-0.1-1-0.4-1.4
							c-0.4-0.5-1.3-1-2.1-0.7l-0.2-0.8c1-0.3,2.1,0.1,2.9,1c0.6,0.7,0.6,1.4,0.6,1.9C218.4,446.9,218.3,449.3,217.5,449.7z"/>
					</g>
				</g>
				<g>
					<path class="st0" d="M216.4,568.7c-0.6,0-1.1-0.5-1.6-1.4c-0.9-1.9-1.5-6.1-0.4-7.4c1.1-1.4,7.2-21.8,6.8-36.2
						c-0.4-13.7-1.2-37.9-1.5-43.1c-0.1-1-0.1-1.8-0.1-2.6c-0.1-3-0.1-3.9-2.1-4.7l-0.2-0.1l-0.1-0.2c-0.2-0.6-1.8-6.3-0.6-8.3
						c0.3-0.4,0.6-0.6,1-0.7c0.2,0,0.4-0.1,0.6-0.1c1.6,0,5.4,1.1,5.4,11.5c0,2.5,0.1,6.8,0.1,11.8c0.2,14,0.5,33.1-0.1,40
						c-0.5,6.4-4.6,40-7,41.2C216.8,568.6,216.6,568.7,216.4,568.7z M218.1,472.7c2.3,1.1,2.3,2.4,2.4,5.4c0,0.7,0,1.6,0.1,2.6
						c0.3,5.2,1.1,29.4,1.5,43.1c0.4,14.3-5.6,34.9-7,36.7c-0.7,0.9-0.5,4.6,0.5,6.5c0.3,0.6,0.6,1,0.9,1c0.1,0,0.1,0,0.2,0
						c1.6-1.2,5.5-28.9,6.5-40.6c0.6-6.9,0.3-26,0.1-39.9c-0.1-5-0.1-9.3-0.1-11.8c0-9.7-3.2-10.7-4.6-10.7c-0.2,0-0.3,0-0.5,0
						c-0.2,0-0.4,0.1-0.5,0.3C216.7,466.6,217.6,470.9,218.1,472.7z"/>
				</g>
				<g>
					<path id="XMLID_69_" class="st0" d="M214.3,560.6c-0.1-0.2-0.2-0.4-0.3-0.7c-0.9-1.9-3-6.3-3.1-11.3
						c-0.1-5.2,2.8-64.3,4.3-69.8c1.4-5.2,2.2-6.1,2.4-6.2l0.4,0.7l-0.2-0.3l0.2,0.3c0,0-0.8,0.8-2.1,5.8
						c-1.4,5.5-4.3,64.4-4.2,69.5c0.1,4.8,2.2,9.1,3.1,10.9c0.2,0.3,0.3,0.6,0.4,0.8L214.3,560.6z"/>
				</g>
				<g>
					<path id="XMLID_68_" class="st0" d="M205.6,576.7c-0.1,0-0.3,0-0.4-0.1c-1-0.3-1.5-1.5-2.1-2.6c-0.3-0.6-0.6-1.3-0.9-1.6
						c-1.2-1.2,0.1-3.4,2.1-6.8c0.5-0.8,0.9-1.6,1.5-2.5c1.8-3.2,1.6-8.9,1.3-17.6c-0.1-3.3-0.2-7-0.3-11.2
						c-0.1-8.4,0.4-21.3,0.8-31.6c0.3-8.6,0.6-16,0.5-18.5c-0.3-5.7-1.1-8-3-11c-2.1-3.4-0.1-7.6,1.7-9c1-0.8,2.3-0.1,3.4,0.5
						c1,0.6,1.7,0.9,2,0.5c1.3-1.5,5.2-0.3,5.7-0.1l-0.2,0.8c-1.5-0.5-4.1-0.9-4.8-0.1c-0.8,0.9-2,0.3-3-0.3c-1.1-0.6-1.9-1-2.5-0.5
						c-1.5,1.2-3.4,5-1.5,8c1.9,3.1,2.8,5.4,3.1,11.4c0.1,2.5-0.2,10-0.5,18.6c-0.4,10.3-0.9,23.2-0.8,31.6c0,4.2,0.2,7.9,0.3,11.2
						c0.3,8.8,0.5,14.7-1.4,18.1c-0.5,0.9-1,1.8-1.5,2.5c-1.6,2.8-2.9,5-2.2,5.8c0.4,0.4,0.7,1.1,1,1.8c0.4,0.9,0.9,2,1.5,2.2
						c0.3,0.1,0.7,0,1.2-0.4c2.1-1.5,3.9-1.6,5.9-1.7c0.6,0,1.3-0.1,2-0.2c1.5-0.2,2.3-1.7,2.5-3c0.2-1.1-0.1-1.8-0.4-2l0.4-0.7
						c0.7,0.4,1,1.5,0.8,2.9c-0.3,1.5-1.2,3.4-3.2,3.7c-0.7,0.1-1.4,0.2-2.1,0.2c-1.9,0.1-3.6,0.3-5.5,1.6
						C206.5,576.5,206,576.7,205.6,576.7z"/>
				</g>
				<g>
					<g>
						<path class="st0" d="M292.8,354L292.8,354c-2.2,0-5.9-6.8-6.7-8.2l-0.1-0.2l0.1-0.2c0,0,0.3-0.9,0.9-1.8
							c0.1-0.1,0.3-0.2,0.4-0.2c0.8,0,2.9,3.2,6.4,9.4l0.1,0.2l-0.1,0.2C293.6,353.9,293.2,354,292.8,354z M287,345.7
							c1.7,3.2,4.6,7.6,5.9,7.6c0,0,0.1,0,0.3-0.2c-2.2-3.8-4.7-7.9-5.5-8.7C287.3,344.9,287.1,345.4,287,345.7z"/>
					</g>
					<g>
						<path class="st0" d="M285.4,375L285.4,375c-2.2,0-3.5-7.7-3.8-10l0-0.2l0.1-0.1c0,0,0.6-0.8,1.5-1.4c0.1-0.1,0.2-0.1,0.3-0.1
							c0.4,0,1.2,0,3,11l0,0.2l-0.1,0.1C286.1,374.8,285.8,375,285.4,375z M282.4,365c0.7,4.4,2,9.2,3,9.2l0,0c0.1,0,0.1,0,0.2-0.1
							c-0.7-4.3-1.7-9-2.2-10C283,364.5,282.6,364.8,282.4,365z"/>
					</g>
					<g>
						<path class="st0" d="M284.9,345.2l-0.3-0.3c-1.5-1.6-5.6-5.9-6.4-6.5c-0.9-0.6-1.2-2.5-0.9-3.5c0.2-0.7,0.7-0.8,0.8-0.8
							c0.2,0,0.4,0.1,0.5,0.2c1.2,0.8,7.9,7.7,8.2,8l0.2,0.3L284.9,345.2z M278,334.9c0,0-0.2,0.4-0.1,1c0,0.8,0.3,1.6,0.7,1.8
							c1,0.6,5,4.9,6.3,6.3l1.1-1.4C283.9,340.5,279.1,335.5,278,334.9C278.1,334.9,278,334.9,278,334.9z"/>
					</g>
					<g>
						<path class="st0" d="M267.1,341.7c-0.3,0-0.6,0-0.8-0.1c-1.6-0.3-2.8-1.1-3.4-2.4c-0.9-1.7-0.6-3.9-0.1-4.8
							c0.5-1,1-3.2,1.3-4.3c0.1-0.6,0.2-0.8,0.2-0.9c0.1-0.3,0.5-0.4,2-0.5c1.5-0.2,3.7-0.4,4.4-1l0.1-0.1l0.2,0
							c0.3,0,0.5,0.2,1.8,1.4c1.1,1,2.7,2.5,3.4,2.8c1.2,0.5,0.8,1.9,0.5,3c-0.1,0.4-0.3,0.9-0.2,1.2c0,0.2,0,0.6-0.7,1.3
							C274.1,339,270.3,341.7,267.1,341.7z M265,329.6c0,0.2-0.1,0.4-0.2,0.7c-0.3,1.3-0.8,3.4-1.4,4.5c-0.4,0.8-0.6,2.6,0.1,4.1
							c0.6,1.1,1.5,1.7,2.9,2c0.2,0,0.5,0.1,0.7,0.1c3.8,0,8.3-4.1,8.4-5c-0.1-0.4,0.1-0.9,0.3-1.5c0.3-1.1,0.5-1.8,0-2
							c-0.9-0.3-2.4-1.8-3.7-3c-0.5-0.4-1-0.9-1.2-1.1c-1,0.6-3.1,0.9-4.6,1C265.8,329.5,265.2,329.6,265,329.6z"/>
					</g>
					<g>
						<path class="st0" d="M277.8,350.7c-0.6,0-1-0.3-1.1-0.9c-0.3-1.2-2.5-10-2.5-10.1l-0.1-0.3l2.8-2.2l0.1,0.7
							c0,0,0.6,4.8,1.7,7.2c0.2,0.4,0.3,0.8,0.5,1.2c0.9,2.1,1.4,3.2,0.5,3.7C279.1,350.3,278.4,350.7,277.8,350.7z M274.9,339.7
							c0.4,1.5,2.2,8.8,2.5,9.9c0.1,0.3,0.2,0.3,0.4,0.3c0.3,0,0.8-0.2,1.4-0.6c0.3-0.2-0.4-1.6-0.9-2.7c-0.2-0.4-0.3-0.7-0.5-1.2
							c-0.8-2-1.4-5.3-1.6-6.7L274.9,339.7z"/>
					</g>
					<g>
						<path class="st0" d="M281.8,362.8L281.8,362.8c-0.5,0-1-0.3-1.3-0.9c-0.4-0.8-1-3.2-1.7-5.5c-0.4-1.4-0.7-2.8-0.9-3.3
							c-0.1-0.3-0.1-0.7,0-1c0.4-0.9,1.8-1.5,1.9-1.5l0.4-0.2l0.1,0.4c0,0.1,2.2,8.3,2.6,9.9c0.1,0.6,0.1,1.2-0.2,1.6
							C282.5,362.7,282.2,362.8,281.8,362.8z M279.7,351.6c-0.4,0.2-0.9,0.5-1.1,0.9c-0.1,0.1-0.1,0.3,0,0.4
							c0.2,0.5,0.5,1.8,0.9,3.4c0.5,2.1,1.2,4.6,1.6,5.3c0.3,0.5,0.7,0.6,0.9,0.3c0.1-0.2,0.2-0.5,0.1-0.9
							C281.9,359.6,280.2,353.3,279.7,351.6z"/>
					</g>
					<g>
						<path class="st0" d="M274.4,374.6L274.4,374.6c-2.1,0-2.5-7-2.6-9.2l0-0.2l0.1-0.1c0,0,0.6-0.6,1.4-1.1l0.1-0.1l0.2,0
							c0.4,0,1.1,0,1.8,10l0,0.2l-0.2,0.1C274.9,374.5,274.6,374.6,274.4,374.6z M272.5,365.6c0.2,4.4,1.1,8.2,1.8,8.2
							c0,0,0.1,0,0.1,0c-0.3-3.8-0.7-7.8-1.1-8.9C273,365.2,272.7,365.4,272.5,365.6z"/>
					</g>
					<g>
						<path class="st0" d="M269.8,352.7c-0.6,0-1-0.4-1.1-1c-0.1-1.1-1.4-9-1.4-9.1l-0.1-0.4l2.4-0.4l0.1,0.4c0,0,0.5,3.3,1.2,5.5
							c0.1,0.4,0.2,0.7,0.3,1c0.6,1.9,1,3,0.1,3.4C270.9,352.4,270.3,352.7,269.8,352.7z M268.1,342.9c0.3,1.6,1.2,7.7,1.3,8.7
							c0,0.2,0.1,0.3,0.3,0.3c0.3,0,0.7-0.1,1.2-0.4c0.2-0.2-0.2-1.4-0.6-2.4c-0.1-0.3-0.2-0.7-0.3-1.1c-0.6-1.9-1-4.3-1.1-5.2
							L268.1,342.9z"/>
					</g>
					<g>
						<path class="st0" d="M272.2,363.6L272.2,363.6c-0.5,0-1-0.4-1.2-0.9c-0.3-0.7-0.7-2.9-1-5c-0.2-1.3-0.4-2.5-0.5-2.9
							c-0.1-0.3-0.1-0.6,0.1-0.9c0.4-0.8,1.7-1.2,1.9-1.2l0.4-0.1l0.1,0.4c0,0.1,1.2,7.5,1.4,8.9c0.1,0.5,0,1-0.3,1.3
							C272.8,363.5,272.5,363.6,272.2,363.6z M271.2,353.6c-0.4,0.1-0.8,0.4-0.9,0.7c-0.1,0.1-0.1,0.2,0,0.3c0.1,0.5,0.3,1.7,0.5,3
							c0.3,1.9,0.7,4.2,0.9,4.8c0.1,0.3,0.4,0.4,0.5,0.4l0,0c0.1,0,0.2,0,0.2-0.1c0.1-0.1,0.2-0.4,0.1-0.7
							C272.4,360.8,271.5,355.3,271.2,353.6z"/>
					</g>
					<g>
						<path class="st0" d="M267.5,367.6L267.5,367.6c-0.2,0-0.4,0-0.6-0.3c-1-1.1-0.8-6.2-0.8-7.2l0-0.2l0.1-0.1
							c0,0,0.5-0.5,1.1-0.8l0.1-0.1l0.1,0c0.1,0,0.2,0.1,0.3,0.1c0.4,0.4,0.5,3.1,0.4,7.9l0,0.2l-0.1,0.1
							C267.9,367.5,267.7,367.6,267.5,367.6z M266.9,360.3c-0.1,3.1,0.1,6,0.6,6.4c0.1-2.8,0-5.7-0.1-6.8
							C267.2,360.1,267,360.2,266.9,360.3z"/>
					</g>
					<g>
						<path class="st0" d="M265.8,350c-0.6,0-0.9-0.4-0.9-0.9c0-0.8-0.3-7.2-0.3-7.2l0-0.4l1.9-0.2l0,0.4c0,0,0.1,2.6,0.4,4.4
							c0.1,0.3,0.1,0.6,0.2,0.8c0.3,1.6,0.5,2.5-0.2,2.8C266.6,349.8,266.2,350,265.8,350z M265.7,349.2
							C265.7,349.2,265.8,349.2,265.7,349.2c0.3,0,0.5-0.1,0.9-0.2c0.1-0.2-0.1-1.1-0.3-1.9c-0.1-0.3-0.1-0.5-0.2-0.9
							c-0.3-1.4-0.4-3.3-0.4-4.1l-0.3,0c0.1,1.4,0.3,6.1,0.3,6.9C265.7,349.2,265.7,349.2,265.7,349.2L265.7,349.2z"/>
					</g>
					<g>
						<path class="st0" d="M266.8,358.8L266.8,358.8c-0.4,0-0.8-0.3-1-0.9c-0.2-0.5-0.2-2-0.4-4c-0.1-1-0.1-2-0.2-2.3
							c-0.2-1,0.9-1.5,1.6-1.6l0.5-0.1l0,0.5c0,0.2,0.4,6,0.4,7.1c0,0.6-0.2,0.9-0.3,1.1C267.2,358.7,267,358.8,266.8,358.8z
							 M266.6,350.9c-0.3,0.1-0.6,0.3-0.5,0.6c0.1,0.4,0.1,1.3,0.2,2.4c0.1,1.5,0.2,3.3,0.3,3.8c0.1,0.3,0.2,0.3,0.3,0.3
							c0,0,0.1-0.2,0.1-0.5C266.9,356.5,266.7,352.4,266.6,350.9z"/>
					</g>
					<g>
						<path class="st0" d="M281.4,378.8L281.4,378.8c-2.2,0-3.5-8.1-3.8-10.6l0-0.2l0.1-0.1c0,0,0.6-0.8,1.5-1.5
							c0.1-0.1,0.2-0.1,0.3-0.1c0.4,0,1.2,0,3,11.7l0,0.2l-0.1,0.1C282,378.7,281.7,378.8,281.4,378.8z M278.4,368.3
							c0.7,5.1,2.2,10.4,3.2,9.7c-0.7-4.6-1.7-9.6-2.2-10.7C278.9,367.7,278.5,368.1,278.4,368.3z"/>
					</g>
					<g>
						<path class="st0" d="M273.7,353c-0.6,0-1-0.4-1.1-1c-0.3-1.3-2.5-10.6-2.5-10.7l-0.1-0.2l2.8-2.3l0.1,0.7
							c0,0.1,0.6,5.1,1.7,7.7c0.2,0.4,0.3,0.8,0.5,1.2c0.9,2.2,1.4,3.4,0.5,3.9C275.1,352.6,274.4,353,273.7,353z M270.9,341.4
							c0.4,1.5,2.2,9.3,2.5,10.5c0.1,0.3,0.2,0.4,0.4,0.4c0.3,0,0.8-0.2,1.4-0.6c0.3-0.2-0.3-1.6-0.9-2.9c-0.2-0.4-0.3-0.8-0.5-1.2
							c-0.8-2.1-1.4-5.6-1.6-7.1L270.9,341.4z"/>
					</g>
					<g>
						<path class="st0" d="M277.7,365.9c-0.5,0-1-0.4-1.3-0.9c-0.4-0.8-1-3.4-1.6-5.8c-0.4-1.5-0.7-3-0.9-3.5
							c-0.5-1.3,1-2.3,1.9-2.7l0.4-0.2l0.1,0.4c0,0.1,2.2,8.8,2.6,10.5c0.2,0.7,0.1,1.3-0.3,1.7
							C278.4,365.7,278.1,365.9,277.7,365.9z M275.7,354c-0.5,0.3-1.3,0.8-1.1,1.4c0.2,0.5,0.5,1.9,0.9,3.6c0.5,2.2,1.2,4.9,1.6,5.6
							c0.2,0.4,0.5,0.5,0.6,0.5c0.1,0,0.2-0.1,0.3-0.1c0.2-0.2,0.2-0.6,0.1-1C277.8,362.5,276.1,355.8,275.7,354z"/>
					</g>
				</g>
				<g>
					<g>
						<path class="st0" d="M211,580.7c-0.4,0-0.8,0-1.5-0.1c-0.5-0.1-1-0.1-1.6-0.1c-2.2-0.1-3.5-0.2-3.8-1
							c-0.2-0.6,0.3-1.1,0.8-1.4c2.4-2,10.5-3,10.9-3.1l0.1,0l0.1,0c0,0,0.3,0.1,0.7,0.2c0.7,0.3,1.6,0.7,1.9,1.4
							c0.2,0.4,0.2,0.8,0,1.2c-0.5,1.2-2,1.4-3.4,1.6c-0.8,0.1-1.5,0.2-1.9,0.5C212.5,580.4,212.1,580.7,211,580.7z M215.8,575.8
							c-0.8,0.1-8.3,1.2-10.4,2.9c-0.5,0.4-0.5,0.6-0.5,0.6c0.2,0.3,2.1,0.4,3,0.4c0.6,0,1.2,0.1,1.7,0.1c0.6,0.1,1,0.1,1.4,0.1
							c0.8,0,1.1-0.2,1.8-0.7c0.5-0.4,1.4-0.5,2.3-0.6c1.1-0.2,2.5-0.3,2.7-1.1c0.1-0.2,0.1-0.4,0-0.6c-0.2-0.4-0.7-0.7-1.4-1
							C216.1,575.8,215.9,575.8,215.8,575.8z"/>
					</g>
					<g>
						<path class="st0" d="M209.1,600.1c-2.9,0-3.3-1.2-3.3-1.9c0-0.3-0.1-1-0.3-1.9c-0.5-2.5-1.2-6.3,0.2-8
							c0.6-0.8,1.6-1.1,2.9-0.9c0.7,0.1,0.6,0.9,0.6,2.2c0,1.5-0.1,3.7,1,5.2c1.7,2.4,2.4,3.6,2,4.5c-0.2,0.4-0.5,0.6-1,0.7
							C210.9,600,210.1,600.1,209.1,600.1z M208,588.2c-0.7,0-1.2,0.2-1.6,0.7c-1.2,1.5-0.5,5.2-0.1,7.4c0.2,0.9,0.3,1.6,0.3,2
							c0,0.9,1.4,1.1,2.5,1.1c0.9,0,1.7-0.1,2.1-0.2c0.2,0,0.4-0.1,0.4-0.2c0.2-0.6-1.1-2.5-1.9-3.7c-1.2-1.7-1.2-4.1-1.1-5.7
							c0-0.5,0-1.1,0-1.4C208.3,588.2,208.2,588.2,208,588.2z"/>
					</g>
					<g>
						<path class="st0" d="M211.8,611.4c-0.8,0-1.1-0.3-1.3-0.6c-0.5-0.9-4-8.6-3.3-9.9c0.2-0.3,0.5-0.4,0.8-0.3
							c0.4,0.1,0.9,0.2,1.6,0.2c1.2,0,2.4-0.2,2.4-0.2l0.3-0.1l0.1,0.3c0,0.1,2.5,5.1,3.3,6.9c0.2,0.5,0.1,1.1-0.2,1.7
							C214.8,610.4,213,611.4,211.8,611.4z M207.9,601.4c-0.1,1.2,2.4,7.4,3.3,9c0.1,0.2,0.4,0.2,0.6,0.2c1,0,2.5-0.8,3-1.6
							c0.2-0.3,0.3-0.6,0.2-0.9c-0.7-1.6-2.6-5.6-3.1-6.6c-0.4,0.1-1.3,0.2-2.2,0.2l0,0C208.9,601.6,208.3,601.5,207.9,601.4z"/>
					</g>
					<g>
						<path class="st0" d="M214.6,620.3c-1.1,0-1.6-0.4-1.9-0.8c-0.6-1-2.6-4.4-1.7-6.3c0.3-0.7,0.9-1.1,1.7-1.2
							c2.6-0.4,3.3-1.7,3.3-1.7l0.4-0.7l0.3,0.7c0.1,0.2,2.7,5.7,2.9,7.2c0,0.3-0.1,0.7-0.4,1C218.5,619.5,216.2,620.3,214.6,620.3z
							 M216.4,611.3c-0.5,0.5-1.6,1.2-3.5,1.6c-0.6,0.1-0.9,0.3-1.1,0.7c-0.6,1.2,0.5,3.8,1.6,5.6c0.2,0.3,0.8,0.4,1.2,0.4
							c1.4,0,3.4-0.8,4.1-1.6c0.1-0.1,0.2-0.3,0.2-0.4C218.8,616.6,217.2,613.1,216.4,611.3z"/>
					</g>
					<g>
						<g>
							<path class="st0" d="M214.6,600.1c-1.2,0-1.9-0.6-2-1.6c-0.1-0.4-0.3-1-0.5-1.8c-0.8-2.7-2-6.8-0.7-8.5
								c0.4-0.5,1-0.8,1.8-0.7c0.6,0,0.6,0.7,0.8,2.1c0.2,1.5,0.5,3.7,1.5,5.1c1.6,2.3,2.3,3.5,2,4.3c-0.1,0.2-0.2,0.5-0.6,0.7
								C216.5,599.8,215.5,600.1,214.6,600.1z M212.9,588.3c-0.4,0-0.7,0.1-0.9,0.4c-1,1.3,0.2,5.4,0.9,7.8c0.3,0.9,0.4,1.5,0.5,1.9
								c0.1,0.4,0.3,0.9,1.2,0.9c0.8,0,1.6-0.3,1.9-0.4c0.1-0.1,0.2-0.1,0.2-0.2c0.2-0.6-1.1-2.4-1.9-3.6c-1.1-1.6-1.4-3.9-1.6-5.5
								C213.1,589.1,213,588.5,212.9,588.3z"/>
						</g>
						<g>
							<path class="st0" d="M218.8,610.7c-0.4,0-0.8-0.2-1.1-0.6c0-0.1-4.4-8.1-3.8-9.2c0.1-0.2,0.4-0.3,0.7-0.2
								c0.1,0,0.3,0.1,0.5,0.1c1,0,2.1-0.5,2.1-0.5l0.4-0.2l0.1,0.4c0,0.1,1.7,5.4,2.5,7.2c0.4,0.8,0.3,1.6-0.1,2.3
								C219.9,610.4,219.3,610.7,218.8,610.7z M214.7,601.5c0.2,1.4,2.9,6.8,3.7,8.2c0.3,0.4,0.8,0.2,1.1-0.3
								c0.1-0.2,0.4-0.8,0.1-1.5c-0.7-1.5-2-5.5-2.4-6.8c-0.5,0.2-1.3,0.4-2,0.4l0,0C215,601.5,214.8,601.5,214.7,601.5z"/>
						</g>
						<g>
							<path class="st0" d="M222.9,619.1c-0.6,0-1.2-0.4-1.7-1.1c-0.2-0.3-0.5-0.6-0.8-1c-1.2-1.5-2.6-3.3-2.3-4.6
								c0.1-0.3,0.3-0.7,0.9-1c1.5-0.6,1.6-1,1.6-1c0,0,0,0,0,0.1l0.8-0.2c0.1,0.2,2,5.7,2.4,7.1c0.1,0.5,0.1,1-0.2,1.3
								C223.6,619,223.3,619.1,222.9,619.1z M221.1,611.4c-0.3,0.3-0.8,0.5-1.6,0.8c-0.3,0.1-0.4,0.3-0.5,0.4
								c-0.2,0.9,1.2,2.7,2.1,3.9c0.3,0.4,0.6,0.7,0.8,1c0.4,0.6,0.8,0.8,1,0.8c0.1,0,0.2-0.1,0.2-0.1c0.1-0.1,0.1-0.3,0-0.6
								C222.9,616.6,221.6,612.9,221.1,611.4z"/>
						</g>
					</g>
					<g>
						<g>
							<path class="st0" d="M218.9,599.1c-0.8,0-1.4-0.5-1.6-1.4c-0.1-0.3-0.3-0.9-0.6-1.7c-1.2-3.4-2.2-6.7-1.3-8
								c0.2-0.3,0.5-0.6,1.2-0.6c0.5,0,0.6,0.5,0.9,1.9c0.3,1.4,0.8,3.4,1.6,4.7c1.5,2.2,2.1,3.2,1.9,3.9c-0.1,0.3-0.2,0.5-0.4,0.6
								C220.4,598.7,219.7,599.1,218.9,599.1z M216.4,588.3c-0.2,0-0.3,0.1-0.4,0.2c-0.8,1.1,0.6,5.1,1.4,7.2
								c0.3,0.8,0.5,1.4,0.6,1.8c0.2,0.7,0.6,0.8,0.9,0.8c0.4,0,1-0.2,1.3-0.4c0,0,0.1,0,0.1-0.1c0.1-0.5-1-2.2-1.8-3.3
								c-1-1.4-1.4-3.5-1.8-4.9C216.6,589,216.5,588.5,216.4,588.3z"/>
						</g>
						<g>
							<path class="st0" d="M223,608.9c-0.3,0-0.6-0.2-0.8-0.5c0-0.1-4.2-7.7-3.6-8.7c0.1-0.2,0.2-0.2,0.4-0.2l0.2,0
								c0.1,0,0.2,0,0.3,0c0.5,0,1.3-0.4,1.5-0.5l0.4-0.2l0.2,0.4c0,0,2.3,4.3,3.1,5.9c0.5,1,0.2,2.1-0.3,2.8
								C223.9,608.5,223.5,608.9,223,608.9z M219.4,600.3c0.4,1.5,2.9,6.6,3.5,7.7c0,0.1,0.1,0.1,0.1,0.1c0.1,0,0.4-0.2,0.6-0.6
								c0.4-0.6,0.6-1.4,0.2-2.1c-0.6-1.3-2.3-4.5-2.9-5.5C220.6,600.1,220,600.3,219.4,600.3L219.4,600.3
								C219.4,600.3,219.4,600.3,219.4,600.3z"/>
						</g>
						<g>
							<path class="st0" d="M227,615.9c-0.5,0-0.9-0.3-1.2-0.7c-0.2-0.3-0.4-0.6-0.7-1c-1-1.3-2.2-3-1.9-4.1
								c0.1-0.3,0.3-0.6,0.6-0.8c1.1-0.7,1.2-1.8,1.2-1.8l0.1-1.5l0.7,1.3c2.6,4.9,2.7,5.4,2.9,5.9l0.1,0.2c0.2,0.5,0.1,1.2-0.3,1.7
								C228,615.6,227.5,615.9,227,615.9z M225.5,608.6c-0.2,0.5-0.6,1-1.3,1.4c-0.1,0.1-0.2,0.2-0.2,0.3c-0.2,0.8,1,2.4,1.8,3.4
								c0.3,0.4,0.5,0.7,0.7,1c0.3,0.5,0.9,0.4,1.2-0.1c0.2-0.3,0.3-0.7,0.2-1l-0.1-0.2C227.7,613,227.6,612.6,225.5,608.6z"/>
						</g>
					</g>
					<g>
						<g>
							<path class="st0" d="M222.9,599c-0.4,0-1-0.2-1.4-1.1c-0.1-0.3-0.4-0.8-0.8-1.4c-1.7-3.1-3.1-5.9-2.5-7.1
								c0.1-0.2,0.4-0.5,0.9-0.6c0,0,0,0,0,0c0.4,0,0.6,0.4,1.1,1.6c0.5,1.2,1.3,3,2.2,4c1.8,2,2.8,3.2,2,3.9
								C224.1,598.5,223.6,599,222.9,599z M218.9,589.7C218.9,589.7,218.9,589.7,218.9,589.7c-0.5,1,1.5,4.7,2.4,6.4
								c0.4,0.7,0.7,1.2,0.8,1.5c0.3,0.6,0.6,0.6,0.7,0.6c0.3,0,0.7-0.3,1-0.5c0.1-0.4-1.3-2-2.1-2.8c-1-1.1-1.8-3-2.3-4.2
								C219.2,590.3,219.1,589.9,218.9,589.7z"/>
						</g>
						<g>
							<path class="st0" d="M228.1,607.3c-0.2,0-0.4-0.1-0.7-0.4c-0.1-0.1-4.9-6.6-4.5-7.5c0.1-0.2,0.2-0.3,0.4-0.3l0.1,0
								c0.4,0.1,1-0.4,1.2-0.6l0.3-0.3l0.3,0.4c0,0,2.7,3.6,3.6,4.9c0.6,0.9,0.6,2.2,0.2,3C228.7,607.3,228.3,607.3,228.1,607.3z
								 M223.8,600.1c0.6,1.3,3.5,5.5,4.3,6.4c0,0,0,0,0,0c0.1-0.1,0.2-0.2,0.3-0.5c0.2-0.5,0.1-1.3-0.2-1.9
								c-0.8-1.1-2.6-3.6-3.3-4.6C224.5,599.8,224.2,600,223.8,600.1z"/>
						</g>
						<g>
							<path class="st0" d="M232.4,613c-0.3,0-0.7-0.2-1-0.6c-0.2-0.2-0.5-0.5-0.8-0.8c-1-1.1-2.2-2.3-2.2-3.2
								c0-0.3,0.1-0.6,0.3-0.8c0.7-0.7,0.5-1.7,0.5-1.7l-0.5-2.5l1.2,2.2c0,0,2.3,4.2,2.9,5.3c0.3,0.6,0.4,1.3,0.1,1.7
								C233,612.9,232.7,613,232.4,613z M230.1,607.1c-0.1,0.3-0.3,0.7-0.7,1c-0.1,0.1-0.1,0.1-0.1,0.2c0,0.6,1.2,1.9,1.9,2.7
								c0.3,0.3,0.6,0.6,0.8,0.9c0.2,0.2,0.3,0.3,0.4,0.3c0.1-0.1,0.1-0.5-0.1-1C231.9,610.6,230.8,608.5,230.1,607.1z"/>
						</g>
					</g>
					<g>
						<g>
							<path class="st0" d="M225.3,597.2c-0.3,0-0.9-0.1-1.3-0.9c-0.1-0.3-0.6-0.9-1.1-1.6c-1.6-2.2-2.8-3.9-2.4-4.8
								c0.1-0.2,0.3-0.5,0.9-0.6l0.1,0c0.4,0,0.6,0.3,1.6,1.6c0.6,0.7,1.3,1.7,2,2.3c1.4,1.5,2,2.2,2,2.8c0,0.2-0.1,0.4-0.3,0.6
								C226.6,596.8,225.9,597.2,225.3,597.2z M221.4,590.1c-0.1,0-0.1,0.1-0.1,0.1c-0.3,0.6,1.4,2.9,2.3,4.1c0.6,0.8,1,1.4,1.2,1.8
								c0.2,0.4,0.4,0.4,0.5,0.4c0.3,0,0.7-0.3,1-0.5c0-0.3-1.2-1.6-1.8-2.2c-0.7-0.7-1.4-1.6-2-2.4
								C222.1,590.9,221.6,590.3,221.4,590.1z"/>
						</g>
						<g>
							<path class="st0" d="M229.8,604.1c-0.2,0-0.4-0.1-0.6-0.3c0,0-4.3-5.3-3.9-6.2c0.1-0.2,0.2-0.3,0.4-0.3l0.1,0c0,0,0,0,0,0
								c0.4,0,0.9-0.4,1.1-0.6l0.3-0.3l0.3,0.3c0,0,2.3,2.9,3.2,4c0.6,0.7,0.4,1.8,0.1,2.5C230.5,603.8,230.2,604.1,229.8,604.1z
								 M226.2,598.1c0.6,1.1,3,4.5,3.7,5.2l0,0c0.1,0,0.2-0.2,0.3-0.5c0.1-0.4,0.2-1-0.1-1.4c-0.6-0.9-2.3-2.9-2.9-3.7
								C226.9,597.8,226.5,598,226.2,598.1z"/>
						</g>
						<g>
							<path class="st0" d="M233.7,608.7c-0.3,0-0.6-0.2-0.9-0.5c-0.2-0.2-0.4-0.4-0.7-0.7c-0.9-0.8-1.9-1.8-1.9-2.7
								c0-0.3,0.1-0.6,0.4-0.8c0.7-0.6,0.6-1.4,0.6-1.4l-0.3-2.1l1,1.8c0.1,0.1,2,3.5,2.4,4.4c0.3,0.5,0.3,1.1,0.1,1.5
								C234.2,608.5,233.9,608.7,233.7,608.7z M231.7,603.8c-0.1,0.3-0.3,0.6-0.7,0.9c-0.1,0.1-0.1,0.1-0.1,0.2c0,0.5,1,1.5,1.7,2.1
								c0.3,0.3,0.5,0.5,0.7,0.7c0.2,0.2,0.3,0.2,0.3,0.2v0.4l0-0.4c0.1,0,0.1-0.4-0.1-0.7C233.3,606.6,232.3,604.9,231.7,603.8z"/>
						</g>
					</g>
					<g>
						<path class="st0" d="M206.2,587.1c-0.6,0-1.1-0.2-1.3-0.7c-0.7-1.5-0.6-3.6,0.8-4.7c0.6-0.5,1.5-0.6,2.2-0.6c0.3,0,0.7,0,1,0
							c0.3,0,0.6,0,0.9,0c0.5,0,0.9-0.1,1.1-0.2c1-0.5,5.3-2.2,7.1-2.2c0.8,0,1.1,0.4,1.1,0.6c0.2,0.5,2,4.4,0.3,6.2
							c-0.6,0.6-1.3,0.9-2.4,0.9c-0.9,0-1.8-0.2-2.8-0.4c-0.9-0.2-1.7-0.4-2.4-0.4c-0.9,0-2,0.3-3.1,0.6
							C207.9,586.8,207,587.1,206.2,587.1z M208,582c-0.8,0-1.3,0.1-1.7,0.4c-1.1,0.9-1.1,2.5-0.6,3.7c0,0,0.1,0.2,0.5,0.2
							c0.6,0,1.5-0.3,2.5-0.5c1.1-0.3,2.3-0.7,3.3-0.7c0.8,0,1.7,0.2,2.6,0.4c0.9,0.2,1.8,0.4,2.6,0.4c0.8,0,1.4-0.2,1.8-0.7
							c1.2-1.3,0-4.3-0.5-5.4l0-0.1c0,0-0.1,0-0.3,0c-1.7,0-5.9,1.6-6.8,2.1c-0.4,0.2-0.8,0.3-1.5,0.3c-0.3,0-0.6,0-1,0
							C208.6,582,208.3,582,208,582z"/>
					</g>
				</g>
			</g>
			<g>
				<path id="XMLID_3_" class="st0" d="M164.9,75.6l-0.6-0.6c0.3-0.2,1.3-1.6,4.4-8.5c1.9-4.4,2.4-10.2,2.6-13.3
					c0.1-2,0.2-2.3,0.5-2.5l0.4,0.7c0.1-0.1,0.1-0.1,0.1-0.1c-0.1,0.2-0.1,1.1-0.2,2c-0.2,3.2-0.7,9-2.7,13.6
					C167.3,71.8,165.7,74.9,164.9,75.6z"/>
			</g>
			<g>
				<path id="XMLID_2_" class="st0" d="M211.1,75.6c-0.8-0.7-2.4-3.9-4.6-8.8c-2-4.5-2.4-10.4-2.7-13.6c-0.1-0.9-0.1-1.8-0.2-2
					c0,0,0,0.1,0.1,0.1l0.4-0.7c0.3,0.2,0.3,0.5,0.5,2.5c0.2,3.1,0.7,8.9,2.6,13.3c3.1,6.9,4.1,8.3,4.4,8.5L211.1,75.6z"/>
			</g>
			<g>
				<path id="XMLID_1_" class="st0" d="M165.5,74.6l-0.7-0.4c0.5-1.1,3.5-6.6,9.7-6.5c3.8,0.1,6,1.7,7.9,3.1c1.4,1.1,2.7,2,4.5,2.2
					l2.2,0c1.7-0.2,3-1.1,4.4-2.2c1.9-1.4,4-3,7.9-3.1c0.1,0,0.2,0,0.2,0c6.1,0,8.9,5.4,9.5,6.4l-0.7,0.4l0-0.1c-0.5-1-3.2-6.1-9-6
					c-3.6,0.1-5.5,1.5-7.4,2.9c-1.5,1.1-2.9,2.1-4.9,2.4l-2.3,0c-2.1-0.2-3.4-1.3-4.9-2.4c-1.9-1.4-3.8-2.8-7.4-2.9
					C168.8,68.3,166.1,73.5,165.5,74.6L165.5,74.6z"/>
			</g>
		</g>
	</g>
</g>
</svg>
