<?xml version="1.0"?>
 <svg width="375" height="667" xmlns="http://www.w3.org/2000/svg" xmlns:svg="http://www.w3.org/2000/svg" xmlns:xlink="http://www.w3.org/1999/xlink"> 

 <defs>
  <symbol id="svg_43" viewBox="0 0 375 667" xmlns="http://www.w3.org/2000/svg" xmlns:xlink="http://www.w3.org/1999/xlink">
   <style type="text/css">.st0{fill:none;stroke:#000000;stroke-width:2;stroke-linecap:round;stroke-linejoin:round;stroke-miterlimit:10;}</style>
   <g id="svg_2">
    <g id="svg_3">
     <path id="svg_42" class="st0" d="m213.5,297.5c1.9,0.7 2.9,2.3 3.5,4c4,11.1 13.1,16.4 22.9,21.7c13,7.1 26.4,13.1 40.1,18.9c16.6,7 26.1,20 30.1,37.4c2.4,10.8 4.1,21.7 6.1,32.5c3.1,16.7 4,33.6 4.3,50.5c0.2,10 -0.3,20 -0.4,30"/>
     <path id="svg_41" class="st0" d="m194,315.5c0.2,59 -0.1,118 -1,177"/>
     <path id="svg_40" class="st0" d="m225,312.5c1.7,-5.2 0.5,-10.7 1,-16c0.7,-7.9 0.9,-15.5 4.7,-23.2c5.5,-11.2 7.6,-23.8 6.1,-36.3c-1.2,-10.1 -3.5,-20.1 -9.8,-28.5c-3.8,-5.1 -10.9,-7.2 -17,-4.4c-2.1,1 -3.9,0.8 -6.1,0c-7.5,-2.6 -15.3,-2.8 -22.9,-0.5c-1.6,0.5 -3.3,0.8 -4.5,0.3c-7.5,-2.9 -13.5,0.3 -18.4,5.2c-6.6,6.4 -9.1,14.8 -10.2,23.9c-1.9,15.6 3.5,29.9 7.2,44.5c0.4,1.5 1.4,2.9 2.5,4c3.7,3.7 2.9,8.5 3.7,13c1,5.4 -0.3,10.9 1.8,16"/>
     <path id="svg_39" class="st0" d="m241.5,344.5c-1.4,-3.3 -4.9,-4.1 -7.6,-5.3c-2.6,-1.1 -5.3,0.5 -6.9,3.3c-5.8,9.6 -8.1,19.6 -6.3,31.1c0.9,5.9 1.9,11.9 2.5,17.9c1.4,13.1 3.5,26.1 5.9,39c1.3,6.9 7.2,8.7 13.4,5"/>
     <path id="svg_38" class="st0" d="m172,296.5c-0.2,3.2 -1.7,6 -3.5,8.5c-6,7.8 -12.7,14.9 -21.9,19.1c-13.7,6.2 -27.4,12.5 -41,19c-15.7,7.5 -25,19.9 -28.6,37c-2.5,11.8 -4.9,23.5 -6,35.5c-1.4,13.4 -4,26.8 -3.8,40.4c0.1,4.6 -0.7,9.5 1.3,14"/>
     <path id="svg_37" class="st0" d="m98,414c2.9,6 3.7,12.6 4.9,19c2.8,15.3 4.9,30.7 7.7,46c0.8,4.5 3.4,8.7 3.4,13.5"/>
     <path id="svg_36" class="st0" d="m292.5,413.5c-6,11.6 -10.4,23.6 -10.6,37c-0.1,6.1 -2.4,12 -3.8,18c-1.8,7.6 0.3,15.3 0.4,23"/>
     <path id="svg_35" class="st0" d="m146.5,342.5c10.4,-5.6 11.1,-5.1 16.6,5.4c2.9,5.5 3.2,11.3 3.3,17.1c0.1,13.8 -1.4,27.5 -4.4,41c-1.5,6.9 -2.3,14 -2.9,21c-0.8,8.8 -8.3,12.9 -15.5,8.5"/>
     <path id="svg_34" class="st0" d="m237.5,252c3.2,0 3.7,1.8 3,4.5c-1.7,6.7 -3,13.5 -5.5,20c-1.5,3.7 -3,7.4 -8,7.5"/>
     <path id="svg_33" class="st0" d="m271.5,353.5c-10.6,1 -20.6,4.6 -31,6.5c-1.3,0.2 -2.7,0 -4,0"/>
     <path id="svg_32" class="st0" d="m148,252.5c-1.9,0.5 -2.2,1.8 -2,3.5c1,8.6 1.9,17.2 6,25c1.4,2.6 2.9,4.4 6,2.5"/>
     <path id="svg_31" class="st0" d="m225.5,286c-3.8,3.5 -7.7,5.9 -13.5,6.4c-4.6,0.4 -9.3,3 -14.1,4.5c-1.9,0.6 -3,1.7 -3.7,3.6c-2,-0.3 -2.7,-2.5 -4.3,-3.6c-1.8,-1.2 -3.7,-2.7 -6,-2c-3.7,1.2 -7.1,2 -9,-2.6c-0.4,-1.1 -1.2,-0.5 -1.5,-0.4c-4.9,0.9 -8.6,-1.5 -12,-4.6"/>
     <path id="svg_30" class="st0" d="m113.5,354.5c4.1,-0.2 7.6,2 11.5,2.5c7.5,1 15,2.3 22.5,3.5"/>
     <path id="svg_29" class="st0" d="m97.5,400.5c-8.8,7.2 -17.7,14.3 -26.5,21.5"/>
     <path id="svg_28" class="st0" d="m98.5,384.5c-8.1,7.7 -16.3,15.2 -26,21"/>
     <path id="svg_27" class="st0" d="m93.5,433.5c-8,7.7 -16,15.5 -25.5,21.5"/>
     <path id="svg_26" class="st0" d="m93.5,441.5c-8,7.6 -16.2,14.9 -25,21.5"/>
     <path id="svg_25" class="st0" d="m99.5,376.5c-7.7,6.2 -15.4,12.3 -23,18.6c-1,0.8 -1.6,0.9 -2.5,0.4"/>
     <path id="svg_24" class="st0" d="m94.5,410.5c-7.7,6.5 -15.3,13 -23,19.5c-0.7,0.6 -1.3,0.4 -2,0.5"/>
     <path id="svg_23" class="st0" d="m93,427c-8.3,7 -16.2,14.5 -25,21"/>
     <path id="svg_22" class="st0" d="m93.5,449.5c-8.3,6.7 -15.6,14.5 -24.5,20.5c-1.7,1.2 -1.4,3.2 -0.9,4.5c2.3,6.2 -0.6,12 -0.6,18"/>
     <path id="svg_21" class="st0" d="m92.5,419.5c-7.5,6.9 -15.2,13.6 -23.5,19.5"/>
     <path id="svg_20" class="st0" d="m98.5,368.5c-6.8,7 -14.1,13.4 -22.5,18.5"/>
     <path id="svg_19" class="st0" d="m91.5,458.5c-7.1,6.7 -14.2,13.2 -22,19"/>
     <path id="svg_18" class="st0" d="m92.5,397.5c-6.2,5 -12.4,10 -18.5,15c-0.8,0.7 -1.5,1.1 -2.5,1"/>
     <path id="svg_17" class="st0" d="m184.5,371.5c-5.8,3.6 -10.2,8.8 -15.5,13c-0.9,0.7 -1.6,1.9 -3,1.5"/>
     <path id="svg_16" class="st0" d="m184.5,355.5c-4.5,4 -9,8 -13.5,12c-1.1,1 -2.3,1.9 -4,1.5"/>
     <path id="svg_15" class="st0" d="m95.5,364.5c-4.8,4 -9.7,8 -14.5,12c-0.8,0.7 -1.4,1.7 -2.5,0.5"/>
     <path id="svg_14" class="st0" d="m184,364c-5.7,4.6 -10.5,10.3 -17,14"/>
     <path id="svg_13" class="st0" d="m183,350c-3.7,3.2 -7.4,6.3 -11,9.5c-1.5,1.4 -3.1,2.5 -5,3"/>
     <path id="svg_12" class="st0" d="m181.5,344.5c-5.6,2.9 -9.3,8.1 -14.5,11.5"/>
     <path id="svg_11" class="st0" d="m276,478c-2.1,4.6 -2.8,9.5 -3,14.5"/>
     <path id="svg_10" class="st0" d="m89.5,476.5c-4.3,3.7 -8.7,7.3 -13,11"/>
     <path id="svg_9" class="st0" d="m90.5,467.5c-4.3,3.7 -8.7,7.3 -13,11"/>
     <path id="svg_8" class="st0" d="m177.5,339.5c-3.1,4.6 -8.2,7.1 -12,11"/>
     <path id="svg_7" class="st0" d="m110,481.5c-1.5,3.6 -0.9,7.3 -1,11"/>
     <path id="svg_6" class="st0" d="m181.5,381.5c-3.5,2.8 -7,5.7 -10.5,8.5"/>
     <path id="svg_5" class="st0" d="m173.5,336.5c-3.3,2.8 -6.7,5.7 -10,8.5"/>
     <path id="svg_4" class="st0" d="m167.5,335.5c-2.3,1.8 -4.7,3.7 -7,5.5"/>
    </g>
   </g>
  </symbol>
 </defs>
 <g>
  <title>Layer 1</title>
  <use id="svg_44" xlink:href="#svg_43" transform="matrix(1.1130809277266958,0,0,1.1130809277266958,-33.70917869711233,-103.67500848488963) " y="25.1554" x="1.79681"/>
  <g id="svg_45"/>
    <rect data-role="upper-back" fill="#ff007f" stroke="#000000" stroke-width="0" stroke-dasharray="null" stroke-linejoin="null" stroke-linecap="null" x="136" y="293" width="44" height="72" id="upper_back" fill-opacity="0.33"/>  
  <rect data-role="back-of-arm" fill="#ff007f" stroke-width="0" stroke-dasharray="null" stroke-linejoin="null" stroke-linecap="null" fill-opacity="0.33" x="39" y="326" width="43" height="154" id="back_of_arm" stroke="#000000"/>
  <rect data-role="back-of-shoulder" fill="#ff007f" stroke="#000000" stroke-width="0" stroke-dasharray="null" stroke-linejoin="null" stroke-linecap="null" fill-opacity="0.33" x="253" y="332" width="35" height="38" id="back_of_shoulder"/>

 </g>
</svg>