<?xml version="1.0" encoding="UTF-8" standalone="no"?>
<!-- Generator: Adobe Illustrator 19.0.0, SVG Export Plug-In . SVG Version: 6.00 Build 0)  -->

<svg
   xmlns:dc="http://purl.org/dc/elements/1.1/"
   xmlns:cc="http://creativecommons.org/ns#"
   xmlns:rdf="http://www.w3.org/1999/02/22-rdf-syntax-ns#"
   xmlns:svg="http://www.w3.org/2000/svg"
   xmlns="http://www.w3.org/2000/svg"
   xmlns:sodipodi="http://sodipodi.sourceforge.net/DTD/sodipodi-0.dtd"
   xmlns:inkscape="http://www.inkscape.org/namespaces/inkscape"
   version="1.1"
   id="svg2"
   inkscape:version="0.91 r13725"
   sodipodi:docname="white-robo-body.svg"
   x="0px"
   y="0px"
   viewBox="1618.6 1127 1358.8 2526"
   style="enable-background:new 1618.6 1127 1358.8 2526;"
   xml:space="preserve"><metadata
     id="metadata4141"><rdf:RDF><cc:Work
         rdf:about=""><dc:format>image/svg+xml</dc:format><dc:type
           rdf:resource="http://purl.org/dc/dcmitype/StillImage" /><dc:title></dc:title></cc:Work></rdf:RDF></metadata><defs
     id="defs4139" /><sodipodi:namedview
     showborder="false"
     units="px"
     fit-margin-bottom="0"
     fit-margin-right="0"
     inkscape:window-maximized="0"
     inkscape:window-y="0"
     inkscape:current-layer="svg2"
     inkscape:pageshadow="2"
     inkscape:pageopacity="0.0"
     inkscape:window-height="756"
     inkscape:document-units="px"
     inkscape:window-x="228"
     inkscape:window-width="1280"
     showgrid="false"
     inkscape:cx="881.97215"
     fit-margin-left="1"
     fit-margin-top="0"
     borderopacity="1.0"
     borderlayer="false"
     bordercolor="#666666"
     pagecolor="#ffffff"
     id="base"
     inkscape:cy="1215.5243"
     inkscape:zoom="0.24251465" /><path
     id="path4072"
     inkscape:connector-curvature="0"
     d="M1818.4,2360.3 M2278.7,3434.9c1-2.5,3.4-4.6,5.3-4.6  c2.4,0,2.2,1.7-0.7,5.4c-3.8,4.9-3.7,5,1.2,1.2c2.9-2.3,5.4-7.7,5.4-11.9v-7.7l-6.4,8.2c-4.5,5.7-8.2,7.6-12.2,6.3  c-3.2-1-5.8-0.6-5.8,0.9C2265.4,3440.2,2276,3442,2278.7,3434.9L2278.7,3434.9z M2345,3436.7c0-1.5-3.4-3.6-7.7-4.7  c-4.2-1.1-7.7-3.3-7.7-4.9c0-1.7-1.4-3-3.1-3c-4.2,0-3.8,7.2,0.6,11.6C2331.5,3440,2345,3440.8,2345,3436.7L2345,3436.7z   M2328.2,3433.4c-1.1-1.7,0.2-2.2,2.9-1.2c5.3,2,6.3,4.2,1.9,4.2C2331.3,3436.4,2329.2,3435,2328.2,3433.4z M2248.5,3433.3  c1-1.7,0.5-3.1-1.2-3.1c-1.7,0-3.9,1.4-5,3.1c-1,1.7-0.5,3.1,1.2,3.1C2245.3,3436.4,2247.5,3435,2248.5,3433.3z M2422.4,3434.4  c3.3-3.3-0.8-7.1-5.6-5.2c-2.5,0.9-3.7,3-2.8,4.5C2416,3436.9,2419.7,3437.2,2422.4,3434.4z M2175.1,3430.3c1-1.7-0.1-3.1-2.6-3.1  s-6.9-0.9-9.9-2.1c-3.5-1.3-4.6-0.9-3.3,1.3c1.1,1.8-0.4,4-3.3,4.8c-3,0.8-0.3,1.6,5.9,1.8S2174,3432,2175.1,3430.3L2175.1,3430.3z   M2461.4,3428.6c3.3-4,2.8-5.9-2.8-11.5c-5.3-5.2-6.3-5.5-4.8-1.4c1.3,3.4,0.3,6-2.9,7.2c-2.7,1-4.9,3.8-4.9,6.1  C2446,3434.8,2456.5,3434.5,2461.4,3428.6L2461.4,3428.6z M2455.2,3425.6c2.1-2.6,4.5-4,5.3-3.3c2.1,2.1-2.2,7.9-5.9,7.9  C2452.6,3430.3,2452.8,3428.5,2455.2,3425.6z M2407.5,3415c-2-2-3-0.9-3,3c0,4,1,5,3,3C2409.4,3419.1,2409.4,3417,2407.5,3415z   M2158.2,3417.4c0-1.3-2-2.4-4.4-2.4c-2.4,0-5.1,1.1-5.9,2.4c-0.8,1.3,1.2,2.4,4.4,2.4C2155.6,3419.8,2158.2,3418.7,2158.2,3417.4z   M2274.9,3412.7c3.8-4.9,3.7-5-1.2-1.2c-4.1,3.2-5.4,3.3-5.4,0.4c0-2.7-3.9-3.4-13.6-2.3c-13.6,1.5-20.1-1.4-20.1-9  c0-4.5,8.1-5.5,9.7-1.2c0.6,1.5,2.8,0.8,5-1.5c3.3-3.6,2.9-4.3-2.3-4.3c-4.5,0-6.2-2-6.2-7.3c0-5.7-2.2-7.8-9.9-9.7l-9.9-2.5  l9.9-1.2l9.9-1.2l0.5-18.9c0.3-10.4,0.1-30.3-0.3-44.2c-0.6-18.6,0.2-25.3,3-25.3c2.1,0,7.1-3.6,11.2-7.9l7.3-7.9l-9.3,2l-9.3,2  V3245c0-22.7-0.8-26.8-5.4-27.9c-4.6-1.2-5.2-4.5-4.4-24.1l1-22.7l17.4-0.9l17.4-0.9l3.9-29.1c4.3-32.1,2.7-109.4-2.4-114.5  c-1.7-1.7-3.1-5.9-3.1-9.4c0-3.6-2.9-7.6-6.9-9.3c-4.3-1.9-7.3-6.2-7.9-11.4c-0.9-7.6-2.1-8.4-13-8.4h-12v23.2v23.2l19.4-2.1  l19.4-2.1l2.2,28.6c1.4,19.1,1.1,28.9-1.1,29.6c-3.9,1.3-4.3,14.9-0.6,16.4c5.6,2.2,6.7,14.2,1.7,19.2c-3.3,3.3-4.4,7.6-3.1,12.6  c1,4.2,1,11,0,15.2c-1.5,6-4,7.7-11.5,8.1l-9.6,0.4l10.7,2.3l10.7,2.3l-12.9,0.4c-10.3,0.3-12.6-0.5-11.2-4.2  c1.3-3.4-0.4-4.6-6.2-4.6c-8,0-8,0.1-8.3,26.8c-0.2,14.7-1,24.4-1.8,21.4c-1.1-4.1-4.6-5.4-14.9-5.4c-11.7,0-13.7-1-15.3-7.4  c-1-4.1-0.4-10.2,1.5-13.6s3.3-11.2,3.3-17.3c0-9.8-0.8-11-6.9-10.2c-6.1,0.9-6.8,2.6-6.2,14.3c1,19.7,6.5,46.7,10.5,51.5  c2,2.4,6,3.4,9.4,2.4c3.3-1,9.7-0.3,14.3,1.6c8,3.3,8.4,4.6,8.8,24.7c0.2,11.7-0.9,22-2.5,23c-1.6,1-2.9-0.8-2.9-4  c0-3.2-2.7-8.3-5.9-11.2c-5.8-5.2-5.9-5.1-4.8,3.4c0.6,4.8,1.2,9.8,1.4,11c0.1,1.3,2.2,2.3,4.6,2.3c2.4,0,5.3,4.4,6.5,9.9  c1.2,5.4,4.2,12.9,6.6,16.7c5.4,8.3,4.1,20.9-2.2,20.9c-3.5,0-4.4-3.1-3.7-13.3c0.6-9.7-0.2-12.9-3.1-12c-4.5,1.5-7.3,23.8-2.9,23.8  c4.1,0,6.8,8.3,4.6,14c-1.5,3.9-2.4,4.1-4.8,0.8c-2.1-3-2.4-2.6-1.1,1.5c1,3.1,1.8,7.2,1.8,9.1s2.3,0.2,5.1-3.8  c4.9-6.9,5.3-7,7.4-1.4c3.5,8.9,3.2,31.3-0.5,33.5c-5.7,3.5-12.7-5.3-11.4-14.4c0.7-4.7,0.3-8.6-0.9-8.6c-3.6,0-5.2,14.3-2.3,19.6  c1.7,3,1.6,4.9-0.2,4.9c-1.6,0-3.7-1.7-4.5-3.8c-0.8-2.1-1.7,1.3-1.8,7.6c-0.2,9.3-1.2,11-5.3,9.4c-4.2-1.6-4.7-0.5-3,6.2  c1.8,7.2,1.1,8.2-5.5,8.2c-4.1,0-8.5,1.6-9.7,3.5c-1.3,2.1-0.8,2.7,1,1.6c3.8-2.3,11.8,6.3,8.8,9.4c-1.2,1.2-5.1,0.2-8.9-2.1  c-6.2-3.8-6.4-3.8-2.5,0.9c5.5,6.7,11.7,6.4,15.5-0.7c1.7-3.2,6.6-6.6,10.8-7.7c6.8-1.7,7.3-2.7,4-7.9c-4.8-7.7-2.1-10.1,8.2-7.5  c7,1.7,7.9,3.3,6.3,9.7c-3,11.8,5.2,18.9,19.6,17c6.9-0.9,12.5-0.2,13.8,1.8C2269.5,3419.1,2270,3419,2274.9,3412.7L2274.9,3412.7z   M2229.3,3273.6c1.9-5.7,8.5-6.6,8.5-1.2c0,2.7-2.2,4.8-4.8,4.8S2228.7,3275.6,2229.3,3273.6L2229.3,3273.6z M2235.1,3242  c-0.3-11.7,0.9-19.9,2.7-19.9c1.8,0,3.1,8.5,3.1,19.9c0,10.9-1.2,19.9-2.7,19.9C2236.7,3261.9,2235.4,3253,2235.1,3242z   M2201.1,3210.2c0-1.5,2.1-3.5,4.6-4.5c2.8-1.1,4.6,0,4.6,2.7c0,2.5-2.1,4.5-4.6,4.5C2203.2,3212.9,2201.1,3211.7,2201.1,3210.2z   M2239.9,3008.9c-1.2-1.2-2.1-4.6-2.1-7.7c0-6.1,7.6-7.7,10.9-2.3C2251.1,3002.8,2243.1,3012,2239.9,3008.9z M2222.5,3413.6  c0-0.7-1.4-2.2-3.1-3.2c-1.7-1-3.1-0.4-3.1,1.4c0,1.8,1.4,3.2,3.1,3.2C2221.1,3415,2222.5,3414.4,2222.5,3413.6z M2351.1,3411.9  c7.2-2.3,7.3-2.5,0.9-2.8c-4.9-0.2-6.3-1.7-4.9-5.2c1.9-5-4.5-11.2-8.8-8.5c-1.3,0.8-2.4,5.6-2.4,10.5  C2335.8,3415.4,2337.8,3416.2,2351.1,3411.9L2351.1,3411.9z M2386.5,3404.2c-1.1-4.5,0.4-9.5,4.4-14.1l6.2-7.2l4.9,6.9  c2.7,3.8,6.8,6.9,9.1,6.9c5.3,0,5.5-5,0.4-8.3c-2.1-1.3-6-6.6-8.6-11.6c-3.3-6.3-6.8-9-11.2-8.5c-5.4,0.6-6.6-1.4-7.7-12.2  c-0.8-7.1-0.2-14.4,1.2-16.3c1.4-1.8,1.8-4.1,0.8-5.1s-2.3-8.6-3.1-16.9c-1.2-13.1-0.6-15.4,4.5-16.8c5.6-1.5,6.9-5,17.2-48.9  c0.7-2.9,0-6.1-1.6-7.1c-1.6-1-2.9-3.2-2.9-4.8c0-1.7,1.4-2.2,3.1-1.2c1.7,1,3.1-0.3,3.1-3c0-4-1.2-4.3-6.4-1.4  c-4.2,2.3-5.9,5.4-4.9,9.3c0.8,3.2,0.4,5.9-1,5.9s-3.4,2.8-4.5,6.1c-2.5,7.8-10.7,8-10.7,0.4c0-3.3,2.8-6.5,6.6-7.5  c4.9-1.3,5.8-2.8,3.5-5.7c-4.5-5.7-7.4-23.3-4.2-25.3c1.5-0.9,5.8-0.5,9.7,0.9c11,4.1,23.6-4.8,27.6-19.4c1.8-6.7,4.9-14.2,6.8-16.7  c2.7-3.4,2.7-3.9-0.3-2.1c-4.2,2.5-4.8-1.6-1.9-12.6c1-3.8,4.1-7,6.8-7.2c4.2-0.3,4.2-0.6-0.4-1.8c-2.9-0.8-5.4-2.8-5.4-4.4  s1.7-2,3.8-0.7c2.8,1.7,2.8,1-0.2-2.6c-3.4-4.2-2.8-5.5,4.6-9.1c4.8-2.4,8.4-6.5,8.2-9.4c-0.2-2.9,0.8-4.4,2.3-3.5s2.9-0.8,3.1-3.9  c0.2-3,0.7-8.3,1-11.7c0.3-3.4,0.8-13.8,1.1-23.2c0.4-14.5,1.6-17.6,7.4-20.3c6.6-3,6.9-5.1,7.9-43c1.2-47.9-1.4-74.5-7.2-72.2  c-5.5,2.1-8.5-9.1-6.1-23.1c1.6-9.4,0.9-12.1-3.3-13.7c-7-2.7-7.1-2.5-9.3,18.5l-1.9,18.4l11.1,6.5c10.4,6.1,15.8,19,8,19  c-1.7,0-3.1,2.1-3.1,4.6s1.4,4.6,3.1,4.6c1.8,0,3.1,9.7,3.1,23c0,19.3-0.8,23-5.1,23c-4.5,0-4.5,0.6,0.5,6.2c4.9,5.5,5.1,7,1.3,14.1  c-2.4,4.4-6.1,8.7-8.4,9.6c-6,2.3-19-4.5-19-9.9c0-2.6-1.4-4.7-3.1-4.7c-1.9,0-3.1,20.9-3.1,56.5c0,34.3-1.2,57.2-3.1,58.3  c-1.7,1-3.2,5.6-3.4,10.1c-0.2,5.2-0.9,6.3-1.8,2.9c-0.8-3.2-4.3-5.4-8.8-5.4c-6.6,0-7.4,1.3-7.4,12.2c0,10.2-1,12.2-6.1,12.2  c-3.4,0-6.1,1.2-6.1,2.8s-2.8,2.1-6.1,1.2c-5.9-1.5-6.1-0.1-6.1,34.9c0,24.3,1.2,37.7,3.7,40.2c2.9,2.9,2.9,4.5,0,7.3  c-4.4,4.4-5.3,109.6-1,109.6c4.2,0,6,14.6,2.2,18.4c-2.5,2.5-1.9,2.8,2.2,1.3C2386.7,3411.7,2387.8,3409.1,2386.5,3404.2  L2386.5,3404.2z M2381.7,3381.3c0-1.7,1.4-3.1,3.1-3.1c1.7,0,3.1,1.4,3.1,3.1c0,1.7-1.4,3.1-3.1,3.1  C2383.1,3384.4,2381.7,3383,2381.7,3381.3z M2392.5,3274.4c-1-1.6-0.4-3.7,1.3-4.8c1.7-1.1,3.1,0.2,3.1,2.8  C2397,3277.8,2395.2,3278.6,2392.5,3274.4z M2405.1,3210.8c-1.1-1.1-1.9-4.5-1.9-7.5c0-3.9,2.3-5.6,7.7-5.6c4.7,0,7.7,1.7,7.7,4.5  C2418.4,3207.1,2408.1,3213.8,2405.1,3210.8L2405.1,3210.8z M2432.6,3120.7c-1.1-5.3-1.9-18.3-1.9-29.1c0-17.5,0.6-19.5,6.1-19.5  c3.4,0,6.1,2,6.1,4.6c0,2.5,1.4,4.6,3.1,4.6c1.7,0,3,3.8,3,8.4c-0.1,7.2-0.5,7.6-3.2,3.1c-1.7-2.9-4.4-5.4-6-5.4  c-3.8,0-3.8,10.1,0,13.9c3.2,3.3,0.7,28.9-2.9,28.9C2435.5,3130.3,2433.7,3126,2432.6,3120.7L2432.6,3120.7z M2172.1,3405.6  c3.3-5.3-0.5-6.5-4.7-1.4c-2.4,2.9-2.6,4.7-0.6,4.7C2168.6,3408.9,2171,3407.4,2172.1,3405.6L2172.1,3405.6z M2427.6,3403.9  c0-0.6-3.4-1.2-7.7-1.2c-4.2,0-7.7,1.2-7.7,2.6s3.4,2,7.7,1.2C2424.2,3405.7,2427.6,3404.5,2427.6,3403.9z M2276.3,3359.6  c0.2-50.3-2.1-63.2-11.6-64.6c-8.3-1.2-10.5-7.7-3.3-9.5c4.4-1.1,4.1-1.5-1.4-1.8c-5.4-0.3-6.9,1.3-6.9,7.3c0,5.5,1.6,7.7,5.9,7.7  c3.3,0,6.6,1,7.3,2.3c0.8,1.3,1.9,16.1,2.5,32.9c1,27.2,0.5,30.7-4.3,31.6c-2.9,0.6-5.4,2.2-5.4,3.7c0,3,6.1,7.4,10.7,7.7  c1.7,0.1,2.8,1.5,2.6,3.1c-0.3,1.6-1.5,8.3-2.7,14.8c-1.8,9.4-1.3,11.6,2,10.5C2275.2,3404,2276.1,3394.3,2276.3,3359.6  L2276.3,3359.6z M2368.2,3394c-6.5-1.3-9.2,1-6.4,5.6c1.5,2.5,3.5,2.3,6.9-0.6C2373,3395.5,2372.9,3395,2368.2,3394L2368.2,3394z   M2185.8,3390.5c0-1.7-0.6-3.1-1.4-3.1s-2.2,1.4-3.2,3.1c-1,1.7-0.4,3.1,1.3,3.1C2184.3,3393.5,2185.8,3392.2,2185.8,3390.5z   M2326.6,3385.7c0-2.4-1.4-4.4-3.1-4.4c-1.7,0-3.1,2.8-3.1,6.3c0,3.5,1.4,5.5,3.1,4.4C2325.2,3391,2326.6,3388.1,2326.6,3385.7z   M2292.9,3386.1c0-2.4-1.4-5.3-3.1-6.3c-1.7-1-3.1,0.9-3.1,4.4c0,3.5,1.4,6.3,3.1,6.3C2291.5,3390.5,2292.9,3388.5,2292.9,3386.1z   M2344.2,3338.7c-1.5-24.1,4-53,11.8-61.7c5.8-6.4,5.6-18.1-0.3-18.1c-3.8,0-4.6-5.4-4.6-30.6c0-18.4,1.2-30.6,3.1-30.6  c4.6,0,3.7-12.6-1.2-16.5c-2.7-2.1-5-12.9-6.3-28.7c-2-24.2-1.8-25.3,4.3-25.3c4.7,0,6.3-2,6.3-7.7c0-6.1-1.5-7.7-7.7-7.7  c-7,0-7.7-1.1-7-10.7c0.4-5.9-0.9-12.3-2.8-14.3c-4.2-4.2-2.9,34.1,2.8,80.1c5,40.7,4.9,108.4-0.2,125.5c-3.9,13-6.6,84.5-3.4,87.7  C2342.3,3383.8,2345.5,3359.5,2344.2,3338.7L2344.2,3338.7z M2319.4,3349.9c-0.8-2.1-1.5-0.4-1.5,3.8c0,4.2,0.7,5.9,1.5,3.8  C2320.3,3355.5,2320.3,3352,2319.4,3349.9z M2203.2,3340.9c-1-2.4-1.7-1.7-1.8,1.8c-0.1,3.2,0.6,5,1.6,4  C2204,3345.8,2204.1,3343.1,2203.2,3340.9L2203.2,3340.9z M2329.7,3343.2c0-2.4-1.4-5.3-3.1-6.3c-1.7-1-3.1,0.9-3.1,4.4  s1.4,6.3,3.1,6.3C2328.3,3347.6,2329.7,3345.6,2329.7,3343.2z M2294.7,3322.7c1.4-2.3,0.8-2.7-1.8-1.1c-3,1.8-3.6,0.8-2.3-4.1  c0.9-3.6,0.5-6.6-1-6.6c-3.2,0-3.8,10.2-0.7,13.3C2291.6,3326.9,2292.2,3326.8,2294.7,3322.7L2294.7,3322.7z M2207.5,3303.8  c-2.4-2.4-3.3-1.1-3.3,4.4c0,10.1,4.3,14.4,5.6,5.7C2210.3,3310.2,2209.3,3305.6,2207.5,3303.8L2207.5,3303.8z M2409.3,3300  c0-2.4-1.4-4.4-3.1-4.4c-1.7,0-3.1,2.8-3.1,6.3s1.4,5.5,3.1,4.4C2407.9,3305.3,2409.3,3302.4,2409.3,3300z M2207.2,3289.5  c0-1.7-1.5-3.1-3.2-3.1c-1.8,0-2.4,1.4-1.4,3.1c1,1.7,2.5,3.1,3.2,3.1C2206.6,3292.5,2207.2,3291.1,2207.2,3289.5z M2335.8,3274.2  c0-1.7-1.4-3.1-3.1-3.1c-1.7,0-3.1,1.4-3.1,3.1c0,1.7,1.4,3.1,3.1,3.1S2335.8,3275.8,2335.8,3274.2z M2204.1,3272.8  c0-0.7-1.4-2.2-3.1-3.2c-1.7-1-3.1-0.4-3.1,1.3c0,1.8,1.4,3.2,3.1,3.2C2202.8,3274.2,2204.1,3273.5,2204.1,3272.8z M2415.4,3271.1  c0-1.7-1.4-3.1-3.1-3.1c-1.7,0-3.1,1.4-3.1,3.1c0,1.7,1.4,3.1,3.1,3.1C2414,3274.2,2415.4,3272.8,2415.4,3271.1z M2328.8,3225.9  c-0.7-6.3-1.2-1.1-1.2,11.5c0,12.6,0.5,17.8,1.2,11.5C2329.5,3242.6,2329.5,3232.3,2328.8,3225.9L2328.8,3225.9z M2278,3244.5  c-2.7-4.6-3.3-4.7-3.3-0.7c-0.1,5.2,3.1,9.8,5.3,7.6C2280.7,3250.7,2279.8,3247.6,2278,3244.5z M2198,3245.3c0-4.9-4.3-8.6-7-5.9  c-2.4,2.4,0.9,10.3,4.3,10.3C2196.8,3249.7,2198,3247.7,2198,3245.3L2198,3245.3z M2423,3241c0-5.5-6-4.5-7.2,1.2  c-0.7,3.2,0.5,4.6,3.1,3.7C2421.2,3245.2,2423,3243,2423,3241z M2285.9,3222.9c-0.8-3-1.5-1.3-1.5,3.8c-0.1,5.1,0.6,7.5,1.4,5.4  C2286.6,3230,2286.6,3225.9,2285.9,3222.9L2285.9,3222.9z M2436.5,3193c0.1-1.7-1.2-1-2.8,1.5c-1.6,2.5-2.9,6.7-2.8,9.2  C2431.1,3208.6,2436.2,3198.8,2436.5,3193L2436.5,3193z M2283.7,3192.8c0-4.1-1.4-7.5-3.1-7.5c-1.7,0-3.1,4.2-3.1,9.4  c0,5.5,1.3,8.6,3.1,7.5C2282.4,3201.2,2283.7,3197,2283.7,3192.8L2283.7,3192.8z M2176.6,3183.9c-1.9-5.9-4.7-10.7-6.2-10.7  c-2.3,0-0.7,7.5,5.3,24.5C2179.2,3207.5,2180.1,3194.3,2176.6,3183.9L2176.6,3183.9z M2335.8,3194.6c0-3.4-1.4-6.1-3.1-6.1  c-1.7,0-3.1,2.8-3.1,6.1s1.4,6.1,3.1,6.1S2335.8,3197.9,2335.8,3194.6z M2442.9,3178.3c0-1.4-1.3-1.6-3-0.6c-1.7,1-3,4.2-3,7.1  c0,4.5,0.5,4.5,3,0.6C2441.5,3182.8,2442.9,3179.7,2442.9,3178.3z M2332.7,3165.5c0-2.5-1.4-4.6-3.1-4.6c-1.7,0-3.1,2.1-3.1,4.6  s1.4,4.6,3.1,4.6C2331.3,3170.1,2332.7,3168,2332.7,3165.5z M2179.7,3143.9c0-2.6-1.9-5.4-4.3-6.3c-2.3-0.9-3.6-4.1-2.8-7.2  c1.6-6-3.6-11.3-6.6-6.5c-2.2,3.6,4.4,18.6,8.2,18.6c1.5,0,1.9,1.4,0.9,3.1c-1,1.7-0.4,3.1,1.3,3.1  C2178.2,3148.6,2179.7,3146.5,2179.7,3143.9z M2456.3,3143.9c1-2.7,0.5-4-1.2-2.9c-1.7,1-3,3.2-3,4.8  C2452.1,3150.2,2454.3,3149.2,2456.3,3143.9L2456.3,3143.9z M2328.7,3138.9c-1-2.4-1.7-1.7-1.8,1.8c-0.1,3.2,0.6,5,1.6,4  C2329.5,3143.7,2329.6,3141.1,2328.7,3138.9L2328.7,3138.9z M2191.9,3131.8c0-8.7-1.2-10.7-6.1-10.7c-4.1,0-6.1-2-6.1-6.1  c0-3.4,2.8-8.9,6.1-12.2c7.5-7.5,7.8-14.8,0.8-20.3c-5.1-4-5.1-4.4,0-8.3c3.1-2.4,5.4-8.2,5.4-13.8c0-9.1-0.6-9.6-12-9.6  c-15.9,0-21.7,2.5-21.7,9.5c0,6.3-6,8.2-6.4,2c-0.2-2.1,0-25.2,0.3-51.3c0.4-32.2,1.7-48.2,4.1-49.7c2.6-1.7,2.3-3.2-1-5.4  c-4-2.7-3.9-3.6,0.8-7.3c4.6-3.5,4.7-4.7,1.1-7.7c-2.5-2.1-3.9-7.6-3.3-13.4c0.5-5.4,1.1-22.6,1.2-38.2c0.2-23,1.1-28.3,4.8-28.3  c2.9,0,4.6-2.9,4.6-7.7s-1.7-7.7-4.6-7.7c-2.5,0-4.7-0.3-4.8-0.8c-0.1-0.4-1.4-11.1-2.9-23.7c-1.5-12.6-3.6-26-4.7-29.7  c-1.8-6-0.9-6.7,8.2-6.5c5.6,0.1,19.3-0.1,30.3-0.4c11-0.3,21.4-0.3,23,0c11.2,2.2,14-0.3,13.1-11.4c-0.6-6.8,0.5-11.7,2.7-12.5  c2.8-0.9,3.9,19.5,4.6,83.3c0.8,71.1,1.6,85,5.5,87.4c3.9,2.5,3.8,2.9-0.8,2.9c-4.5,0-5.4,3-5.4,19.6v19.6l12.2,1.2  c6.7,0.6,12.9-0.2,13.8-2c0.9-1.7,1,0,0.3,3.7s0,6.9,1.5,6.9c3.6,0,3.6-11.4,0-13.6c-1.5-0.9-2.7-8-2.6-15.8  c0.1-8.9-1.4-15.1-4.1-16.8c-3.4-2.2-3.5-3.3-0.5-5.2c2.1-1.4,4.5-9.8,5.4-18.8s2.4-17.7,3.5-19.3c1.1-1.8-0.8-2.1-4.6-0.9  c-5.9,1.9-6.3,1.2-4.6-7.5c1.4-7.2,0.9-9.3-2.3-8.6c-3.2,0.7-4.3-3.2-4.5-15.2c-0.1-8.8-1.4-17.1-2.7-18.4c-1.4-1.3-1.6,1.2-0.6,5.4  c1,4.2,0.7,9.5-0.7,11.7c-3.6,5.8-6.4-18.9-6.4-55.2v-30.4l9.4,1.1c5.2,0.6,10.6,3.1,12.2,5.5c2.2,3.5,2.8,3,2.9-2.4  c0-3.8,1.8-6.9,3.9-6.9c2.8,0,2.9-0.6,0.2-2.3c-5.2-3.3-8.7-19.1-4.2-19.1c2.4,0,3-3,1.7-9c-1.6-7.3-0.6-9.9,5.5-13.9  c6.6-4.3,7.9-8.5,11.3-37.7c2.1-18.1,4.2-40.4,4.7-49.7c0.4-9.3,1.8-21,3.1-26c1.5-5.9,1.2-8.1-0.7-6.1c-3.8,3.9-9.9,32.5-10.9,50.5  c-0.6,11.7-1.8,13.9-7.6,14.8c-5.1,0.7-6.9,3-6.9,8.8c0,6.3,1.2,7.5,6.1,6.2c4.8-1.3,6.1-0.1,6.1,5.5c0,11.6-3,16.3-9.4,14.6  c-7-1.8-8.3,7.6-2.1,14.2c3.1,3.2,3.1,4.3,0,5.5c-2.1,0.8-3.8,4-3.8,7.3c0,3.2-0.6,5.9-1.3,5.9s-3.5,0.8-6.1,1.9  c-4.1,1.6-4.8-0.9-4.8-15c0-16.7,0-16.8-10.5-18.8c-5.8-1.1-14.1-1.1-18.4,0c-7.1,1.8-7.8,3.4-7.8,16.9c0,8.2-1,14.8-2.3,14.5  c-2.6-0.6-12.1,2.7-19.8,6.8c-3.2,1.7-5.9,1.6-7.1-0.2c-1-1.6-4.2-2.9-7-2.8c-3.8,0.1-3.3,1,1.7,3c3.8,1.5,6.9,4.5,6.9,6.5  c0,2.4,1.4,2,3.8-1.1c2.1-2.7,9-5.7,15.3-6.8c10.1-1.8,11.5-1.3,11.5,4c0,3.9-2.4,6.4-6.6,7c-11.2,1.6-9.5,7.4,3.5,11.7  c12.1,4,16.1,8.7,8.5,9.8c-2.1,0.3-19,0.6-37.5,0.8c-31.8,0.2-33.6,0.6-33,6.3c6.4,54.3,7.1,78.8,5.5,178.8  c-1,61.4-0.9,110.8,0.3,109.6c1.2-1.2,4-0.6,6.3,1.4c3.3,2.8,3.8,2.4,2.1-1.9c-1.8-4.7-0.8-5.1,8.3-3.1c12.6,2.7,10.8,1.2,16.3,14.3  c4,9.5,4,11.7,0.2,16.7c-2.4,3.2-4.4,7.9-4.5,10.5c-0.1,5.1,11.3,30.4,13.8,30.4C2191.2,3142.5,2191.9,3137.7,2191.9,3131.8  L2191.9,3131.8z M2235.2,2955.8c-0.2-11.1,0.8-15.3,3.8-15.3c3,0,4.1,4.3,4,15.3c-0.1,9.6-1.6,15.3-3.8,15.3  C2236.9,2971.1,2235.4,2965.3,2235.2,2955.8z M2237.9,2919.2c-3.6-6.7-4.2-16.6-1.2-19.6c4.1-4.1,10.2,5.1,10.2,15.1  C2247,2926.3,2242.8,2928.3,2237.9,2919.2L2237.9,2919.2z M2234.8,2875.4c0-5.6,0.6-6,3-2.3c3.8,5.9,3.8,9.2,0,9.2  C2236.1,2882.3,2234.8,2879.2,2234.8,2875.4z M2201.1,2762.9c-3.7-2.4-3.3-3,2.3-3c5.3,0,6.9-1.8,6.9-7.7c0-7.5,4.1-10.3,7.4-5  c2.2,3.5-5.1,18.8-8.9,18.7C2207.1,2765.9,2203.6,2764.5,2201.1,2762.9L2201.1,2762.9z M2236.3,2762.9c-1-1.7-0.5-3.1,1.2-3.1  c1.7,0,3.9,1.4,5,3.1c1,1.7,0.5,3.1-1.2,3.1C2239.6,2766,2237.3,2764.6,2236.3,2762.9z M2227.2,2747.7c-3.1-3.4-7.5-6.2-9.7-6.2  s-4.1-2.1-4.1-4.6c0-3.1,3.1-4.6,9.3-4.6c7.2,0,9.9,1.8,12.4,8.2C2239,2751.2,2234.3,2755.6,2227.2,2747.7z M2264.4,2721.1  c-1.1-1.1-2-3.5-2-5.2c0-1.9,1.4-1.7,3.6,0.5c2,2,2.9,4.3,2,5.2C2267.1,2722.4,2265.5,2722.2,2264.4,2721.1z M2473.5,3099.3  c0-3.2-1.5-5.8-3.4-5.8s-2.6,2.1-1.6,4.8s0.6,4-0.9,3.1s-3.3,2.7-4.1,8l-1.4,9.7l5.7-7C2471,3108.3,2473.5,3102.5,2473.5,3099.3  L2473.5,3099.3z M2326.6,3081.3c0-8.4-1.1-15.3-2.4-15.3c-2.2,0-2.7,10.6-1.2,25.3C2324.1,3102.6,2326.6,3095.8,2326.6,3081.3z   M2132.8,3086.8c-1-2.4-1.7-1.7-1.8,1.8c-0.1,3.2,0.6,5,1.6,4C2133.5,3091.7,2133.7,3089,2132.8,3086.8L2132.8,3086.8z   M2292.9,3079.8c0-7.6-1.4-13.8-3.1-13.8c-1.7,0-3.1,6.2-3.1,13.8c0,7.6,1.4,13.8,3.1,13.8  C2291.5,3093.5,2292.9,3087.3,2292.9,3079.8z M2162.9,3087.2c3.1-5.1,0.3-5.8-4.1-1c-2.2,2.4-2.6,4.3-0.9,4.3  C2159.6,3090.5,2161.8,3089,2162.9,3087.2L2162.9,3087.2z M2477.8,3074.4c1.2-5,0.7-8.4-1.1-8.4c-1.7,0-3.1,1.7-3.2,3.8  c0,2.1-0.9,7.3-1.9,11.5c-1.3,5.1-0.9,6.6,1.2,4.6C2474.4,3084.2,2476.7,3079,2477.8,3074.4z M2342.3,3055.2  c-0.5-13.2,0.4-17.3,4.3-18.8c3.9-1.5,4.1-2.5,1.1-4.3c-2.7-1.7-1.2-3.1,4.8-4.6c6.4-1.6,9.7-0.9,12.4,2.9c4,5.5,13.7,6.9,13.7,2  c0-1.7,2.1-3.1,4.6-3.1c4,0,4.5-9.4,3.8-72.6l-0.8-72.6l-9.9-6.2c-16.9-10.6-16.2-22.9,1.4-23c5,0,7.3,2.2,8.7,8.4  c3.6,16.1,4.4,14.4,2.6-5.4c-1-10.9-1.6-36.8-1.4-57.4c0.4-32.5-0.2-37.5-4.5-37.5c-2.7,0-4.1,1.3-3.1,2.9c2.3,3.7-9.7,10.3-14,7.6  c-2.3-1.4-2.3-3,0.1-5.3c5.3-5.3,3.9-7.8-5.1-8.8c-10.3-1.2-13.9-11.7-4.1-11.7c4.3,0,6.3-2,6.3-6.1c0-3.6-2-6.1-4.9-6.1  c-3.8,0-4.5-1.9-2.9-8c5.9-23.6,5.8-25.7-1-25.7c-8.7,0-12.4-10.3-10.3-28.5c1-9.2,0.4-14.4-1.7-14.4c-6.6,0-6.9,6.8-2.2,45.1  c7.1,57.2,8,62.2,11.1,60.3c1.5-0.9,2.8-1.1,2.8-0.3c0,0.8,0.8,3.5,1.8,6c1.1,2.8-0.4,5.2-3.8,6.3c-3.1,0.9-1.8,1.2,2.8,0.7  c12.3-1.5,15.2,4.4,14.2,27.9c-0.5,11.4,0.2,22.6,1.5,24.7c1.4,2.2,0.9,5.9-1.1,8.3c-2,2.4-2.7,5.8-1.6,7.5c2.9,4.7-1.2,3.9-6.3-1.2  c-2.4-2.4-4.4-6.5-4.4-9.2c0-2.6-1.1-4.8-2.4-4.8c-3.5,0-3.9,11.8-0.5,13.9c1.6,1,2.9,5.7,2.9,10.6c0,4.9,1.4,9.7,3.1,10.7  c1.7,1,3.1,8.1,3.1,15.6s2.1,17,4.7,20.9c5.6,8.5,3.1,24.5-3.4,22c-3.2-1.2-3.4,0.1-1.2,6.1c3.7,9.8,4,19.8,0.3,14  c-1.5-2.4-2.4,2.6-2.2,12.2c0.3,16,0.5,16.3,10.2,17.2l9.9,1v24.3c0,26.5,0.8,25.6-20.4,24.5c-14.9-0.8-26.7,4.5-24.3,10.8  c0.9,2.4,0.5,10.9-1,18.9c-1.8,9.6-1.6,15.8,0.5,18.4C2341.5,3077.5,2343,3073.4,2342.3,3055.2L2342.3,3055.2z M2369.5,2935.9  c0-7.3,1.4-10.7,4.4-10.7c6.3,0,8.3,4.6,6.1,13.6C2376.9,2950.7,2369.5,2948.6,2369.5,2935.9z M2375.6,2824.3c0-1.6,1.4-3.7,3.1-4.8  c1.7-1,3.1,0.3,3.1,2.9c0,2.6-1.4,4.8-3.1,4.8S2375.6,2825.9,2375.6,2824.3z M2295,3028.5c-0.8-2.1-1.5-0.4-1.5,3.8  c0,4.2,0.7,5.9,1.5,3.8C2295.8,3034,2295.8,3030.6,2295,3028.5z M2482.7,3026c0-3.3-1.4-5.9-3.1-5.9s-3.1,3.5-3.1,7.8  c0,4.4,1.3,7,3.1,5.9C2481.3,3032.8,2482.7,3029.3,2482.7,3026z M2328.7,3025.6c-1-2.4-1.7-1.7-1.8,1.8c-0.1,3.2,0.6,5,1.6,4  C2329.5,3030.5,2329.6,3027.8,2328.7,3025.6L2328.7,3025.6z M2482.7,3003.4c0-0.7-1.4-2.2-3.1-3.2s-3.1-0.4-3.1,1.4  c0,1.8,1.4,3.2,3.1,3.2C2481.3,3004.8,2482.7,3004.1,2482.7,3003.4z M2482.3,2987.6c-2.8-6.7-3.9-7.6-4.9-3.6  c-0.7,2.9,0.6,7.2,2.8,9.6C2485.9,2999.8,2486.6,2997.9,2482.3,2987.6L2482.3,2987.6z M2136.8,2986.2c0-3.5-1.4-5.5-3.1-4.4  c-1.7,1-3.1,3.9-3.1,6.3c0,2.4,1.4,4.4,3.1,4.4C2135.4,2992.5,2136.8,2989.7,2136.8,2986.2z M2275,2976.4c-5.1-5.1-8,0-3.2,5.7  c2.9,3.5,4.5,3.9,5.4,1.3C2277.8,2981.4,2276.8,2978.2,2275,2976.4z M2345,2972.3c0-2.5-1.4-3.7-3.1-2.7c-1.7,1-3.1,4-3.1,6.5  s1.4,3.7,3.1,2.7C2343.6,2977.7,2345,2974.8,2345,2972.3z M2484.8,2961.3c-1-2.4-1.7-1.7-1.8,1.8c-0.1,3.2,0.6,5,1.6,4  C2485.6,2966.2,2485.7,2963.5,2484.8,2961.3L2484.8,2961.3z M2267.4,2948.9c-0.8-2.1-1.5-0.4-1.5,3.8s0.7,5.9,1.5,3.8  C2268.2,2954.4,2268.2,2951,2267.4,2948.9z M2139.9,2946.4c0-3.3-1.4-5.9-3.1-5.9c-1.7,0-3.1,3.5-3.1,7.8c0,4.4,1.3,7,3.1,5.9  C2138.5,2953.2,2139.9,2949.7,2139.9,2946.4z M2479.7,2948.1c0-2.5-1.4-4.6-3.1-4.6c-1.7,0-3.1,2.1-3.1,4.6s1.4,4.6,3.1,4.6  C2478.3,2952.7,2479.7,2950.6,2479.7,2948.1z M2464.4,2948.4c0-0.7-2.1-2-4.6-3s-4.6-0.4-4.6,1.2s2.1,3,4.6,3  S2464.4,2949.1,2464.4,2948.4z M2479.7,2917.3c0-2.4-1.4-4.4-3.1-4.4c-1.7,0-3.1,2.8-3.1,6.3s1.4,5.5,3.1,4.4  C2478.3,2922.6,2479.7,2919.8,2479.7,2917.3z M2464.4,2913.3c0-6.3-1.8-9.3-6.1-10.4c-8.3-2.2-7.8-8.2,0.8-8.6  c6.6-0.3,6.5-0.4-0.8-2.5c-5.3-1.5-7.4-4-6.7-8.1c1.1-7.4,1-9.4-1.2-23.2c-1.1-6.7-0.5-11.9,1.5-13.2c2.1-1.3,3.4,1.2,3.4,7  c0,5.2,1.9,9.8,4.6,10.8c5.5,2.1,6.2-2.9,0.8-5.4c-3.1-1.4-3.1-2.1,0-3.6c2.1-1,3.8-6.9,3.8-13.1c0-8.7-1.5-11.9-6.9-14.3  c-3.8-1.7-7.3-6.1-7.9-9.9c-0.8-5.4,0.6-6.9,6.1-7.1c3.9-0.1,5.4-0.9,3.3-1.8c-2.1-0.8-3.8-3.5-3.8-6c0-3.5,1.3-3.7,6.1-1.2  c5.4,2.9,6.1,2.3,6.1-4.3c0-4.2,1.2-8.3,2.7-9.3c1.5-0.9,3.6-9.6,4.8-19.3c1.1-9.7,2.8-20.4,3.6-23.8c1.3-5,1-5.3-1.7-1.5  c-1.8,2.5-3.4,9.4-3.6,15.3c-0.2,5.9-1,8.3-1.8,5.5c-1.1-4.3-2.5-4.7-8.1-1.8c-15.2,7.8-17.8,8.6-28.1,8.6c-9.5,0-10.8,0.9-10.8,7.9  c0,5.4,2,8.5,6.1,9.5c3.4,0.9,6.1,3.3,6.1,5.5s-2.8,4.6-6.1,5.5c-5.3,1.4-6.1,4.2-6.1,20.6v19l12.2-1.2c6.7-0.6,12.2-0.1,12.2,1.2  c0,1.3-2.2,2.4-4.8,2.4c-4.1,0-4.5,3.5-2.8,25.3c2.1,26.8,6.1,39,12.8,39c2.2,0,4.1,2.5,4.1,5.6c0,5.1,2.4,9.7,5.1,9.7  C2463.9,2922.1,2464.4,2918.1,2464.4,2913.3z M2438.3,2827.2c-8.4-5.6-8.6-6.1-2.4-6.1c3.7,0,8.3,2.7,10.1,6.1  C2450,2834.7,2449.7,2834.7,2438.3,2827.2z M2430.7,2810.2c0-2.6,1.4-3.9,3.1-2.9c1.7,1,3.1,3.2,3.1,4.8c0,1.6-1.4,2.9-3.1,2.9  C2432.1,2815,2430.7,2812.8,2430.7,2810.2z M2432,2784c-1.2-1.9-0.2-4.6,2.1-6.1c5.8-3.7,33.3-3.5,33.3,0.3c0,1.7-2.7,3.1-5.9,3.1  s-6.8,1.4-7.8,3.1C2451.1,2788.5,2434.6,2788.2,2432,2784z M2345.8,2903.3c3.9-2.5-0.1-18.8-4-16.3c-1.6,1-2.9,7.6-2.7,14.7  c0.1,7.1,1,10.8,2,8.2S2344.2,2904.4,2345.8,2903.3z M2138.3,2897.6c1-1.7,0.4-3.1-1.3-3.1c-1.8,0-3.2,1.4-3.2,3.1  c0,1.7,0.6,3.1,1.3,3.1S2137.3,2899.3,2138.3,2897.6z M2479.7,2894.7c0-3.3-1.4-6.8-3.1-7.8c-1.7-1.1-3.1,1.5-3.1,5.9  c0,4.3,1.4,7.8,3.1,7.8C2478.3,2900.7,2479.7,2898,2479.7,2894.7z M2273.9,2885.4c0.1-5.1-1-9.2-2.6-9.2c-1.6,0-2.9,4.1-2.9,9.2  s1.2,9.2,2.6,9.2S2273.7,2890.4,2273.9,2885.4z M2139.9,2864.1c0-5-1.4-9.9-3.1-10.9c-1.8-1.1-3.1,2.5-3.1,9c0,6,1.4,10.9,3.1,10.9  C2138.5,2873.1,2139.9,2869.1,2139.9,2864.1z M2479.7,2851.7c0-3.4-1.4-6.1-3.1-6.1c-1.7,0-3.1,2.8-3.1,6.1s1.4,6.1,3.1,6.1  C2478.3,2857.8,2479.7,2855.1,2479.7,2851.7z M2243,2828c-0.8-3-1.5-1.3-1.5,3.8c-0.1,5.1,0.6,7.5,1.4,5.4  C2243.7,2835.1,2243.8,2831,2243,2828L2243,2828z M2251,2833.3c0.9-3.4,0.4-5.4-1.2-4.4c-1.5,0.9-2.8,3.7-2.8,6.1  C2247,2841.4,2249.1,2840.5,2251,2833.3z M2277.6,2833.1c0-3.5-1.4-5.5-3.1-4.4c-1.7,1-3.1,3.9-3.1,6.3c0,2.4,1.4,4.4,3.1,4.4  C2276.2,2839.4,2277.6,2836.6,2277.6,2833.1z M2480.1,2821.8c1.9-22.6-0.6-33.7-4.4-19.1c-0.9,3.4-0.4,6.1,1.2,6.1s2.8,2.1,2.8,4.6  s-1.4,4.6-3.1,4.6c-1.7,0-3.1,2.1-3.1,4.6C2473.5,2829.1,2479.6,2828.4,2480.1,2821.8z M2331.8,2808.1c-0.7-3.8-1.4-1.4-1.4,5.3  s0.6,9.9,1.3,6.9C2332.5,2817.4,2332.6,2811.9,2331.8,2808.1L2331.8,2808.1z M2135.5,2803.4c-3.6-3.6-5,1.9-2.7,10.4l2.4,8.8l1-8.7  C2136.8,2809.1,2136.5,2804.4,2135.5,2803.4L2135.5,2803.4z M2255.2,2805c-0.8-2.1-1.5-0.4-1.5,3.8c0,4.2,0.7,5.9,1.5,3.8  C2256,2810.6,2256,2807.1,2255.2,2805L2255.2,2805z M2242.9,2783.6c-0.8-2.1-1.5-0.4-1.5,3.8c0,4.2,0.7,5.9,1.5,3.8  C2243.8,2789.1,2243.8,2785.7,2242.9,2783.6z M2129,2780.5c-4.1-13.3-7.4-16.6-6.9-6.9c0.6,11,1.8,13.8,5.9,13.8  C2129.8,2787.4,2130.2,2784.5,2129,2780.5L2129,2780.5z M2490.5,2776.8c5.7-13.6,5.7-20.1,0-12c-5.1,7.2-9.5,22.6-6.5,22.6  C2485.2,2787.4,2488.1,2782.6,2490.5,2776.8L2490.5,2776.8z M2338.8,2773.6c0-4.2-1.4-7.7-3.1-7.7c-3.4,0-4.2,10.1-1,13.3  C2338.1,2782.6,2338.8,2781.6,2338.8,2773.6z M2159.1,2760.9c-2.1-0.8-6.2-0.9-9.2-0.1s-1.3,1.5,3.8,1.5  C2158.7,2762.4,2161.1,2761.7,2159.1,2760.9L2159.1,2760.9z M2117.5,2753.2c-1-2.4-1.7-1.7-1.8,1.8c-0.1,3.2,0.6,5,1.6,4  C2118.2,2758,2118.3,2755.4,2117.5,2753.2L2117.5,2753.2z M2150.4,2745.8l-12-3.7l9.9-0.3c5.5-0.2,9.9-1.9,9.9-3.7  c0-2.3-5.2-2.8-16.5-1.3c-17.8,2.2-22-0.1-18.7-10.6c1.4-4.3,4.6-6.1,11-6.1h9l-0.5-55.4l-0.5-55.4l-14.1,0.6  c-7.8,0.4-15.8,0.5-17.9,0.2c-2.8-0.3-3.8-9.1-3.8-32.5c0-30.1,0.4-32.1,6.1-32.1c4.5,0,6.1-2,6.1-7.7c0-5.6-1.6-7.7-6.1-7.7  c-5.7,0-6.1-2-6.1-29.1c0-23.8,0.8-29.1,4.6-29.1c6.1,0,5.9-11.4-0.2-17.5c-2.7-2.7-4.2-7.4-3.3-10.5s0.4-5.7-0.8-5.7  c-5.2,0-8.5,130.7-4.3,171c2,18.7,2,18.8,11.7,18.8c17.5,0,21.8,8.9,21.6,45c-0.1,21.9-1.3,32.4-4.2,35.2c-3.4,3.3-3.9,2.7-3.2-3.7  c0.5-4.2-0.2-9.5-1.6-11.7c-1.4-2.3-1.2-5.4,0.4-7c4.2-4.2,1-17.9-4.1-17.9c-2.5,0-4.2,3.2-4.2,7.7c0,5.2-1.7,7.7-5.4,7.7  c-4,0-4.3,0.7-1.4,2.6c2.2,1.4,3.7,3.8,3.3,5.3c-0.4,1.5,0.2,4.8,1.3,7.4s2.3,12.1,2.8,21.3c0.8,16.2,1.2,16.9,13.1,22.6  c6.7,3.2,14.3,6.9,16.8,8.1c2.5,1.3,6.6,1.5,9,0.6C2160.7,2750.2,2157.6,2748.1,2150.4,2745.8L2150.4,2745.8z M2110,2739.5  c-2.1-0.8-3.8-3.6-3.8-6.1c0-2.5,1.2-3.8,2.6-2.9c1.4,0.9,1.9-2.1,1-6.7l-1.6-8.3l-2.5,9.2c-2.9,10.7-1.3,16.9,4.2,16.6  C2113,2741.1,2113,2740.7,2110,2739.5z M2283.7,2736.9c0-2.5-1.4-4.6-3.1-4.6c-1.7,0-3.1,2.1-3.1,4.6s1.4,4.6,3.1,4.6  C2282.4,2741.5,2283.7,2739.4,2283.7,2736.9z M2335.8,2737.1c0-2.4-1.4-5.3-3.1-6.3c-1.7-1-3.1,0.9-3.1,4.4s1.4,6.3,3.1,6.3  S2335.8,2739.5,2335.8,2737.1z M2480.5,2725.6c-3.9-4.8,0.7-19.1,5.2-16.2c1.7,1,3.1,5.3,3.1,9.4c0,4.1,1.2,7.5,2.6,7.5  s2.1-3.8,1.5-8.4c-1-7.2-0.7-7.5,1.7-2.3c2.4,5.1,2.9,4.2,3.1-5.4c0.2-8.3-1.1-11.5-4.4-11.5c-2.5,0-4.6-1.7-4.6-3.8  c0.1-7.7,3.8-17.6,6.7-17.6c1.6,0,5-2.1,7.5-4.6s3.1-4.6,1.3-4.6s-3.3-2.1-3.3-4.6c0-2.5,1.7-4.6,3.8-4.6c2.9,0,2.8-0.7-0.3-2.6  c-2.5-1.6-3.7-6.7-3.1-13c0.9-9.3,0.3-10.3-6-9.4c-6.9,1-7,0.6-6.1-26c0.8-24.8,1.4-27.1,7.3-27.9c6.2-0.9,6.4-2.2,5-33.7  c-0.8-18-2-33.3-2.6-34c-0.7-0.7-1.2,10.7-1.2,25.4c0,17-1.1,26-3.1,24.8c-3.4-2.1-4.3-62.1-1.1-70.4c1.6-4.1,2.5-4.3,4.5-1  c1.6,2.4,2.4-3.3,2.1-14.3c-0.3-12.8-0.8-14.9-1.7-6.9c-0.8,7.6-3.3,12.6-7.5,14.8c-11.1,6-13.9-2.5-10.8-33.3  c0.7-7.2,0.1-13.8-1.3-14.7c-4.7-2.9-3-45.5,2.3-56.2c3.4-6.9,5.9-8.9,8.1-6.7s2,4.7-0.8,8c-2.2,2.6-3.1,5.7-2,6.8s2,0.2,2-1.9  c0-2.2,2-3.1,4.6-2.1c2.5,1,4.6,0.3,4.6-1.5c0-1.8,2.1-2.5,4.6-1.5c2.7,1,4.6,0,4.6-2.5c0-2.3-1.7-4.8-3.7-5.5  c-2.6-0.9-3.8-10.5-3.9-31c-0.1-20.7-1.3-30.5-4.1-32.2c-2.2-1.3-4.5-10.3-5.3-19.9c-1-12.7-0.4-16.9,2.2-15.3  c2.4,1.5,2.9,0.4,1.5-3.2c-1.1-2.9-2.1-9.9-2.1-15.5c0-7.7-1.5-10.5-6.5-11.8c-6.1-1.6-6.2-2-1.3-6.9c4.6-4.6,4.7-5.7,0.6-9.8  c-3.5-3.5-3.8-5.8-1.2-10c2.6-4.1,2.4-6.6-0.6-10.3c-2.2-2.6-5.2-4.1-6.7-3.1c-1.5,0.9-2.7-1.2-2.7-4.6s-1.5-6.3-3.4-6.3  c-2.1,0-3,5.6-2.3,15.3l1.1,15.3l-13.8,0.3c-7.6,0.2-17.2,1.4-21.4,2.8c-7.6,2.4-7.6,2.5,1.5,3.3c5.1,0.5,0.2,1.7-10.7,2.8l-19.9,2  l23.4,0.5c16.4,0.4,24.5,1.9,27.1,5.1c5.4,6.5-1.4,8.5-25.8,7.2c-13.8-0.7-20.5,0.1-21.5,2.7c-1.5,3.9,26.1,3.3,56.2-1.1  c11.9-1.7,13.3-1.4,11.5,3.3c-1.1,2.9-2,7.9-2,11.1c0,5-2.2,5.9-14.5,5.8c-26,0-46.7-3.6-46.7-8c0-2.3-2.4-3.8-5.4-3.4  s-5.8-0.6-6.3-2.3c-0.5-1.7-3.1-5.4-5.7-8.3s-3.9-7.4-2.9-9.9s0.5-4.7-1.2-4.7s-3,2.8-3,6.1s-2,6.1-4.4,6.1c-3.1,0-4.2-3.2-3.8-10.7  c0.5-10.4,0.9-10.7,13.4-10.7c7.1,0,13.8-1.6,15-3.5c3.3-5.3-26.6-0.1-33.2,5.8c-3.3,3-5.4,9.2-5.4,16.6c0,11,0.6,11.8,9.2,11.8  c10.3,0,12.5,5.8,3.1,8.3c-5.3,1.4-6.1,4.2-6.1,21.1c0,18.8,0.3,19.5,7.7,19.5c4.8,0,7.7-1.7,7.7-4.6c0-2.5,2.1-4.6,4.6-4.6  s4.6,2.1,4.6,4.6c0,9.3,27.8,3.8,34.6-6.9c1.5-2.4,9.5-3.8,20.7-3.8h18.3l-0.3,103.3c-0.6,192.6-0.7,189.6,6.3,191.5  c5.4,1.4,6.1,4.2,6.1,24.6c0,20.4-0.7,23.3-6.1,25c-5.4,1.7-6.1,4.6-6.1,24.7c0,22.5,0.1,22.8,8,22.8c6,0,7.5,1.2,6.1,4.8  c-1,2.7-1.9,7-1.9,9.5c0,3.2-2,4.2-6.1,3.1c-5.7-1.5-6.1-0.1-6.1,20.2c0,20.3,0.3,21.5,5.1,16.7  C2482.3,2731,2482.8,2728.4,2480.5,2725.6L2480.5,2725.6z M2480.5,2655.2c0.8-19.9,4.4-24.9,10.7-14.8c2.6,4.1,2.9,7.9,0.9,11.5  c-1.6,2.9-3.7,9.1-4.7,13.8C2484.2,2681.2,2479.7,2674.5,2480.5,2655.2L2480.5,2655.2z M2479.7,2355.8c0-3.9,1.6-6.1,3.8-5.4  c2.1,0.7,3.8,3.1,3.8,5.4s-1.7,4.7-3.8,5.4C2481.2,2361.9,2479.7,2359.7,2479.7,2355.8z M2481.7,2335.3c-1.1-1.1-2-10.1-2-19.9  c0-13.8,1-17.9,4.6-17.9c2.8,0,4.6,2.8,4.6,7c0,3.9,1.2,8.3,2.7,9.9s3.7,7.4,4.8,12.9c1.9,9.1,1.4,9.9-5.3,9.9  C2487.1,2337.4,2482.8,2336.5,2481.7,2335.3z M2381.7,2279.6c0-11.5,7.8-14.5,22-8.7c6.1,2.6,23.4,4.5,43.6,4.9  c18.4,0.3,34.6,1.3,36,2.2c7,4.3,0.3,6.2-22.7,6.3c-13.9,0.1-37.3,1.1-52,2.3l-26.8,2.1L2381.7,2279.6L2381.7,2279.6z   M2505.3,2733.8c1-2.5,0.4-4.6-1.2-4.6s-3,2.1-3,4.6c0,2.5,0.5,4.6,1.2,4.6C2503,2738.4,2504.3,2736.4,2505.3,2733.8z   M2181.9,2733.5c-1-1-3.7-1.1-5.9-0.2c-2.4,1-1.7,1.7,1.8,1.8C2181.1,2735.3,2182.9,2734.5,2181.9,2733.5L2181.9,2733.5z   M2286.8,2707.8c0-3.4-1.4-6.1-3.1-6.1c-1.7,0-3.1,2.8-3.1,6.1c0,3.4,1.4,6.1,3.1,6.1S2286.8,2711.2,2286.8,2707.8z M2330.2,2707.1  c-2.2-2.2-3.6-2.4-3.6-0.5c0,4.1,3.6,7.7,5.7,5.7C2333.1,2711.5,2332.2,2709.1,2330.2,2707.1z M2514.5,2698.1  c1.8-8.8,0.6-14.7-2.3-11.5c-3,3.3-5.1,21.2-2.5,21.2C2511.3,2707.8,2513.4,2703.5,2514.5,2698.1z M2329.7,2691  c0-4.2-1.1-7.7-2.5-7.7c-2,0-2.5,9.4-0.8,14.5C2327.6,2701.5,2329.7,2697.1,2329.7,2691L2329.7,2691z M2289.9,2686.6  c0-1.6-1.4-3.7-3.1-4.8c-1.7-1-3.1,0.3-3.1,2.9s1.4,4.8,3.1,4.8C2288.5,2689.4,2289.9,2688.1,2289.9,2686.6L2289.9,2686.6z   M2100.1,2678.7c0-2.5-1.3-4.6-3-4.6s-2.2,2.1-1.2,4.6c1,2.5,2.3,4.6,3,4.6C2099.5,2683.3,2100.1,2681.3,2100.1,2678.7z   M2519.5,2674.1c0-1.7-1.4-3.1-3.1-3.1c-1.7,0-3.1,1.4-3.1,3.1c0,1.7,1.4,3.1,3.1,3.1S2519.5,2675.8,2519.5,2674.1z M2326.6,2663.4  c0-4.2-1.4-7.7-3.1-7.7c-1.7,0-3.1,3.4-3.1,7.7c0,4.2,1.4,7.7,3.1,7.7C2325.2,2671.1,2326.6,2667.6,2326.6,2663.4z M2097,2656.7  c0-6.2-0.9-7.4-3.5-4.8c-1.9,1.9-2.6,5.6-1.6,8.3C2094.7,2667.5,2097,2665.9,2097,2656.7z M2292.9,2660.4c0-2.5-1.4-4.6-3.1-4.6  c-1.7,0-3.1,2.1-3.1,4.6s1.4,4.6,3.1,4.6C2291.5,2664.9,2292.9,2662.9,2292.9,2660.4z M2115.4,2650.9c0-7.4-1.2-10.6-3.8-9.7  c-5.1,1.7-5.2,20.7-0.1,20.7C2113.9,2661.9,2115.4,2657.8,2115.4,2650.9L2115.4,2650.9z M2522.5,2651c0-2.4-1.4-4.4-3.1-4.4  c-1.7,0-3.1,2.8-3.1,6.3c0,3.5,1.4,5.5,3.1,4.4C2521.1,2656.3,2522.5,2653.4,2522.5,2651L2522.5,2651z M2338.1,2628  c-0.2-9.4-1.3-13.8-2.8-11.2c-2.1,3.8-0.3,26.7,2.2,26.7C2338.1,2643.5,2338.3,2636.5,2338.1,2628z M2297.5,2637.4  c1.1-1.7-0.2-2.2-2.9-1.2c-5.3,2-6.3,4.2-1.9,4.2C2294.3,2640.5,2296.5,2639.1,2297.5,2637.4z M2092.7,2629  c-3.1-3.1-5.7,1.6-3.1,5.7c1.9,3.1,2.6,3.1,3.7,0C2094,2632.6,2093.7,2630.1,2092.7,2629L2092.7,2629z M2323.5,2629.7  c0-4.2-1.2-7.7-2.7-7.7c-1.5,0-2.7,3.4-2.7,7.7c0,4.2,1.2,7.7,2.7,7.7C2322.3,2637.4,2323.5,2634,2323.5,2629.7z M2525.6,2619  c0-4.9-1.4-9.7-3.1-10.7c-1.9-1.1-3.1,3.1-3.1,10.7c0,7.6,1.2,11.9,3.1,10.7C2524.2,2628.7,2525.6,2623.9,2525.6,2619z   M2294.5,2622.1c1-1.7,0.4-3.1-1.3-3.1c-1.8,0-3.2,1.4-3.2,3.1c0,1.7,0.6,3.1,1.3,3.1S2293.4,2623.8,2294.5,2622.1z M2083.8,2601.4  c-0.8-2.9-1.4-0.5-1.4,5.4s0.6,8.3,1.4,5.4S2084.6,2604.4,2083.8,2601.4z M2320.5,2605.1c0-6.5-1.2-10.1-3.1-9  c-5.1,3.1-3.4,19.9,2,19.9C2320,2616,2320.5,2611.1,2320.5,2605.1z M2299,2600.5c0-3.3-1.4-5.9-3.1-5.9c-1.7,0-3.1,3.5-3.1,7.8  c0,4.4,1.3,7,3.1,5.9C2297.7,2607.3,2299,2603.7,2299,2600.5z M2337.9,2597c-1-2.4-1.7-1.7-1.8,1.8c-0.1,3.2,0.6,5,1.6,4  C2338.7,2601.9,2338.8,2599.2,2337.9,2597L2337.9,2597z M2282.1,2597.8c1-1.6,0.4-3.7-1.3-4.8c-1.7-1.1-3.1,0.2-3.1,2.8  C2277.6,2601.3,2279.5,2602.1,2282.1,2597.8z M2513.3,2595.9c0-1-2.1-3.8-4.6-6.3c-5-5-5.6-4.2-2.7,3.2  C2507.8,2597.3,2513.3,2599.7,2513.3,2595.9L2513.3,2595.9z M1930.7,2573.1c3.2,0,4,1.7,2.7,5.4c-1.4,3.7-1.1,4.4,1.1,2.2  c1.8-1.7,3.9-7.9,4.8-13.8c1.5-9.6,1.3-9.9-1.9-3.7c-2,3.8-6.1,6.9-9.3,6.9c-3.9,0-5.5,2.1-5.3,6.9c0.3,5.2,0.7,5.6,1.8,1.5  C1925.4,2575.5,1928.1,2573.1,1930.7,2573.1z M2090.9,2544c0-23.5-1.2-38.3-3.1-38.3c-1.9,0-3.1,14.1-3.1,36.2  c0,31.8,1.1,40.3,5.1,40.3C2090.4,2582.3,2090.9,2565.1,2090.9,2544z M2682.8,2577.7c-1-2.5-0.3-4.6,1.4-4.6c1.7,0,3.8,2.4,4.6,5.4  c1.3,4.9,1.4,4.8,1.8-0.3c0.2-3.2-2.2-6.3-5.6-7.2c-3.3-0.9-7.3-5.5-9-10.4s-4-8.9-5.1-8.9c-2.9,0,1.6,22.2,5.4,26.8  C2680.6,2583.8,2685,2583.3,2682.8,2577.7L2682.8,2577.7z M1979.7,2571.2c1.8-4.6-8.9-16.2-15.1-16.4c-3.8-0.1-2.6,7.4,2.5,14.6  C1972.7,2577.4,1977.1,2578.1,1979.7,2571.2z M1971.5,2570c0-1.7,1.4-3.1,3.1-3.1s3.1,1.4,3.1,3.1c0,1.7-1.4,3.1-3.1,3.1  S1971.5,2571.7,1971.5,2570z M2639.6,2574.1c-7-2.8-4.1-10.2,4-10.2c4.3,0,7.1-1.2,6.1-2.8c-2-3.2-13.2-0.9-15.8,3.3  c-2.6,4.2,1.1,11.8,5.6,11.5C2642.6,2575.7,2642.6,2575.4,2639.6,2574.1L2639.6,2574.1z M2280.8,2562.2c-1.5-5-2.8-6.7-3-3.9  c-0.3,5.7,3,15.6,4.6,14C2283.1,2571.7,2282.3,2567.2,2280.8,2562.2z M2338.2,2555.9l-1-11.9l-1.5,14.4c-0.8,7.9-0.3,13.3,1,11.9  S2338.8,2562.4,2338.2,2555.9z M1882.9,2548.6c1.6,0,2.8,2.3,2.8,5.2c0,4.5,0.6,4.4,4.5-0.8c6.4-8.4,6.3-15.7-0.1-10.4  c-4,3.3-5,2.9-6.5-2.7c-2.9-11.3-7.2-7.3-6.8,6.4c0.2,7.2,1,10.6,1.8,7.7S1881.4,2548.6,1882.9,2548.6L1882.9,2548.6z M1955.2,2545  c-1-2.4-1.7-1.7-1.8,1.8c-0.1,3.2,0.6,5,1.6,4C1956,2549.8,1956.1,2547.2,1955.2,2545L1955.2,2545z M2279.6,2541.7  c-0.8-2.1-1.5-0.4-1.5,3.8s0.7,5.9,1.5,3.8C2280.5,2547.3,2280.5,2543.8,2279.6,2541.7z M2654.2,2547.1c0-2.5-1.4-4.6-3.1-4.6  c-1.7,0-3.1,2.1-3.1,4.6c0,2.5,1.4,4.6,3.1,4.6C2652.8,2551.7,2654.2,2549.6,2654.2,2547.1z M2733.2,2545.8c2.2-0.1,3.2-1.6,2.2-3.2  c-1-1.6-4-2.1-6.6-1.1s-6,0-7.4-2.3c-3.3-5.4-6.7-2.1-4.3,4.1c1,2.6,4.1,4.3,7,3.7C2726.8,2546.5,2731,2545.9,2733.2,2545.8z   M2322,2530.8c0-6.1,1.7-8.4,6.9-9.1c3.8-0.5,6.9-2.8,6.9-5.1c0-5.1-32.3-5.5-40.4-0.5c-3.9,2.5-6.3,2.4-9.1-0.4  c-5.9-5.9-11.7-4.4-11.6,3.1c0.1,8.1,7.2,18.5,10.4,15.3c1.2-1.2,3.3-2.2,4.5-2.2c1.2,0,4.7-2.5,7.8-5.5c8.8-8.8,18.3-5.6,19.5,6.6  C2318,2544.6,2322,2543,2322,2530.8z M2338.8,2536.7c0-3.2-1.9-6.5-4.2-7.4c-3.4-1.3-3.5-0.2-0.8,5.8  C2338,2544,2338.8,2544.3,2338.8,2536.7z M2606.3,2540.1c0.8-1.3-1.1-2.4-4.2-2.4s-5,1.1-4.2,2.4c0.8,1.3,2.7,2.4,4.2,2.4  C2603.6,2542.5,2605.5,2541.4,2606.3,2540.1z M2015.5,2496.6l-2.3-10.7l-2,12.2c-1.1,6.7-3,17.1-4.2,23c-2.1,10-1.9,10.3,2.5,4.8  c4.5-5.7,4.8-5.5,5.3,4.6c0.3,6.1,1.1,3.4,1.7-6.3C2017.3,2514.9,2016.8,2502.5,2015.5,2496.6z M1904.1,2524.7c0-4.5-0.5-4.5-3-0.6  c-3.9,6-3.9,10,0,7.7C1902.8,2530.7,1904.1,2527.6,1904.1,2524.7z M1962.3,2530.3c0-1.7-1.5-3.1-3.2-3.1c-1.8,0-2.4,1.4-1.4,3.1  c1,1.7,2.5,3.1,3.2,3.1C1961.7,2533.3,1962.3,2531.9,1962.3,2530.3L1962.3,2530.3z M2605.3,2524.4c-1.9-3.5-3.2-8.1-2.9-10.2  c0.3-2.1,0.3-10,0-17.6c-0.7-21.2-5.7-8.2-5.5,14.3c0.1,14.4,1.1,18.5,4.3,17.3c2.2-0.9,4.1,0.2,4.1,2.3c0,2.1,0.8,3.1,1.8,2.1  C2607.9,2531.6,2607.2,2527.9,2605.3,2524.4L2605.3,2524.4z M2635.8,2514.8c0-11.6-1.1-17.8-3.1-16.7c-5.4,3.4-3.6,35.2,2,35.2  C2635.3,2533.3,2635.8,2525,2635.8,2514.8z M1893.5,2501.9c1.2-4.9,0.8-8.4-1-8.4c-3,0-6.7,9.8-6.8,18.2  C1885.7,2518.5,1891.1,2511.7,1893.5,2501.9z M2725.5,2505.9c-1.9-7.2-10.1-15-10.1-9.6c0,4.4,6.9,15.6,9.6,15.6  C2726.1,2511.9,2726.4,2509.2,2725.5,2505.9z M2617.4,2504c0-2.6-1.4-3.9-3.1-2.9c-1.7,1-3.1,3.2-3.1,4.8c0,1.6,1.4,2.9,3.1,2.9  C2616,2508.8,2617.4,2506.7,2617.4,2504z M1999,2494.9c0-2.6-1.4-3.9-3.1-2.8s-2.3,3.2-1.3,4.8C1997.2,2501,1999,2500.2,1999,2494.9  z M2654.1,2487.4c0-4.1-0.3-4.1-3,0c-1.6,2.5-3,6.7-3,9.2c0,4.1,0.3,4.1,3,0C2652.7,2494.1,2654.1,2489.9,2654.1,2487.4z   M2083.9,2472.9c-0.7-4.7-1.3-1.6-1.3,6.8c0,8.4,0.6,12.2,1.3,8.5C2084.6,2484.4,2084.6,2477.5,2083.9,2472.9L2083.9,2472.9z   M1964.3,2482.8c0-2.5-1.1-4.6-2.6-4.6c-1.4,0-2.6,2.1-2.6,4.6s1.1,4.6,2.6,4.6C1963.2,2487.4,1964.3,2485.3,1964.3,2482.8z   M1901,2472.7c0-2.2-1.3-3.2-3-2.1s-3,4.9-3,8.6c0,5.5,0.6,5.8,3,2.1C1899.6,2478.7,1901,2474.9,1901,2472.7z M1940.3,2478  c-0.6-1.8-2.4-3.3-4-3.3s-3.4,1.5-4,3.3c-0.6,1.8,1.2,3.3,4,3.3C1939.1,2481.3,1940.9,2479.8,1940.3,2478z M2695.3,2465.1  c2-12.4,0.2-18.8-4.6-15.9c-1.6,1-2.8-0.5-2.8-3.3c0-3.3,1.6-4.5,4.6-3.3c2.5,1,4.6,0.4,4.6-1.3c0-4.9-9.6-7.2-12.2-2.9  c-1.8,2.9-3.4,2.1-6.2-3.1c-3.1-5.8-2.9-7.4,1.2-9.7c6.2-3.5,6.4-8.6,0.3-8.6c-5.5,0-6-6.5-1-11.6c2.8-2.8,2-5.4-3.6-11.3  c-6.3-6.7-9.9-7.7-26.8-7.7c-22.7,0-24,5.9-1.4,6.4c11.8,0.2,13,0.7,6.7,2.8c-6.8,2.2-6.3,2.5,4,2.8c10.7,0.3,11.6,0.9,10.7,8.3  c-0.9,7.6-2,8-18.6,8.4c-13.7,0.3-17.7-0.6-17.8-4.2c-0.1-3-1.1-2.4-2.6,1.5c-1.3,3.4-1.8,7.8-1,9.9c0.8,2.1-1.1,4-4.3,4.2  c-5.1,0.3-5.2,0.5-0.3,1.8c7.3,1.9,6.8,9.3-0.8,11.7c-8.6,2.7-4.5,7.6,6.4,7.6c6.9,0,9.8-1.9,12-7.7c3-7.9,7.7-9.5,14.8-5  c3.2,2.1,3.4,6.2,0.8,20.4c-4,21.5-4,22.8,0,15.9c1.7-2.9,5.1-5.4,7.5-5.4s6.6-3.4,9.4-7.6c6.7-10.3,10.9-6.8,8.6,7.2  c-1.6,10-1.1,11.4,4.3,11.4C2692,2476.9,2693.8,2474.2,2695.3,2465.1L2695.3,2465.1z M2662.7,2451.2c1.8-18.5,3.2-20.8,8.8-15.1  c6,6,3.4,19.2-4.5,23.4C2662.2,2462.1,2661.7,2461.2,2662.7,2451.2L2662.7,2451.2z M2715.4,2473.6c0-2.5-1.4-4.6-3.1-4.6  c-1.7,0-3.1,2.1-3.1,4.6s1.4,4.6,3.1,4.6C2714,2478.2,2715.4,2476.1,2715.4,2473.6z M1924,2469c3-3.4,4.9-6.1,4-6.1  c-0.8,0-4,2.8-7.1,6.1c-3,3.4-4.9,6.1-4,6.1C1917.8,2475.1,1921,2472.4,1924,2469z M1959.2,2466c0-6.6,1.5-9.3,5.4-9.4  c3.2-0.1,3.8-0.9,1.5-1.8c-2.1-0.8-3.8-3.5-3.8-6s-3.1-5.6-6.9-7c-6.9-2.6-6.9-2.6,1.4-6.5c6.3-2.9,9.4-3,12.6-0.3  c4.6,3.8,23.5,1.5,23.5-2.9c0-1.4-2.1-1.8-4.6-0.8c-2.8,1.1-4.6,0-4.6-2.8c0-2.5,2.1-5.4,4.6-6.4c2.5-1,4.6-3.3,4.6-5.1  s-1.4-2.5-3-1.5c-1.9,1.2-2.3-3.1-1.2-11.7c1.2-8.6,0.6-14.3-1.6-15.6c-2.4-1.5-3.4,3.4-3.5,15.7c0,11.1-1,16.2-2.7,13.6  c-1.8-2.9-7.4-3.8-18.1-3.1l-15.4,1.1l-1-10.7c-0.6-5.9-0.2-16.9,0.8-24.5c1-7.6,2-11.4,2.3-8.4c0.6,6.5,11.3,7.2,17.5,1  c5.7-5.7,5.6-17.1-0.1-17.1c-6,0,6.8-13.9,15.2-16.4c3.4-1,0.9-1.2-5.4-0.6c-6.3,0.7-11.5,0-11.5-1.6s-1.6-2.9-3.6-2.9  s-2.7,0.9-1.6,2c1.1,1.1,0.1,3.5-2.1,5.4c-5.8,4.7-14.2,27.7-14.2,38.8c0,8.7-0.7,9.3-9.9,8.4c-8.9-0.9-10.1,0-10.9,7.5  c-0.5,4.6-2.3,8.4-3.8,8.4s-2.5,1.5-2.1,3.4c0.4,1.9-1.1,4.1-3.5,5c-3,1.1-3.5,0.3-1.7-2.7c2.1-3.5,1.7-3.5-2.3-0.3  c-4,3.2-5.2,3.2-6.5,0c-1-2.5-1.7-2-1.8,1.4c-0.2,3.9,2.1,5.4,8.8,5.4c5,0,9.9,1.5,11.1,3.3c1.5,2.4,3,2.3,5.5-0.1  c2.6-2.6,2.4-4.1-0.7-6c-6-3.7-1.4-9.4,7.5-9.4c6.3,0,7.4,1.3,6.9,8.5c-0.4,4.7,0.4,10.2,1.7,12.2c1.5,2.4-0.6,5-5.5,7.3  c-9.7,4.4-10.2,11-0.9,12.3c5,0.7,6.9,3,6.9,8.6c0,7.1,9.3,20.6,14.5,21.2C1958.2,2475,1959.2,2471,1959.2,2466L1959.2,2466z   M1943.9,2459.8c0-1.7,1.3-3.1,2.9-3.1s3.7,1.4,4.8,3.1c1,1.7-0.3,3.1-2.9,3.1C1946.1,2462.9,1943.9,2461.5,1943.9,2459.8  L1943.9,2459.8z M1934.8,2438.4c0-1.7,1.4-3.1,3.1-3.1s3.1,1.4,3.1,3.1c0,1.7-1.4,3.1-3.1,3.1S1934.8,2440.1,1934.8,2438.4z   M1925.6,2392.5c0-1.7,1.3-3.1,2.9-3.1s3.7,1.4,4.8,3.1c1,1.7-0.3,3.1-2.9,3.1S1925.6,2394.2,1925.6,2392.5z M1950.8,2364.2  c0.7-2.1,3.9-4.3,7-4.9c5-1,5.2-0.5,1.7,3.8C1954.7,2368.9,1949,2369.6,1950.8,2364.2z M1853.6,2466c-1-1.7,0.1-2.3,2.6-1.3  c2.4,0.9,5.3,0.4,6.2-1.2c1-1.6-0.9-3.6-4.3-4.5c-7.8-2-7.7-6.9,0-13.6c7.6-6.5,8-13.1,0.8-12.8c-3.2,0.1-3.8,0.9-1.5,1.8  c2.1,0.8,3.8,3,3.8,4.7c0,1.7-1.9,2.4-4.3,1.5c-3-1.1-5.2,2.2-7.5,11c-3.3,12.9-2.5,17.6,2.9,17.6  C1854.1,2469,1854.7,2467.7,1853.6,2466L1853.6,2466z M2765.6,2466.5c2.5-4-2.7-19.9-7-21.3c-3.1-1-3,0.1,0.2,5.3  c3.4,5.5,3.4,7-0.4,9.3c-2.4,1.5-5.9,2.1-7.7,1.2c-1.8-0.9-0.5,0.6,2.7,3.3C2760.2,2469.6,2763.3,2470.2,2765.6,2466.5  L2765.6,2466.5z M1915.4,2459.3c-1-2.4-1.7-1.7-1.8,1.8c-0.1,3.2,0.6,5,1.6,4C1916.2,2464.1,1916.3,2461.5,1915.4,2459.3  L1915.4,2459.3z M2014.3,2462.9c0-1.7-1.4-3.1-3.1-3.1s-3.1,1.4-3.1,3.1c0,1.7,1.4,3.1,3.1,3.1S2014.3,2464.6,2014.3,2462.9z   M2605.2,2458.1c0-2.6-1.4-3.9-3.1-2.9c-1.7,1-3.1,3.2-3.1,4.8c0,1.6,1.4,2.9,3.1,2.9C2603.8,2462.9,2605.2,2460.8,2605.2,2458.1z   M1992.9,2456.8c0-1.7-1.4-3.1-3.1-3.1s-3.1-1.5-3.1-3.2c0-1.8,1.4-2.4,3.1-1.3c1.7,1,3.1,0.4,3.1-1.4c0-1.8-2.1-3.2-4.6-3.2  c-4.9,0-5.7,2.8-2.7,10.5C1987.6,2460.3,1992.9,2461.6,1992.9,2456.8z M2521.5,2449.9c-0.8-2.1-1.5-0.4-1.5,3.8  c0,4.2,0.7,5.9,1.5,3.8C2522.3,2455.4,2522.3,2452,2521.5,2449.9z M2530.7,2453.1c-1-2.4-1.7-1.7-1.8,1.8c-0.1,3.2,0.6,5,1.6,4  C2531.5,2458,2531.6,2455.4,2530.7,2453.1L2530.7,2453.1z M2710.7,2457c1-1.6,0.4-3.7-1.3-4.8c-1.7-1.1-3.1,0.2-3.1,2.8  C2706.2,2460.4,2708,2461.2,2710.7,2457z M1928.6,2453.7c0-1.7-1.5-3.1-3.2-3.1s-2.4,1.4-1.3,3.1c1,1.7,2.5,3.1,3.2,3.1  C1928,2456.8,1928.6,2455.4,1928.6,2453.7z M2739.9,2452.4c0-0.7-1.4-2.2-3.1-3.2c-1.7-1-3.1-0.4-3.1,1.3c0,1.8,1.4,3.2,3.1,3.2  C2738.5,2453.7,2739.9,2453.1,2739.9,2452.4z M2093.9,2443c0-4.2-1.4-7.7-3.1-7.7c-1.7,0-3.1,3.4-3.1,7.7c0,4.2,1.4,7.7,3.1,7.7  C2092.6,2450.7,2093.9,2447.2,2093.9,2443z M2142.2,2445.7c6-1.6,6.9-3.9,6.9-16.8c0-8.2-1.2-14.9-2.7-14.9c-4,0-6.3,7.6-4.5,14.6  c1.6,6.1-6.4,12.1-9.5,7.1c-2-3.2-17-0.4-17,3.1c0,1.5,2.1,2.7,4.6,2.7s4.6,1.4,4.6,3.1C2124.6,2448,2131.8,2448.4,2142.2,2445.7  L2142.2,2445.7z M2500.9,2439.2c-0.2-6.2-0.8-7-2.3-3.2c-4.1,10.3-9.4,0.6-10.5-19.1l-1.1-19.8l-0.6,21.1c-0.5,17,0.5,21.9,4.8,25.2  C2499.1,2449.4,2501.1,2448.5,2500.9,2439.2z M2011.3,2432.1c0-1.6-1.4-2.9-3.1-2.9s-3.1,2.1-3.1,4.8s1.4,3.9,3.1,2.9  S2011.3,2433.7,2011.3,2432.1z M2755.2,2435.7c0-1.5-2.1-4.4-4.6-6.5c-3.7-3.1-4.6-3-4.6,0.6c0,2.5,0.9,5.4,2,6.5  C2750.9,2439.3,2755.2,2438.9,2755.2,2435.7L2755.2,2435.7z M1922,2427.5c-4.8-4.7-30.1-9-30.1-5.2c0,4.3,7,10,12.1,9.7  c3.4-0.2,3-1-1.4-2.8c-5-2.1-4.2-2.7,4.6-2.8c7.3-0.1,9.4,0.7,6.4,2.5c-3.4,2.2-3.1,3,1.5,4  C1923.5,2434.8,1926.8,2432.2,1922,2427.5z M2608.2,2426c0-3.5-1.4-5.5-3.1-4.4c-1.7,1-3.1,3.9-3.1,6.3c0,2.4,1.4,4.4,3.1,4.4  C2606.9,2432.3,2608.2,2429.5,2608.2,2426z M2713.1,2427.3c7-2.5,6.9-9.5-0.2-11.7c-3.1-1-8.7-4.6-12.4-8.2c-7.9-7.4-11-6.1-8,3.4  c1.2,3.7,3.8,5.9,6.1,5c6.3-2.4,8.1,1.6,2.6,5.7c-5.5,4-2.8,12.1,3.1,9.3C2706.1,2430,2710.1,2428.4,2713.1,2427.3z M1889.1,2410.4  c1.8-3.3,1.9-5.7,0.2-5.7c-1.5,0-3.5,2.8-4.4,6.1s-3.3,6.1-5.3,6.1c-2.4,0-2.8-1.4-1.1-4c1.5-2.2,0.3-1.3-2.7,1.9  c-2.9,3.2-5.4,7.1-5.4,8.6C1870.5,2427.6,1885.5,2417,1889.1,2410.4L1889.1,2410.4z M2500.2,2407.1c-0.7-3.8-1.4-1.4-1.4,5.3  s0.6,9.9,1.3,6.9C2500.9,2416.4,2500.9,2410.9,2500.2,2407.1L2500.2,2407.1z M2137.6,2400.6c4.9,0.4,5.3-5.1,5.3-72.4  c0-79-0.6-76.5,17.1-76.5c6.2,0,7.4-1.5,7.4-9c0-9,0-9-18.4-8.8c-13.3,0.2-18.4,1.4-18.4,4.4c0,2.3-1.4,4.2-3.1,4.2  c-1.7,0-3.1-2.7-3.1-6.1c0-5.9,3-7.4,21.4-10.3c7.6-1.2,7.6-1.2-0.6-1.6c-7.5-0.4-8.2-1.5-8.1-12.7l0.2-12.2h21.5  c19.2,0,22.3-0.8,28.8-7.9c5-5.4,9-7.2,12.6-5.8c2.9,1.2,7.9,2.3,11.1,2.6c9,0.7,9.8,8.1,0.8,8.1c-4.2,0-8.4,2.1-9.3,4.6  c-1,2.6-4.8,4.2-8.7,3.8c-5.8-0.6-7.1,0.9-8,9.2c-0.9,9.8-1.2,10-16.8,10.3c-12.5,0.2-14.3,0.8-8.2,2.8c12,3.9,41.2,3.5,45.3-0.6  c5.8-5.8,4.4-7.7-7-9.9c-12.2-2.3-14.5-7.9-3.2-7.9c4.1,0,8.6-1.9,9.9-4.2s9.3-5.4,17.8-6.9c15.1-2.7,15.3-2.9,16.3-14.8  c0.9-10.4,0.4-11.5-3.6-8.2c-3.4,2.8-6.3,3-10.6,0.6c-4.5-2.4-6.9-2.1-9.8,1.3c-5.5,6.7-17.5,5.7-19.8-1.6  c-1.4-4.3-4.6-6.1-10.9-6.1c-7.5,0-9,1.2-9,7.5c0,4.1,1.4,8.3,3.1,9.4c7.7,4.8,1.4,7.7-16.8,7.7c-18.5,0-19.9-0.5-20.3-6.9  c-0.4-6.8-0.4-6.8-1.7-0.2c-0.7,3.7-4.9,10.2-9.3,14.6s-5.8,7.2-3.2,6.1c2.6-1,5.7-0.4,6.8,1.4c1.1,1.8-0.1,4.1-2.7,5.1  c-2.6,1-3.9,3.2-2.9,4.8c1,1.6-0.5,4.7-3.4,6.8c-4.2,3-5.5,10.1-6.5,34.2l-1.3,30.4l9.3-10l9.3-10l0,16.1  c-0.1,26.1-3.1,39.5-8.8,38.4c-3.5-0.7-5.1-4.6-5.3-13.2c-0.6-18.6-0.9-20.3-3.7-18.6c-1.4,0.9-1.9,5.8-1.2,10.9  c0.8,5.1-0.3,11.4-2.4,13.9c-3,3.7-2.8,4.9,1.4,6.5c2.8,1.1,4.6,3.5,3.9,5.4c-0.6,1.9,1.3,5.8,4.4,8.8c5.3,5.1,5.6,5.1,5.6-1  c0-3.7,1.6-5.9,3.8-5.1c2.5,0.8,4.1,9.7,4.7,26.4c0.8,21.5,0,26.3-5.4,33.1c-4,5-6.1,12-5.8,19l0.4,11.1l1.9-10.7  C2131.7,2403.2,2133.8,2400.3,2137.6,2400.6L2137.6,2400.6z M2155.2,2239.4c0-1.7,1.5-3.1,3.2-3.1s2.4,1.4,1.4,3.1  c-1,1.7-2.5,3.1-3.2,3.1C2155.8,2242.5,2155.2,2241.1,2155.2,2239.4z M2096.8,2402.4c-0.2-10.6-0.4-10.9-3.2-4  c-1.6,4.1-2.3,9.3-1.4,11.5C2095,2417.3,2097,2414.1,2096.8,2402.4z M2727.6,2409.3c-2.1-2.6-4.5-4-5.3-3.3  c-2.1,2.1,2.2,7.9,5.9,7.9C2730.2,2413.9,2730,2412.2,2727.6,2409.3z M2013.4,2398c-1-2.4-1.7-1.7-1.8,1.8c-0.1,3.2,0.6,5,1.6,4  C2014.2,2402.9,2014.3,2400.2,2013.4,2398L2013.4,2398z M2641.1,2396.8c-1-1-3.7-1.1-5.9-0.2c-2.4,1-1.7,1.7,1.8,1.8  C2640.3,2398.5,2642.1,2397.8,2641.1,2396.8L2641.1,2396.8z M2707,2388.8c-5.4-5.4-10.6-9-11.6-8c-2.2,2.2,14,17.8,18.4,17.8  C2715.4,2398.6,2712.4,2394.2,2707,2388.8z M2690.9,2392.5c0-1.7-1.4-3.1-3.1-3.1s-3.1,1.4-3.1,3.1c0,1.7,1.4,3.1,3.1,3.1  S2690.9,2394.2,2690.9,2392.5z M2004.2,2385.8c-1-2.4-1.7-1.7-1.8,1.8c-0.1,3.2,0.6,5,1.6,4C2005,2390.6,2005.1,2388,2004.2,2385.8  L2004.2,2385.8z M2130.1,2367.2l-0.6-22.2l-1.1,20.9c-0.9,17.1-1.9,20.6-5.7,19.2c-2.6-1-3.8-0.5-2.7,1.3c1,1.7,3.9,3,6.3,3  C2129.8,2389.4,2130.5,2384.8,2130.1,2367.2L2130.1,2367.2z M1995.2,2369.2c0.5-4-0.4-3.4-2.9,1.9l-3.7,7.7l-1.1-10.2  c-0.8-7.2,0.5-11.6,4.4-14.8c3.1-2.5,3.8-3.7,1.7-2.6c-2.3,1.1-3.8,0-3.8-2.8c0-3.9-1.2-3.6-6.1,1.4c-6,6-8,19.2-4.2,29  c1.7,4.4,2.7,4.4,8.4,0.6C1991.5,2376.9,1994.8,2372.3,1995.2,2369.2z M2628.9,2374.1c0.8-3,0.3-3.4-1.3-1.2  c-1.4,1.9-4.6,4.2-7.1,5.3c-3.2,1.4-2.8,1.7,1.3,1.2C2625,2379,2628.2,2376.6,2628.9,2374.1z M2517,2370.4c-2.2-2.2-3.6-2.4-3.6-0.5  c0,4.1,3.6,7.7,5.7,5.7C2519.9,2374.7,2519,2372.4,2517,2370.4z M1928.6,2367.6c0-1.7-1.4-2.2-3.1-1.2s-3.1,3.3-3.1,5  c0,1.7,1.4,2.2,3.1,1.2C1927.3,2371.6,1928.6,2369.3,1928.6,2367.6z M2690.9,2371.7c0-3.2-6.6-9.8-9.8-9.8c-1.4,0-0.8,2.8,1.3,6.1  C2686.3,2374.2,2690.9,2376.2,2690.9,2371.7L2690.9,2371.7z M2100.1,2363.4c0-4.2-1.4-7.7-3.1-7.7c-3.4,0-4.2,10.1-1,13.3  C2099.4,2372.4,2100.1,2371.4,2100.1,2363.4z M2605.6,2362.9c-3.6-6.2-4.5-4.2-1.5,3.5c1,2.7,2.6,4.3,3.3,3.5  C2608.2,2369.1,2607.3,2365.9,2605.6,2362.9z M2012.8,2361.9c-1-1.7-3.5-3-5.5-3c-2.2,0-1.8,1.2,0.9,3  C2014.1,2365.7,2015.2,2365.7,2012.8,2361.9z M2519.5,2361.9c0-1.7-1.4-3.1-3.1-3.1c-1.7,0-3.1,1.4-3.1,3.1c0,1.7,1.4,3.1,3.1,3.1  C2518.1,2364.9,2519.5,2363.6,2519.5,2361.9z M2623.5,2363.6c0-0.7-1.4-2.2-3.1-3.2c-1.7-1-3.1-0.4-3.1,1.3c0,1.8,1.4,3.2,3.1,3.2  C2622.2,2364.9,2623.5,2364.3,2623.5,2363.6z M2117.5,2342.8c-0.7-3.8-1.4-1.4-1.4,5.3s0.6,9.9,1.3,6.9  C2118.2,2352.1,2118.3,2346.6,2117.5,2342.8L2117.5,2342.8z M2599.7,2340.4c-0.7-5.1-2.6-10-4.1-10.9c-3.1-1.9-3.4,3.3-0.8,13.2  C2597.6,2352.9,2601.3,2351.1,2599.7,2340.4z M2513.6,2330.3c-2.4-2.4-3.3-1.1-3.3,4.4c0,10.1,4.3,14.4,5.6,5.7  C2516.5,2336.7,2515.4,2332.1,2513.6,2330.3L2513.6,2330.3z M1951.7,2329.8c5.1-12.1,5.9-19.7,1.7-15.3c-5,5.3-12.3,25.9-9.2,25.9  C1945.9,2340.4,1949.3,2335.7,1951.7,2329.8z M2103.1,2331.1c0-5.5-1.3-8.6-3.1-7.5c-1.7,1-3.1,5.3-3.1,9.4c0,4.1,1.4,7.5,3.1,7.5  C2101.7,2340.4,2103.1,2336.2,2103.1,2331.1z M2635.3,2328c0.6-4.1,3-8.5,5.4-9.9s4.3-5.2,4.3-8.6c0-3.4-1.3-5.4-2.9-4.4  c-1.6,1-4.3-0.7-6-3.6c-2.6-4.5-3.2-3.8-3.2,4.6c-0.1,5.5-2.3,13.4-4.9,17.5c-5,7.7-3.4,15,2.8,13  C2632.7,2335.9,2634.7,2332,2635.3,2328L2635.3,2328z M2628.1,2331.3c-1-1.7-0.4-3.1,1.3-3.1c1.8,0,3.2,1.4,3.2,3.1  c0,1.7-0.6,3.1-1.4,3.1S2629.2,2332.9,2628.1,2331.3z M1999.9,2329.2c-1.5-3.9-0.7-4.6,3.3-3.1c3.1,1.2,4.5,0.8,3.5-0.9  c-1-1.6-0.3-5.7,1.5-9.1c5.2-9.7-0.8-7.1-8.2,3.6c-6.5,9.2-6.8,14.7-0.8,14.7C2000.7,2334.3,2001,2332,1999.9,2329.2L1999.9,2329.2z   M2622.1,2306.9c-1.1-1.7-4.1-3.2-6.7-3.2s-7.4-3.4-10.8-7.7c-8.6-10.9-11.8-9.5-6,2.7c2.7,5.7,5.7,10.4,6.5,10.4  c0.8,0,4.3,0.1,7.7,0.4c4.9,0.3,5.3,0.9,1.7,3.2c-2.4,1.5-5.2,2.3-6.1,1.8c-0.9-0.6-2,3-2.3,7.8l-0.6,8.8l9.3-10.6  C2619.8,2314.8,2623.1,2308.6,2622.1,2306.9z M1977.5,2320.9c2.2-5.7,4.4-7,10.6-5.8c7.7,1.5,7.8,1.2,6-12.2  c-1.8-12.9-1.4-13.8,6-15.2c4.3-0.8,9.2-0.2,10.8,1.4c4,4,17.6-6.2,21.5-16.1c5.7-14.6,6.9-21.4,3.7-21.4c-1.7,0-2.4-2.1-1.4-4.6  c1.1-2.9,0-4.6-3.2-4.6c-3.6,0-4.9,2.9-4.9,10.7c0,6.7-2.3,13.1-6.2,16.9c-3.4,3.4-5.4,7.6-4.4,9.2s0.4,2.9-1.4,2.9  c-1.8,0-3.2-2.8-3.2-6.1s-1.4-6.1-3.1-6.1s-3.1,2.1-3.1,4.7c0,2.6-3.5,6-7.9,7.7c-10.5,4-10,4.3-11.4-7c-1.1-8.6-1.3-8.2-1.7,3.1  c-0.4,10.6-1.6,13-6.4,13c-7,0-10.9,13.7-7.9,27.6C1972.4,2330.1,1973.8,2330.5,1977.5,2320.9L1977.5,2320.9z M1977,2295.5  c2.2-0.9,4.9-0.8,5.9,0.2c1,1-0.8,1.7-4,1.6C1975.3,2297.2,1974.6,2296.5,1977,2295.5L1977,2295.5z M2661.9,2315.2  c-1.2-3.8-2.9-10.7-3.8-15.3c-0.9-4.6-3-8.4-4.7-8.4c-1.8,0-2.2,2.9-0.9,6.9c1.2,3.8,2.9,10.7,3.8,15.3c0.9,4.6,3,8.4,4.7,8.4  C2662.8,2322.1,2663.2,2319.2,2661.9,2315.2z M2032.7,2304.1c0-3.5-1.1-3.1-4.5,1.4c-2.5,3.3-4.5,8-4.5,10.5c0,3.5,1.1,3.1,4.5-1.4  C2030.7,2311.3,2032.7,2306.6,2032.7,2304.1z M2106.2,2303.4c0-5.3-1.3-8.4-3.1-7.3c-1.7,1-3.1,6-3.1,11.1c0,5.3,1.3,8.4,3.1,7.3  C2104.8,2313.4,2106.2,2308.4,2106.2,2303.4z M2511.4,2301.4c-2.9-12-4.2-12.4-4.2-1.3c0,5.3,1.4,9.7,3.1,9.7  C2512.2,2309.8,2512.6,2306.4,2511.4,2301.4z M1962.3,2294.5c0-1.7-0.6-3.1-1.3-3.1c-0.7,0-2.2,1.4-3.2,3.1c-1,1.7-0.4,3.1,1.3,3.1  S1962.3,2296.2,1962.3,2294.5L1962.3,2294.5z M2497.1,2283.1c-0.8-3-1.5-1.3-1.5,3.8c-0.1,5.1,0.6,7.5,1.4,5.4  C2497.8,2290.2,2497.9,2286.1,2497.1,2283.1L2497.1,2283.1z M1960.9,2285.9c-0.9-0.9-3.4,0-5.5,2.1c-3,3-2.6,3.4,1.7,1.7  C1960.1,2288.6,1961.8,2286.9,1960.9,2285.9z M2106.2,2288.4c0-1.7-0.6-3.1-1.4-3.1s-2.2,1.4-3.2,3.1c-1,1.7-0.4,3.1,1.3,3.1  C2104.7,2291.5,2106.2,2290.1,2106.2,2288.4z M2632.3,2286.3c-3.7-4.6-3.4-4.9,2.7-3.3c3.8,1,6.1,0.5,5.2-1  c-2.1-3.4-13.6-3.7-13.6-0.3c0,2.6,6.4,9.8,8.6,9.8C2636,2291.5,2634.7,2289.2,2632.3,2286.3z M2573.9,2280  c-4.4-10.4-8.5-15.6-8.5-10.7c0,5.5,6.8,19.1,9.6,19.1C2576.4,2288.4,2575.9,2284.6,2573.9,2280z M2624.8,2271.6  c1.9-3.4,5.1-7.2,7.2-8.6c5.9-3.8,4.5-16.8-2.6-23.9c-4.4-4.4-6-9.1-5.1-15.1c0.7-4.8,0.2-8-1.2-7.2c-3.6,2.2-3.1,18.8,0.6,21.1  c2,1.2,1.9,4.1-0.3,8.3c-1.9,3.5-2.6,11.1-1.7,16.8c2,12.4-3.6,16.2-15,10c-8.7-4.7-9.7-9-2.1-9.3c2.9-0.1,1.3-1.5-3.7-3  c-5-1.5-12.1-1.9-15.8-1c-4.9,1.2-7.2,0.1-8.2-3.9c-1.2-4.8-1.5-4.6-1.8,0.9c-0.2,3.6,1.7,7.4,4.2,8.3s4.6,3.8,4.6,6.4  c0,3.4,2.2,4.2,8.8,2.8c5.2-1,9.7-0.3,11,1.8C2606.9,2281.4,2621,2278.5,2624.8,2271.6L2624.8,2271.6z M2508.1,2257  c-1.9-22.1-7-31.3-7-12.5c0,15.8,3.1,31.6,6.2,31.6C2508.6,2276.2,2509,2267.6,2508.1,2257z M2651.1,2272.8  c-2.5-1.8-3.2-3.8-1.5-4.5c3.8-1.6,2.1-35-1.8-35c-3.2,0-3.9,37.7-0.7,40.8c1.1,1.1,3.5,2,5.4,2  C2654.2,2276.1,2653.6,2274.6,2651.1,2272.8L2651.1,2272.8z M1965.4,2267c0-1.7-0.6-3.1-1.3-3.1c-0.7,0-2.2,1.4-3.2,3.1  c-1,1.7-0.4,3.1,1.3,3.1S1965.4,2268.7,1965.4,2267z M2109.2,2263.7c0-3.5-1.4-5.5-3.1-4.4c-1.7,1-3.1,3.9-3.1,6.3s1.4,4.4,3.1,4.4  S2109.2,2267.2,2109.2,2263.7z M2002.1,2253.1c0-7.6-2.2-17.3-4.9-21.4c-4.9-7.5-4.8-7.5,4.6-7.5c5.3,0,12.3-1.4,15.7-3.1  c3.3-1.7,8.8-4.4,12.2-6.1c9.1-4.6,12.3-3.8,12.3,3.1c0,4.3-2.1,6.1-6.9,6.2c-4.7,0-5.7,0.8-3,2.5c2.4,1.5,3.1,4.8,1.8,8.4  c-1.6,4.3,0,3.6,6-2.7c4.5-4.7,8.2-10.5,8.2-12.9s2.4-5.7,5.4-7.4c4.7-2.8,4.8-3.6,0.8-6.2c-3-2-3.3-3.1-0.8-3.1  c2.1,0,4.7-3.8,5.8-8.5c1.1-4.6,3.1-9.1,4.4-10c1.3-0.8-0.4-4.9-3.7-9c-5.1-6.3-7-6.9-11.9-3.8c-3.2,2-6.6,3.7-7.4,3.7  c-3.5,0-1.3-14.8,2.7-18.1c3.4-2.8,5.4-2.1,9.3,3.5c4.6,6.4,5.3,6.6,8,1.8c1.8-3.2,5-4.5,8-3.3c4.1,1.6,4.6,0.5,2.9-6.4  c-1.6-6.5-0.6-9.6,4.6-13.8c5.7-4.6,6.7-8.4,6.5-24.7c-0.1-11.8,0.8-17.7,2.4-15.1c1.5,2.5,2.1-5.3,1.3-18.7  c-0.9-16.7-0.4-21.7,2-18.3c2.7,3.8,2.9,3.6,1.4-1c-1-3.1-2-8.6-2.1-12.2c-0.3-6.1-0.5-6-2.8,1c-1.6,5.1-2.6,5.9-2.8,2.3  c-0.2-2.9-1.8-5.4-3.5-5.4c-2.2,0-2.9,12.8-2.3,38l0.9,38l-8.3-1.7c-5.4-1.1-10,0.1-13.2,3.3c-2.7,2.7-3.5,4.9-1.7,4.9  s3.3,1,3.3,2.3c0,1.3-5,2.6-11,2.9c-13.4,0.7-15.5,2.4-10.3,8.7c3,3.6,3.1,5.7,0.4,8.3c-1.9,1.9-3.5,9.3-3.5,16.4  c0,10.7,1.2,13.1,6.9,14.8l6.9,2l-7.7,4.4c-4.2,2.4-15.6,4.5-25.3,4.5l-17.6,0.1v-16.5c0-9.1-0.9-20.8-1.9-26.1  c-1.5-7.7-1-9.3,2.6-7.9c3.6,1.4,4.9-2.1,6.5-16.7c1.1-10.2,1.1-24.7,0-32.3c-1.3-9.4-0.8-13.8,1.6-13.8c1.9,0,3.5-2.1,3.5-4.6  s-1.5-4.6-3.3-4.6c-1.8,0-2.8-3.1-2.3-6.9c0.8-5.6,2.6-6.7,9.9-5.9c5,0.5,10-0.8,11.4-3.1c1.9-3.1,2.6-3.1,2.6-0.2  c0,2.2,3.9,3.8,9.2,3.8h9.2v-30.7c0-23.6-1-31.1-4.3-32.4c-5.6-2.2-9.1-16.1-5.2-20.8c1.9-2.3,2.3-18.5,1.2-42.6  c-1.7-35.1-2.4-38.9-7.5-38.9c-3.6,0-5.7-2.2-5.7-6.1c0-4.4,2-6.1,7.5-6.1c4.1,0,11.1-1.4,15.6-3.1c7.5-2.8,8-4.1,6-14.5  c-1.2-6.3-3.6-12.3-5.4-13.4c-2.1-1.3-3.1-16.6-2.8-42.2c0.3-30.4-0.5-40.1-3.3-39.7c-8.8,1.1-11.4-0.6-11.4-7.6  c0-4.1,1.7-8.1,3.8-8.9c2.3-0.9,1.7-1.6-1.5-1.8c-2.9-0.1-5.5,0.8-5.6,2.1c-2.3,22.2-3.8,30.5-6.4,35.4c-2.1,4-2.1,6.9,0,9  c2.2,2.2,3.8,0.4,5.1-5.7c3.3-15.1,4.4-17.1,8.3-15.7c2.8,1,3.6,10.3,3,35.8c-0.6,26.1,0.3,36.8,3.9,43.9c5,9.9,3.4,21.7-2.5,19.6  c-2-0.7-3.5-4.9-3.4-9.4c0.1-8.5-4.2-10.5-10-4.7c-2.6,2.6-2.5,5,0.2,9.6c2.8,4.8,2.8,6.4-0.2,7.5c-6.6,2.4-4.6,21,2.8,25.9  c6.5,4.3,6.5,5,3.1,40.9c-1.9,20.1-2.6,39.7-1.6,43.5c1.4,5.3,0.5,7-3.9,7.2c-5.1,0.3-5.2,0.5-0.4,1.8c2.9,0.8,5.4,2.6,5.4,4  s-2.4,3.2-5.4,4c-4.8,1.3-4.8,1.4-0.2,1.8c2.8,0.2,6-1,7.1-2.7c4.9-7.9,7.7-1.2,7.7,18.4c0,22.5-2.7,26.7-8.7,13.5  c-4-8.8-10.8-8.5-11.9,0.5c-0.4,3.2,0.1,4.1,1,2c2.1-4.7,7.3-5.1,7.3-0.5c0,5.7-8.5,12-16,12c-10.3,0-21.2,30-16.6,45.6  c2.6,8.8,2.2,11-2.6,14.5c-3.2,2.3-4.1,4.2-2.1,4.2c2.2,0,3.6,4.8,3.6,12.2c0,6.7-1.3,12.2-3,12.2c-1.6,0-2.1,2.3-1,5  c1.2,3.1-0.3,6.6-3.7,9.2c-3.1,2.3-6,6.2-6.3,8.7c-0.8,5.2,3.6,6.2,6.4,1.5c4.5-7.3,8.2-2.6,6.3,7.9c-1.1,6-1.2,15-0.1,19.9  c1.9,8.6,2.5,8.9,19.5,8.4c17-0.5,24.8,1.5,24.8,6.3c0,4.9-23.7,14.2-39.7,15.7c-16.8,1.5-16.8,1.6-17.6,12.6  c-0.8,10.3-0.3,11,6.7,9.6c6.8-1.3,7.8-0.2,9.6,11.1C1997.4,2271.2,2002.1,2270.4,2002.1,2253.1L2002.1,2253.1z M2041.9,2205.6  c0-1.8,1.4-2.4,3.1-1.4c1.7,1,3.1,2.5,3.1,3.2c0,0.7-1.4,1.3-3.1,1.3S2041.9,2207.4,2041.9,2205.6z M2041.9,2196.6  c0-1.7,1.4-3.1,3.1-3.1s3.1,1.4,3.1,3.1c0,1.7-1.4,3.1-3.1,3.1S2041.9,2198.2,2041.9,2196.6z M1982.7,2254c-0.8-2.1-1.5-0.4-1.5,3.8  s0.7,5.9,1.5,3.8S1983.5,2256.1,1982.7,2254z M2565.4,2256.7c0-4-2.8-10.4-6.1-14.2l-6.1-7.1v6.8c0,3.7,1.3,6,2.8,5  c1.6-1,3.7-0.4,4.8,1.4c1.1,1.7,0.5,3.1-1.3,3.1c-2.1,0-1.9,2.1,0.6,6.1C2564.8,2265.6,2565.4,2265.5,2565.4,2256.7L2565.4,2256.7z   M1965.4,2257.8c0-1.7-1.5-3.1-3.2-3.1s-2.4,1.4-1.3,3.1c1,1.7,2.5,3.1,3.2,3.1C1964.8,2260.9,1965.4,2259.5,1965.4,2257.8z   M2057.2,2242.4c-3-1.9-3.3-2.9-0.8-3c2.1,0,3.8-2.1,3.8-4.6s-1.2-4.6-2.7-4.6c-3,0-6.4,10.4-6.4,19.8c0,5.7,0.2,5.8,5.3,0.7  C2061.1,2246,2061.2,2245,2057.2,2242.4z M2611.1,2250.3c4.2-5.1,6.5-32.3,2.7-32.3c-1.4,0-2.5,1.4-2.5,3s-2.7,0.7-6-2.1  c-3.3-2.8-5.1-6.5-4.1-8.1c1.1-1.7,0.3-2-1.9-0.7c-2.8,1.7-2.4,3.8,1.6,8.2c5.8,6.4,4.1,9.8-8.3,16.1c-7.5,3.8-11.5,11.1-6.1,11.1  c1.8,0,3.3-2.1,3.3-4.6c0-2.5,2.6-4.6,5.8-4.6c4.3,0,5.4,1.6,4.2,6.1c-0.9,3.4-2.9,6.1-4.5,6.1s-2,1.4-1,3.1  C2597.2,2256.2,2606.9,2255.4,2611.1,2250.3L2611.1,2250.3z M1968.4,2228.5c0-12.6-1.1-19.4-3.1-18.2c-1.7,1-3.1,10.1-3.1,20.1  c0,10.1,1.4,18.2,3.1,18.2C1967.1,2248.6,1968.4,2239.9,1968.4,2228.5z M2574.6,2242.3c0-3.5-1.3-5.5-2.9-4.5s-2.2,3.8-1.2,6.3  C2572.9,2250.4,2574.6,2249.7,2574.6,2242.3L2574.6,2242.3z M2112.3,2239.2c0-1.8-1.4-2.4-3.1-1.4c-1.7,1-3.1-0.1-3.1-2.6  c0-2.5,1.7-5.2,3.8-6.1c2.8-1.1,2.8-1.6,0.2-1.8c-4.9-0.3-8,5.2-5.9,10.6C2106.3,2243.2,2112.3,2244.1,2112.3,2239.2L2112.3,2239.2z   M2240.2,2234.8c0.8-5.6,0.6-5.7-2.4-0.8c-3.9,6.3-12.2,7.1-12.2,1.2c0-2.8-2.5-3.7-7.7-2.7c-11.6,2.2-4.3,8.6,9.8,8.5  C2236.9,2241,2239.4,2239.7,2240.2,2234.8z M2586.6,2228.6c1.8,1.1,2.4,0.1,1.5-2.5c-0.9-2.4-0.2-5.4,1.6-6.5  c1.8-1.1,3.2-3.7,3.2-5.7c-0.1-2-1.5-1.2-3.3,1.9c-2.7,4.6-4.1,4.9-8.3,1.7c-4.3-3.2-4.5-3.2-1.3,0.4c3,3.4,2.7,5.5-1.5,10.5  c-4.9,5.7-4.9,5.9-0.1,2.2C2581.1,2228.5,2584.9,2227.5,2586.6,2228.6L2586.6,2228.6z M2637.9,2226.6c-1-2.4-1.7-1.7-1.8,1.8  c-0.1,3.2,0.6,5,1.6,4C2638.7,2231.5,2638.8,2228.8,2637.9,2226.6L2637.9,2226.6z M2653.1,2222.7c-1-2.6-3.6-4.6-5.7-4.5  c-3.1,0.2-3.1,0.6-0.1,1.8c2.1,0.8,3.8,3.7,3.8,6.4c0,2.7,0.9,4,1.9,2.9C2654.1,2228.3,2654.1,2225.3,2653.1,2222.7L2653.1,2222.7z   M2069,2216.3c1-5,0.5-5.2-3.8-1.7c-5.9,4.9-6.6,10.5-1.1,8.7C2066.2,2222.7,2068.4,2219.5,2069,2216.3L2069,2216.3z M2115.4,2216.3  c0-2.6-1.4-3.9-3.1-2.9c-1.7,1-3.1,3.2-3.1,4.8c0,1.6,1.4,2.9,3.1,2.9C2114,2221.1,2115.4,2218.9,2115.4,2216.3z M1991.2,2210.8  c2.5-4,2.2-6-1.3-8.1c-6.1-3.8-13.2,3.2-10.4,10.3C1981.8,2219.1,1986.5,2218.3,1991.2,2210.8z M1982.6,2212.8  c-3.4-3.4-2.1-7.1,2.6-7.1c2.5,0,4.6,1.3,4.6,2.9C1989.9,2212.5,1985.1,2215.3,1982.6,2212.8z M2229.8,2208.8c2.1,0,5.4,1.7,7.4,3.7  c2.9,2.9,3.7,2.3,3.7-2.5c0-5.2-1.6-6-9.2-4.9c-7.1,1-9.1,2.9-8.8,7.9c0.3,5.2,0.6,5.4,1.8,1.2  C2225.4,2211.2,2227.7,2208.8,2229.8,2208.8L2229.8,2208.8z M2542.4,2198.4c-2.7-9.4-6.3-17.2-7.8-17.2c-3.9,0-3.6,3.5,1.3,15.7  c2.3,5.7,5.1,12.9,6.2,16.1s2.8,5.1,3.7,4.2C2546.6,2216.3,2545.1,2207.9,2542.4,2198.4L2542.4,2198.4z M2580.7,2197.4  c-3.3-5.2-3.4-5.2-1.7,0.2c1,3.1,1.9,7.9,2.1,10.7c0.3,4.6,0.5,4.6,1.7-0.2C2583.5,2205.2,2582.6,2200.4,2580.7,2197.4z   M2626.5,2196.6c1.4,0,1.8,3.1,0.9,6.9c-1.6,6.7-1.5,6.7,3,0.9c4.2-5.5,4-7-2.7-16.8c-4-5.9-7.3-13-7.3-15.7c0-6.5-2.7-8.9-8-6.9  c-2.5,0.9-4.3,5.9-4.3,11.7c0,7.5,1.6,10.4,6.1,11.6c4.5,1.2,6.2,4.4,6.5,11.8c0.3,7.2,0.8,8.2,1.7,3.3  C2623.4,2199.7,2625.1,2196.6,2626.5,2196.6z M2605.6,2198.8c-3-3-3.4-2.6-1.7,1.7c1.1,3,2.9,4.7,3.8,3.8  C2608.6,2203.4,2607.7,2200.9,2605.6,2198.8L2605.6,2198.8z M2118.4,2194.9c0-2.6-1.4-3.9-3.1-2.9c-1.7,1-3.1,3.2-3.1,4.8  c0,1.6,1.4,2.9,3.1,2.9C2117.1,2199.6,2118.4,2197.5,2118.4,2194.9z M1961.4,2185.1c-0.8-3-1.5-1.3-1.5,3.8  c-0.1,5.1,0.6,7.5,1.4,5.4C1962.1,2192.3,1962.1,2188.1,1961.4,2185.1L1961.4,2185.1z M2081.6,2183.4c-0.1-6.5-0.2-6.5-4.5-0.9  c-2.4,3.2-3.7,7-2.8,8.5C2077.1,2195.4,2081.7,2190.5,2081.6,2183.4L2081.6,2183.4z M2588.3,2190.4c-1-1.7-3.5-3-5.5-3  c-2.2,0-1.8,1.2,0.9,3C2589.6,2194.2,2590.7,2194.2,2588.3,2190.4z M2479.6,2182c-0.1-11.5-7.4-35.2-10-32.5  c-3.3,3.3-2.6,25,0.9,27.2c1.7,1,3.1,4.6,3.1,7.8s1.4,5.9,3.1,5.9C2478.3,2190.4,2479.6,2186.7,2479.6,2182L2479.6,2182z   M2602.5,2180.4c-3-3-3.4-2.6-1.7,1.7c1.1,3,2.9,4.7,3.8,3.8C2605.5,2185,2604.6,2182.5,2602.5,2180.4L2602.5,2180.4z M2648,2169.2  c0-11.1-4.2-18.5-8.2-14.5c-2.6,2.6,2.3,26.5,5.4,26.5C2646.8,2181.3,2648,2175.8,2648,2169.2L2648,2169.2z M2642.4,2162.9  c0-4.2,0.7-5.9,1.5-3.8c0.8,2.1,0.8,5.5,0,7.7C2643.1,2168.8,2642.4,2167.1,2642.4,2162.9z M2143.3,2147c4.6-46.1,6.9-193.4,3-191  c-2.1,1.3-3.4-0.7-3.5-5c-0.1-4-3.6-9.6-8.1-12.9l-8-5.8l7.2,9.8c5.9,8,6.6,10.8,3.6,15.5c-2.8,4.5-2.7,6.5,0.9,9.4  c5.4,4.5,5.9,15.2,0.8,15.2c-2.9,0-2.9,0.8,0,3.7c2.3,2.3,3.7,13.9,3.7,31.1c0,15.1-0.9,26.6-2,25.5c-5.2-5.2-9.4,9.2-7.9,27.5  c1,12.5,0.3,20.8-2.1,23.7c-2.5,3-2.6,5-0.4,6.4c1.8,1.1,3.2,6,3.2,10.8c0,4.9,1.4,9.7,3.1,10.7c2,1.3,2,3.9-0.1,7.8  c-2.4,4.4-2.2,5.9,0.8,6c2.8,0,2.6,0.9-0.7,3c-3.1,2-3.3,3-0.8,3c4.6,0.1,5.4,23.2,0.9,26c-1.6,1-2.1,3.9-1.2,6.4  C2138.8,2181.8,2140.4,2176.4,2143.3,2147L2143.3,2147z M2137.1,2084.1c0.2-6.3,1.3-14.9,2.5-19.1c1.5-5.1,2.2-1.2,2,11.5  c-0.1,10.5-1.3,19.1-2.5,19.1C2137.8,2095.5,2136.9,2090.4,2137.1,2084.1z M2498,2169c0-3.2-1.2-6.5-2.7-7.5  c-3.6-2.2-6.7,6.2-4.5,12C2493.1,2179.5,2498,2176.4,2498,2169z M2586.8,2167.8c0-1.9-3.1-5.4-6.9-7.7c-6.8-4.2-6.8-4.1-1.3,2  c3.6,4.1,4.4,7,2.3,8.3c-1.8,1.1-3.3,3.5-3.3,5.3c0,2.1,1.7,1.8,4.6-0.6C2584.7,2173,2586.8,2169.8,2586.8,2167.8L2586.8,2167.8z   M2604.3,2164c-0.8-4.1-0.2-8.1,1.2-9c4.7-2.9,2.8-8.9-4.2-13.2c-6.7-4.1-6.7-4.1-1.5,1.8c3,3.3,4.5,6.9,3.5,7.9  c-2.9,2.9-3.1,23.3-0.2,21.5C2604.6,2172.1,2605.1,2168,2604.3,2164L2604.3,2164z M2625.3,2159.1c-2.3-11.3-3.6-13.8-4.2-8.2  c-0.8,7,3.7,24.3,6.4,24.3C2628.1,2175.1,2627.1,2167.9,2625.3,2159.1z M1971.5,2168.8c0-1.8-1.4-2.4-3.1-1.4  c-1.7,1-3.1,0.2-3.1-1.9s-0.8-2.9-1.8-1.9c-2.4,2.4,1.3,8.4,5.1,8.4C1970.2,2172.1,1971.5,2170.6,1971.5,2168.8L1971.5,2168.8z   M1971.5,2153.4c0-4.4-5.3-3.1-7.2,1.7c-1.1,3-0.2,3.9,2.7,2.7C1969.5,2156.9,1971.5,2154.9,1971.5,2153.4L1971.5,2153.4z   M2589.3,2147c2-2,3.6-5.1,3.6-6.9c-0.1-1.8-1.5-0.7-3.3,2.3c-2.6,4.4-4.1,4.8-7.6,1.9c-3.6-3-4.1-2.7-2.5,1.4  C2581.7,2151.6,2584.3,2151.9,2589.3,2147z M2093.9,2139.8c0-2.4-1.4-4.4-3.1-4.4c-1.7,0-3.1,2.8-3.1,6.3s1.4,5.5,3.1,4.4  C2092.6,2145,2093.9,2142.2,2093.9,2139.8z M2524.2,2133.5c-1.1-6.1-3.6-14.7-5.4-19.1c-5.2-12.6-6.9,0.1-2.3,16.8  C2521.1,2147.4,2527.2,2149.3,2524.2,2133.5L2524.2,2133.5z M2553.9,2142.5c-5.8-2.4-4.6-6.2,2.6-8.1c5.5-1.4,5.8-2.4,2.3-6.2  c-2.3-2.5-5.3-3.8-6.6-3c-1.4,0.8-3.3-1.6-4.3-5.5c-1.7-6.6-2-6.7-4.2-1.1c-1.8,4.7-2.5,3.6-2.9-4.8c-0.3-5.9-0.3-12.1,0-13.7  c0.3-1.6-0.4-15.9-1.5-31.6c-1.9-24.7-2.6-27.6-5.8-21.5c-2,3.9-2.5,7.6-1.2,8.1c3.8,1.6,2.9,11-1.4,15.7c-3,3.2-3,3.7,0,2  c2.8-1.6,3.5,0.6,2.8,8c-0.6,6.8-2.4,9.8-5.2,9.1c-2.9-0.7-2.4,1.1,1.6,5.5c3.7,4.1,4.7,7.3,2.8,8.6c-1.7,1.2-2.8,6.2-2.4,11.3  c0.4,5.1,0.8,12.3,1,16.1c0.2,5.2,2.1,6.9,7.7,6.9c4.1,0,8.3,1.4,9.4,3.1c1,1.7,3.5,3,5.5,2.8  C2556.7,2144.1,2556.7,2143.6,2553.9,2142.5L2553.9,2142.5z M2537.8,2130.7c0-2.5,1.4-4.6,3.1-4.6c1.7,0,3.1,2.1,3.1,4.6  s-1.4,4.6-3.1,4.6C2539.2,2135.3,2537.8,2133.3,2537.8,2130.7z M2622,2135.3c1.1-1.7,3.4-2.2,5.2-1.1c1.9,1.2,2.6,0.2,1.7-2.2  c-0.8-2.3-3.1-3.9-5-3.5c-1.9,0.4-3.4-0.6-3.4-2.3c0-1.7-1.4-3.1-3.1-3.1c-1.7,0-3.1,3.4-3.1,7.7  C2614.4,2138.5,2618.5,2141,2622,2135.3L2622,2135.3z M2642.5,2122.5c-4.7-4.7-6.3,1.3-2.8,9.8l3.2,7.7l1.3-7.2  C2644.9,2128.7,2644.2,2124.1,2642.5,2122.5L2642.5,2122.5z M1985.8,2128.6c-1-2.4-1.7-1.7-1.8,1.8c-0.1,3.2,0.6,5,1.6,4  C1986.6,2133.5,1986.7,2130.9,1985.8,2128.6L1985.8,2128.6z M2114.4,2128.6c-1-2.4-1.7-1.7-1.8,1.8c-0.1,3.2,0.6,5,1.6,4  C2115.2,2133.5,2115.3,2130.9,2114.4,2128.6L2114.4,2128.6z M2572.7,2132.8c0.9-1.4-0.4-2.6-2.7-2.6s-3.6,1.1-2.7,2.6  s2.1,2.6,2.7,2.6C2570.6,2135.3,2571.9,2134.2,2572.7,2132.8z M2582.8,2128.6c-1-2.4-1.7-1.7-1.8,1.8c-0.1,3.2,0.6,5,1.6,4  C2583.6,2133.5,2583.7,2130.9,2582.8,2128.6L2582.8,2128.6z M1975.3,2124.7c0.8-4.2,0.3-6.8-1.2-5.9c-1.4,0.9-2.6-1.1-2.6-4.4  c0-3.3,1.4-6.7,3.1-7.6s1.4-1.2-0.8-0.8c-2.2,0.4-4.3,6.3-4.8,13.5C1968,2133.2,1972.9,2137.3,1975.3,2124.7L1975.3,2124.7z   M2605.6,2125.3c-3-3-3.4-2.6-1.7,1.7c1.1,3,2.9,4.7,3.8,3.8C2608.6,2129.9,2607.7,2127.4,2605.6,2125.3L2605.6,2125.3z   M2478.8,2108.6c-0.7-4.7-1.3-1.6-1.3,6.8c0,8.4,0.6,12.2,1.3,8.5C2479.5,2120.1,2479.5,2113.2,2478.8,2108.6L2478.8,2108.6z   M2585.3,2115.1c-3.4-2.6-5.8-6-5.4-7.6c0.4-1.6-0.5-2.8-2.1-2.8s-2.7,2.7-2.4,5.9c0.2,3.3,1.3,5.4,2.3,4.8c1-0.6,3.8,0.1,6.3,1.7  C2591,2121.6,2592,2120.3,2585.3,2115.1z M2616.4,2101.7c1.4-3.7,2.3-3.4,4.5,1.5c2,4.3,2.4,1.6,1.4-9.2  c-1.2-13.5-10.9-39.9-11-29.8c0,2.1,1.6,6.4,3.5,9.5c2.8,4.5,2.5,7.2-1.5,12.9c-5.2,7.4-6.9,27.5-2.8,31.7c1.3,1.3,2.7-0.9,3.2-4.8  C2614.3,2109.5,2615.4,2104.2,2616.4,2101.7z M2100.1,2110.7c0-1.6-1.4-2.9-3.1-2.9c-1.7,0-3.1,2.1-3.1,4.8s1.4,3.9,3.1,2.9  S2100.1,2112.3,2100.1,2110.7z M2500.1,2107c-0.8-2.1-1.5-0.4-1.5,3.8c0,4.2,0.7,5.9,1.5,3.8  C2500.9,2112.6,2500.9,2109.1,2500.1,2107z M2602.5,2107c-3-3-3.4-2.6-1.7,1.7c1.1,3,2.9,4.7,3.8,3.8  C2605.5,2111.5,2604.6,2109,2602.5,2107z M2640.1,2099.1c-3-17.2-7.4-19-7.4-3.2c0,14.3,1.9,19,6.6,16.1  C2640.9,2111.1,2641.2,2105.3,2640.1,2099.1L2640.1,2099.1z M2121.4,2076.4c0-17.4-1-23.8-3-20.7c-5.3,8.2-3.6,45.9,2,45.9  C2121,2101.7,2121.5,2090.3,2121.4,2076.4L2121.4,2076.4z M2516.4,2095.5c0-6-3.2-8-6.9-4.3c-2.5,2.5,0.8,10.4,4.2,10.4  C2515.2,2101.7,2516.4,2098.9,2516.4,2095.5L2516.4,2095.5z M2583,2096.2c-2.9-0.6-5.4-2.3-5.4-3.9s-1.6-2.8-3.5-2.8  c-2,0-1.2,2.6,1.9,6.1c3,3.3,7,5.1,8.9,3.9C2587.1,2098,2586.4,2096.8,2583,2096.2L2583,2096.2z M2604.6,2087.8  c-0.2-5.8-1-10-1.7-9.3c-2.3,2.3-2.4,22.7-0.1,21.3C2604,2099,2604.8,2093.6,2604.6,2087.8L2604.6,2087.8z M2103.1,2095.5  c0-1.7-1.4-3.1-3.1-3.1c-1.7,0-3.1,1.4-3.1,3.1c0,1.7,1.4,3.1,3.1,3.1C2101.7,2098.6,2103.1,2097.2,2103.1,2095.5z M2570.7,2096.8  c-1-1-3.7-1.1-5.9-0.2c-2.4,1-1.7,1.7,1.8,1.8C2569.9,2098.5,2571.7,2097.8,2570.7,2096.8L2570.7,2096.8z M2478.8,2051.8  c-0.6-7.1-1.2-0.5-1.2,14.6c0,15.2,0.5,21,1.2,12.9C2479.5,2071.3,2479.5,2058.9,2478.8,2051.8L2478.8,2051.8z M2473.5,2068  c0-12.2-1.3-21.4-3.1-21.4s-3.1,9.2-3.1,21.4s1.3,21.4,3.1,21.4S2473.5,2080.2,2473.5,2068z M2514.3,2067.2  c-2.4-4.1-6.6,0.6-5.5,6.2c1.7,8.6,1.8,8.7,4.4,2.3C2514.5,2072.3,2515,2068.5,2514.3,2067.2z M2587.9,2074.5c2.8-2.3,5-5.8,5-7.7  c-0.1-1.9-1.5-1-3.2,2c-4.9,8.4-8.5,3.5-6.8-9.4c1.2-8.9,0.3-12.6-4.1-15.9c-4.8-3.6-5.1-3.7-1.8,0c10.1,11.4-0.6,30.8-17.3,31.3  c-12.9,0.4-14.7-2.3-8.6-12.7c5.9-10,6.6-13.7,2.1-10.9c-1.7,1-4.3-1.2-5.7-5.1c-2.2-6.1-2.9-5.1-4.7,6.9  c-3.5,23.1-0.7,25.7,27.5,25.7C2577.2,2078.7,2585.1,2076.8,2587.9,2074.5L2587.9,2074.5z M2602.5,2070c-1.9-2.3-2.4-5.2-1.1-6.6  c1.2-1.4,0.5-1.5-1.7-0.2c-3.1,1.8-3.2,3.3-0.4,6.6c2,2.4,4.3,4.3,5.1,4.3C2605.2,2074.1,2604.4,2072.3,2602.5,2070L2602.5,2070z   M2506.2,2055.2c-1-2.4-1.7-1.7-1.8,1.8c-0.1,3.2,0.6,5,1.6,4C2507,2060,2507.1,2057.4,2506.2,2055.2L2506.2,2055.2z M2563.9,2056.3  c-0.9-0.9-3.4,0-5.5,2.1c-3,3-2.6,3.4,1.7,1.7C2563.2,2059,2564.9,2057.3,2563.9,2056.3z M2103.1,2051.2c0-4.2-1.4-7.7-3.1-7.7  c-1.7,0-3.1,3.4-3.1,7.7c0,4.2,1.4,7.7,3.1,7.7C2101.7,2058.8,2103.1,2055.4,2103.1,2051.2z M2516.4,2034.3c0-8.4-1.4-15.3-3.1-15.3  c-3.3,0-4.2,18-1.2,25.8C2515.3,2053,2516.4,2050.2,2516.4,2034.3L2516.4,2034.3z M2535.1,2028.6c3.2-4.1,5.8-9.3,5.8-11.6  c0-2.3,1.4-4.2,3.1-4.2c1.7,0,3.1-2.2,3.1-4.9c0-3.4,1.9-4.5,5.9-3.4c4.1,1.1,5.4,0.3,4.3-2.7c-0.9-2.3-2.9-3.4-4.5-2.5  c-4.6,2.8-11.8-5-11.8-12.8c0-4.9-1.4-6.7-4.3-5.5c-4.5,1.7-8.4,31.8-4.1,31.8c1.3,0,2.3,2.1,2.3,4.6c0,6.2-5.1,5.8-8.9-0.8  c-1.7-2.9-3.2-3.7-3.2-1.7c-0.1,2,1.4,4.5,3.1,5.6c1.8,1.1,2.6,7.7,1.9,14.7c-0.7,7-0.6,10,0.2,6.7  C2528.6,2038.8,2531.9,2032.7,2535.1,2028.6L2535.1,2028.6z M2557.1,2031.3c0.9-3.4,0.4-5.4-1.2-4.4c-1.5,0.9-2.8,3.7-2.8,6.1  C2553.1,2039.3,2555.2,2038.4,2557.1,2031.3z M2500.1,2024.6c-1-2.4-1.7-1.7-1.8,1.8c-0.1,3.2,0.6,5,1.6,4  C2500.9,2029.4,2501,2026.8,2500.1,2024.6L2500.1,2024.6z M2103.1,2015.9c0-3.2-1.2-6.5-2.7-7.4c-3.1-1.9-7,10.2-4.6,14.1  C2098.3,2026.7,2103.1,2022.3,2103.1,2015.9z M2114.4,2013.7c-0.8-3-1.5-1.3-1.5,3.8c-0.1,5.1,0.6,7.5,1.4,5.4  C2115.2,2020.8,2115.2,2016.7,2114.4,2013.7L2114.4,2013.7z M2086.7,2003.8c-0.8-21.2-5.1-29-5-9.1c0,12.7,2.5,27.3,4.7,27.3  C2087,2022.1,2087.1,2013.9,2086.7,2003.8L2086.7,2003.8z M2478.6,2009.1c-0.8-2.1-1.5-0.4-1.5,3.8s0.7,5.9,1.5,3.8  C2479.5,2014.6,2479.5,2011.2,2478.6,2009.1z M2579.9,2004.9c-1-1-3.7-1.1-5.9-0.2c-2.4,1-1.7,1.7,1.8,1.8  C2579.1,2006.7,2580.9,2005.9,2579.9,2004.9L2579.9,2004.9z M2609.3,1994.6c-0.6-11.6-7.2-20.7-7.2-9.9c0,3.7,1.4,6.7,3.1,6.7  c4,0,4,11.3-0.1,13.3c-1.7,0.9-1.4,1.2,0.8,0.7C2608.2,2004.9,2609.6,2000.5,2609.3,1994.6L2609.3,1994.6z M2009.8,2000.6  c1-1.7,0.4-3.1-1.3-3.1s-3.2,1.4-3.2,3.1s0.6,3.1,1.3,3.1C2007.3,2003.7,2008.7,2002.3,2009.8,2000.6z M2594.6,2000.4  c3.1-5.1,0.3-5.8-4.1-1c-2.2,2.4-2.6,4.3-0.9,4.3C2591.2,2003.7,2593.5,2002.2,2594.6,2000.4z M2512.4,1990.9  c-1-2.4-1.7-1.7-1.8,1.8c-0.1,3.2,0.6,5,1.6,4C2513.1,1995.7,2513.3,1993.1,2512.4,1990.9L2512.4,1990.9z M2589.9,1996.4  c0-0.6-2.4-3-5.4-5.4c-4.9-3.8-5-3.7-1.2,1.2C2587.4,1997.3,2589.9,1998.9,2589.9,1996.4z M2565.4,1982.8c0.8-0.9-0.9-0.7-3.8,0.4  c-4,1.4-5.4,0.2-5.6-4.9c-0.1-4.2-0.9-5.1-1.9-2.5c-1.2,2.9-2.9,1.5-5.6-4.6c-3.9-8.7-3.9-8.6-4.2,6.9l-0.2,15.8l9.9-4.8  C2559.4,1986.6,2564.5,1983.7,2565.4,1982.8L2565.4,1982.8z M2001.1,1976.9c-0.8-2.9-1.4-0.5-1.4,5.4s0.6,8.3,1.4,5.4  S2001.9,1979.9,2001.1,1976.9z M2474.4,1955.1l-4.2-11.1l1.6,12.2c0.9,6.7,1.8,17.8,2.1,24.5l0.4,12.2l2.2-13.4  C2477.9,1970.7,2477.2,1962.4,2474.4,1955.1z M2576.4,1988.8c-0.9-1.4,0.4-5.2,2.8-8.4c6-7.9,6.2-15.5,0.2-10.6  c-3.4,2.8-5,2.4-7.6-1.9c-1.8-3-3.3-3.9-3.3-1.9s1.2,4.4,2.8,5.4c3.8,2.4,2.8,13.9-1.2,13.9c-1.7,0-1.1,1.4,1.4,3  C2577.2,1992.1,2578.4,1992.2,2576.4,1988.8L2576.4,1988.8z M2115.2,1975.2c-0.2-6.5-0.3-6.5-2.8-0.6c-3.6,8.4-3.6,11.4,0,9.2  C2114,1982.8,2115.3,1978.9,2115.2,1975.2z M2608.2,1968.5c0-4.2-1.4-7.7-3.1-7.7c-1.7,0-3.1,3.4-3.1,7.7c0,4.2,1.4,7.7,3.1,7.7  S2608.2,1972.7,2608.2,1968.5z M2534.7,1925.6l0-36.8h-30.6h-30.6v23.6c0,14.5,1.4,24.4,3.5,25.8c2.2,1.4,2.7,0.8,1.2-1.5  c-1.3-2-1.3-11.9-0.2-21.9l2.1-18.2h24.5h24.5l-0.8,28.3c-1.1,39.8-0.5,47.8,3.2,42.1C2533.3,1964.4,2534.7,1945.8,2534.7,1925.6  L2534.7,1925.6z M2557.1,1957.8c0.9-3.4,0.4-5.4-1.2-4.4c-1.5,0.9-2.8,3.7-2.8,6.1C2553.1,1965.8,2555.2,1964.9,2557.1,1957.8z   M2085.8,1953.1c-0.9-2.5-0.7-6.9,0.5-9.9c1.2-2.9,2-13.3,1.6-23l-0.6-17.6h10.8c5.9,0,11.6-1.4,12.6-3.1c3.3-5.3,25.1-3.7,27.3,2  c2.7,7.1-0.6,15.8-6.8,17.4c-4,1.1-3.7,1.5,1.2,1.7c4.4,0.2,7.6,3.6,9.9,10.3l3.5,9.9l-1.5-10.3c-0.8-5.7-1.5-17-1.5-25.3v-14.9  h-15.1c-8.3,0-16,1.4-17,3.1c-1,1.7-4.8,3.1-8.4,3.1c-5.1,0-5.7-0.8-2.9-3.7c6.9-6.9,4.1-11.6-7.1-11.6h-10.7l0.3,39.8  c0.2,21.9,1.5,39.1,2.9,38.2S2086.8,1955.6,2085.8,1953.1L2085.8,1953.1z M2573,1951.7c-1-1.7-4.2-3-7.1-2.8c-4.2,0.2-4,0.7,0.9,2.8  C2575.1,1955.2,2575.2,1955.2,2573,1951.7z M2609.5,1949.7c1.1-2.8,1.2-5.8,0.3-6.6s-1.6,0.1-1.6,2.1c0,2.1-1.4,2.9-3.1,1.9  c-1.7-1-3.1,0.3-3.1,2.9C2602.1,1956.2,2607.1,1956.1,2609.5,1949.7L2609.5,1949.7z M2586.7,1940.9c0-1.7-1.3-1-3,1.5  c-1.6,2.5-3,6-3,7.7s1.3,1,3-1.5C2585.4,1946.1,2586.7,1942.6,2586.7,1940.9z M2001.1,1927.9c-0.8-2.9-1.4-0.5-1.4,5.4  s0.6,8.3,1.4,5.4S2001.9,1930.9,2001.1,1927.9L2001.1,1927.9z M2608.7,1928.5c-1.3-5-3.7-8.7-5.3-8.3c-4.1,1.1-3.5,5.7,1.6,12.8  C2610.7,1941,2611.7,1939.8,2608.7,1928.5L2608.7,1928.5z M2573.5,1928.7c0-1.7-4.9-2.8-11-2.5c-16.2,0.8-17.6,1.2-11.9,3.5  C2558.6,1932.8,2573.5,1932.2,2573.5,1928.7z M2550.8,1915.5c4.8-8.1,4.7-8.8-0.8-12.2c-8.6-5.3-9-4.9-9,8.6  C2540.9,1926.3,2543.8,1927.3,2550.8,1915.5z M2584.2,1911.9c0.3-3.4,0.6-7.8,0.8-9.9c0.2-2.1-2.2-3.8-5.2-3.8c-3,0-6.8-2.1-8.4-4.6  c-1.7-2.7-2.9-3.1-3-0.9c0,2,1.4,4.6,3.2,5.7s2.6,3.8,1.8,5.9c-0.8,2.2,0.1,5.5,2.1,7.5c2.8,2.8,2.2,3.1-2.5,1.6  c-5-1.6-5.2-1.4-1.5,1.3C2578.6,1919.7,2583.7,1918.6,2584.2,1911.9L2584.2,1911.9z M2563.9,1909.4c-0.9-0.9-3.4,0-5.5,2.1  c-3,3-2.6,3.4,1.7,1.7C2563.2,1912,2564.9,1910.3,2563.9,1909.4z M2011.3,1892.1c0-9.2-1.4-17.5-3.1-18.5c-1.9-1.2-3.1,5.1-3.1,16.7  c0,10.3,1.4,18.5,3.1,18.5C2009.9,1908.8,2011.3,1901.3,2011.3,1892.1z M2270.4,1892c1-2.6,5.6-4.6,10.6-4.6c8,0,8.9-1,8.9-10.4  c0-7.8-1.5-10.8-6.1-12c-3.4-0.9-6.1-3.1-6.1-4.9c0-1.8,2.8-3.3,6.1-3.3c4,0,6.1-2,6.1-5.9c0-11.2-3-14.5-11.9-13.2  c-5.1,0.7-10.5-0.6-13.3-3.5c-2.6-2.6-11.9-5.7-20.6-6.8l-15.9-2.1l1,12.9l1,12.9l-62-0.3l-62-0.3v12v12l29.8,1.4  c17.2,0.8,30.7,0.1,31.8-1.6c1.1-1.6,3.5-2,5.4-0.8c1.9,1.2,3.4,0.1,3.4-2.7c0-5.3-3.3-6.2-7.8-2.2c-1.6,1.4-14.6,1.8-28.9,0.8  c-20.3-1.4-26-2.9-26-6.4c0-3.9,9.1-4.7,60.3-5.4c59.7-0.8,60.3-0.9,61.2-7.7c0.7-4.9,2.7-6.5,7.1-5.8c3.4,0.6,9.6,1.4,13.8,1.8  c9.7,1,12.5,11,3.1,11c-3.6,0-9.4,1.5-12.9,3.4c-6,3.2-5.8,3.7,4.7,8.4l11,5l-5.7,7.5c-4.4,5.7-6.7,6.7-9.9,4.2  c-2.3-1.8-8.9-4.2-14.8-5.2c-9.8-1.7-10-1.6-3.1,1.5c4.6,2,6.1,4,3.8,4.9c-7.6,2.8-3.6,6.9,5,5.1c5-1,9.7-0.3,10.9,1.6  C2251.5,1898.2,2268.3,1897.3,2270.4,1892L2270.4,1892z M2277.6,1878.2c0-1.7,1.5-3.1,3.2-3.1c1.8,0,2.4,1.4,1.4,3.1  s-2.5,3.1-3.2,3.1C2278.2,1881.2,2277.6,1879.9,2277.6,1878.2z M2254.7,1865.9c-1-1.7-0.4-3.1,1.4-3.1c1.8,0,3.2,1.4,3.2,3.1  s-0.6,3.1-1.3,3.1C2257.2,1869,2255.7,1867.6,2254.7,1865.9z M2270,1865.9c1-1.7,2.5-3.1,3.2-3.1c0.7,0,1.3,1.4,1.3,3.1  s-1.5,3.1-3.2,3.1C2269.5,1869,2268.9,1867.6,2270,1865.9z M2045,1890.9c0-4-3.6-6.6-6.6-4.8c-3.2,2-0.4,7.4,3.7,7.4  C2043.7,1893.5,2045,1892.3,2045,1890.9z M2557.1,1884.3c0.9-3.4,0.4-5.4-1.2-4.4c-1.5,0.9-2.8,3.7-2.8,6.1  C2553.1,1892.4,2555.2,1891.5,2557.1,1884.3z M2173.5,1886.2c0-0.6-2.8-1.9-6.1-2.8c-3.4-0.9-5.4-0.4-4.4,1.2  C2164.6,1887.3,2173.5,1888.6,2173.5,1886.2L2173.5,1886.2z M2190.4,1884.6c5.2-2,4.7-2.6-3.8-3.8c-9.5-1.4-12.3,0.2-7.9,4.6  C2181.1,1887.8,2182.4,1887.7,2190.4,1884.6L2190.4,1884.6z M2214.9,1881.2c-8.4-3.6-13.2-3.6-7.7,0c2.5,1.6,6.7,2.9,9.2,2.8  C2219.4,1883.9,2218.9,1883,2214.9,1881.2z M2573,1878.2c-1-1.7-4.2-3-7.1-2.8c-4.2,0.2-4,0.7,0.9,2.8  C2575.1,1881.7,2575.2,1881.7,2573,1878.2z M2585.8,1871.3c-0.8-2.1-1.5-0.4-1.5,3.8c0,4.2,0.7,5.9,1.5,3.8  C2586.6,1876.8,2586.6,1873.4,2585.8,1871.3z M2573.5,1855.2c0-1.7-4.9-2.8-11-2.5c-16.2,0.8-17.6,1.2-11.9,3.5  C2558.6,1859.3,2573.5,1858.7,2573.5,1855.2z M2585.6,1838.4c-0.2-8.4-1.3-15.3-2.6-15.3c-1.3,0-2.4,2.4-2.5,5.3  c-0.2,4.2-0.6,4.4-2,0.8c-2.4-6.2-10-13.5-10-9.6c0,1.7,1.3,3.9,2.9,4.9c3.8,2.4,2.8,13.9-1.2,13.9c-1.7,0-1.2,1.3,1.3,2.9  c2.4,1.5,5.6,2.1,7.1,1.2c1.5-0.9,3.4,1.3,4.3,4.8C2585.3,1857,2585.9,1855.2,2585.6,1838.4L2585.6,1838.4z M2550.9,1841.7  c5.9-9.9,6.7-13.8,2.4-11.1c-1.6,1-3.7,0.4-4.8-1.3c-4.2-6.7-7.7-2.5-7.7,9.1C2540.9,1852.9,2543.8,1853.9,2550.9,1841.7z   M2596,1847.6c0-1.7-1.4-3.1-3.1-3.1s-3.1,1.4-3.1,3.1s1.4,3.1,3.1,3.1C2594.6,1850.6,2596,1849.3,2596,1847.6z M2028.1,1824.6  c0-14-1.3-21.3-3.8-22.2c-2.8-0.9-3.8,4.8-3.8,22.2s1,23.1,3.8,22.2C2026.9,1846,2028.1,1838.6,2028.1,1824.6z M2563.9,1835.9  c-0.9-0.9-3.4,0-5.5,2.1c-3,3-2.6,3.4,1.7,1.7C2563.2,1838.6,2564.9,1836.9,2563.9,1835.9z M2557.1,1810.8c0.9-3.4,0.4-5.4-1.2-4.4  c-1.5,0.9-2.8,3.7-2.8,6.1C2553.1,1818.9,2555.2,1818,2557.1,1810.8z M2608.2,1806.4c0-2.4-1.4-5.3-3.1-6.3c-1.7-1-3.1,0.9-3.1,4.4  c0,3.5,1.4,6.3,3.1,6.3C2606.9,1810.8,2608.2,1808.9,2608.2,1806.4z M2573,1804.7c-1-1.7-4.2-3-7.1-2.8c-4.2,0.2-4,0.7,0.9,2.8  C2575.1,1808.2,2575.2,1808.2,2573,1804.7z M2011.3,1789.2c0-5.5-1.3-8.6-3.1-7.5c-1.7,1-3.1,5.3-3.1,9.4c0,4.1,1.4,7.5,3.1,7.5  C2009.9,1798.6,2011.3,1794.4,2011.3,1789.2L2011.3,1789.2z M2589.8,1794.1c2-2.4,3.2-6.8,2.7-9.7c-1.4-7.3-8.6-9.1-8.9-2.2  c-0.2,4.8-0.5,4.9-2.3,0.7c-1.2-2.9-4.6-4.4-8.2-3.8c-3.4,0.6-10.7,1.3-16.3,1.4c-5.6,0.1-9.4,1-8.4,2c0.9,0.9,6.6,1.5,12.6,1.3  c7-0.3,11.5,1.2,12.6,4.1c0.9,2.5,3,3.7,4.5,2.8c1.5-0.9,2.7,0.5,2.7,3.1C2580.7,1799.8,2584.9,1800,2589.8,1794.1L2589.8,1794.1z   M2606.3,1784.7c-0.9-2.5-2.9-3.8-4.3-2.9s-1.8,3.6-0.9,6.1c0.9,2.5,2.9,3.8,4.3,2.9S2607.2,1787.2,2606.3,1784.7z M2550.9,1768.3  c5.9-9.9,6.7-13.8,2.4-11.1c-1.6,1-3.7,0.4-4.8-1.3c-4.2-6.7-7.7-2.5-7.7,9.1C2540.9,1779.4,2543.8,1780.4,2550.9,1768.3z   M2576.1,1768c-1-1.7-3.5-3-5.5-3c-2.2,0-1.8,1.2,0.9,3C2577.4,1771.8,2578.4,1771.8,2576.1,1768z M2601.8,1759.5  c-1.8-4.6-3.8-13.5-4.6-19.8c-0.8-6.3-4.8-16.5-8.9-22.6s-7.5-12.4-7.5-13.9s-1.5-1.9-3.2-0.8c-2.1,1.3-1.7,4.4,1.5,9.2  c4.7,7.2,14.9,35.6,18.4,51.3c1,4.7,3.2,7.7,4.8,6.8C2603.8,1768.5,2603.7,1764.5,2601.8,1759.5z M2590.1,1729.5  c0.1-3.6,0.9-4.3,1.8-1.8c0.9,2.2,0.8,4.9-0.2,5.9C2590.7,1734.5,2590,1732.7,2590.1,1729.5L2590.1,1729.5z M2563.9,1762.4  c-0.9-0.9-3.4,0-5.5,2.1c-3,3-2.6,3.4,1.7,1.7C2563.2,1765.1,2564.9,1763.4,2563.9,1762.4z M2045,1752.7c0-1.7-0.6-3.1-1.3-3.1  c-0.7,0-2.2,1.4-3.2,3.1c-1,1.7-0.4,3.1,1.3,3.1C2043.5,1755.7,2045,1754.4,2045,1752.7z M2572.6,1748c-1-2.6-2.5-4.1-3.3-3.3  c-0.8,0.8-0.6,2.9,0.6,4.7C2572.9,1754.3,2574.6,1753.3,2572.6,1748L2572.6,1748z M2555.2,1736.8c-1-2.4-1.7-1.7-1.8,1.8  c-0.1,3.2,0.6,5,1.6,4C2556,1741.6,2556.1,1739,2555.2,1736.8L2555.2,1736.8z M2045,1732.2c0-6.2-0.9-7.4-3.5-4.8  c-1.9,1.9-2.6,5.6-1.6,8.3C2042.7,1742.9,2045,1741.4,2045,1732.2L2045,1732.2z M2556.1,1710.5c0.1-8.6-8.3-22.1-13.9-22.1  c-2.2,0-5.3-2.2-6.9-5c-2.3-4.1-3.8-4.3-8.6-1.3c-4.9,3.1-4.9,3.4-0.4,2c3.4-1.1,5.4,0,5.4,2.8c0,2.5-2.1,4.5-4.6,4.5  c-2.9,0-4.6,2.9-4.6,7.7c0,6.1,1.5,7.7,7.7,7.7c5.6,0,7.7-1.6,7.7-6c0-4.1,1.5-5.5,4.6-4.3c2.5,1,4.6,3.7,4.6,6  c0,2.3,1.4,4.3,3.1,4.3c1.7,0,3.1,2.1,3.1,4.6c0,2.5-1.4,4.6-3.1,4.6c-1.7,0-3.1,3-3.1,6.7c0,6.6,0.1,6.6,4.5,0.8  C2554,1720.1,2556,1714.3,2556.1,1710.5L2556.1,1710.5z M2573,1722.1c-1-1.7-4.9-2.9-8.6-2.8c-6.2,0.3-6.2,0.5,0.9,2.8  c4.2,1.3,8.1,2.6,8.6,2.8C2574.5,1725,2574.1,1723.7,2573,1722.1z M2048.6,1712.3c-2.9-2.9-3.7-2-3.7,3.7s0.8,6.5,3.7,3.7  C2051.5,1716.8,2051.5,1715.1,2048.6,1712.3z M2033.9,1711.2c1-2.7,0.5-4-1.2-2.9c-1.7,1-3,3.2-3,4.8  C2029.7,1717.5,2031.8,1716.5,2033.9,1711.2L2033.9,1711.2z M2077.1,1709.1c-1.7-6.3-1.6-6.5,2.4-1.5c5.1,6.3,10.1,6.9,12.6,1.5  c1.4-3.1,2.1-3.1,3.6,0c1,2.1,5.2,3.8,9.4,3.8c4.3,0,6.8-1.3,5.7-3.1c-2.7-4.3,12.6-3.8,19.8,0.6c7.5,4.7,9.4,2.7,10.7-11.3  c0.9-9.2-0.1-11.7-5.5-13.6l-6.5-2.4l6.8-4.2c3.7-2.3,6.8-6,6.8-8.1s1.2-3.9,2.7-3.9s3.4-2.8,4.3-6.1c1.2-4.8,0.1-6.1-5-5.9  c-3.6,0.1-4.9,0.9-2.8,1.8c2.1,0.9,3,2.9,2,4.5c-1.1,1.8-3.4,1.7-5.9-0.4c-3.2-2.7-3.7-2.1-2.4,2.9c1.1,4.3,0.2,6.3-3,6.3  c-2.6,0-5.2-1.6-5.8-3.5c-1.6-4.9-12.4-0.9-22.2,8.2c-4.5,4.2-9.5,6.8-11,5.9s-2,0.3-1.1,2.7c2,5.1-3.3,9.4-8,6.5  c-2.2-1.4-2.1-3.4,0.4-6.4c2.9-3.5,2.7-4-1.2-2.5c-2.7,1-7.7,6.6-11,12.3c-6.5,11.1-12.5,13.7-12.5,5.5c0-4.1-0.8-4.3-4.7-1  c-2.6,2.2-3.5,4.7-2.1,5.7s3.6,4.2,4.6,7.2c1.3,3.5,5.2,5.4,11.5,5.4C2077.9,1715.9,2078.8,1715.1,2077.1,1709.1z M2097.8,1701.5  c-5.9-2.2-4.5-9.4,2.3-11.6c3.4-1.1,6.1-3.2,6.1-4.8c0-4.7,14.5-3.2,16.4,1.7c1,2.5,4.2,4.6,7.1,4.6c4.7,0,4.8,0.5,0.9,4.4  C2126,1700.4,2104.7,1704.1,2097.8,1701.5L2097.8,1701.5z M2106.1,1676.9c2.5-1,6.4-3.6,8.6-5.9c4.6-4.6,9.8-5.4,9.8-1.5  c0,3-13.9,9.8-19.3,9.4C2103.2,1678.8,2103.6,1677.9,2106.1,1676.9z M2572.3,1695.5c-2.1-0.8-3.8-4.1-3.8-7.2c0-3.1-1.2-6.5-2.8-7.4  c-1.5-0.9-2,1.4-1,5.2c1.6,6.4,1.3,6.6-4.1,2.4c-5.8-4.5-5.8-4.4-0.1,2.3c3.2,3.8,8,6.7,10.7,6.6  C2574.4,1697.2,2574.8,1696.5,2572.3,1695.5L2572.3,1695.5z M2068.2,1679.2c11.3-8.4,19.8-15.3,19-15.3c-5.6,0-20.5,7.2-19.2,9.3  c0.9,1.4,0.2,3.4-1.5,4.5s-3.1,0.5-3.1-1.3c0-1.8-4.1,1.1-9.2,6.4c-9,9.4-10.6,11.8-7.8,11.8  C2047.1,1694.5,2057,1687.6,2068.2,1679.2L2068.2,1679.2z M2502.6,1688.4c-1.1-1.8,2.4-3.3,8.2-3.5c9.7-0.4,9.8-0.5,1.4-1.8  c-7.2-1.1-8.5-2.5-7.4-8.2c1-5.4-0.6-7.7-7.2-10.1c-7.8-2.9-8.2-2.8-5,2.4c4,6.5,3.2,8-5.4,9.5c-4.6,0.8-6.3-0.8-7-6.8  c-0.7-5.8-4-9.3-12.6-13.1c-6.4-2.8-13.9-4.3-16.7-3.3s-7.4,0.9-10.3-0.4s-8.6-2-12.5-1.6c-6,0.6-6.8-0.3-5.2-5.7  c1.2-3.7,0.7-6.4-1.2-6.4c-1.8,0-3.3,2.6-3.3,5.8c0,9.8-19.2,13.6-22.7,4.5c-1.1-2.8-1.6-5.3-1.1-5.6c0.5-0.3,5.3-2.3,10.7-4.5  c5.8-2.3,9-5.3,7.9-7.3c-1.4-2.3-2.4-2.2-3.3,0.4c-0.7,2-4.6,3.7-8.8,3.7c-5.2,0-6.9-1.2-5.3-3.8c1.2-2.1-0.7-1.3-4.2,1.8  c-8.6,7.6-13.6,3.8-12.4-9.5c0.9-9.9,0-11.3-9.6-15.2c-9.1-3.7-10-3.7-6.9,0c2,2.4,2.6,5.6,1.3,7c-1.2,1.5-0.1,1,2.6-1  c6.8-5.1,8.9-1.8,8.9,13.6c0,8.9,1.3,13.3,4,13.3c4.3,0,17.4,16,17.4,21.3c0,4.8,11.6,3.8,14.4-1.2c1.9-3.4,5.1-3.8,13.9-1.8  c6.3,1.4,12.1,1.5,12.9,0.2c2.5-4,18-5.8,23.8-2.7c3,1.6,4.7,4.2,3.7,5.8c-1,1.6,0.4,2.9,3,2.9c3.4,0,4.8,3,4.8,10.5  c0,9.1,1.1,10.7,8.4,11.8C2498.2,1691.7,2504.5,1691.4,2502.6,1688.4L2502.6,1688.4z M2542.4,1676.1c-1-1.7-0.5-3.1,1.1-3.1  s3.7,1.4,4.5,3.1s1.2,1.5,0.8-0.6c-0.4-2.1-4.6-4.8-9.3-6c-8.3-2.2-8.4-2.1-3.2,3.7C2542.2,1679.6,2545.6,1681.2,2542.4,1676.1  L2542.4,1676.1z M2164.3,1663.9c0-1.7-0.6-3.1-1.3-3.1s-2.2,1.4-3.2,3.1c-1,1.7-0.4,3.1,1.3,3.1  C2162.9,1667,2164.3,1665.6,2164.3,1663.9z M2191.9,1662.4c0-2.6,2.7-4.6,6.1-4.6c3.4,0,6.1,1.4,6.1,3.1c0,5.2,11,3.4,19.2-3.1  c4.3-3.4,10-6.1,12.7-6.1c3.9,0,4.9-3.5,4.9-16.8c0-10.1,1.3-16.8,3.3-16.8c1.8,0,5.7-3,8.7-6.6c5.5-6.8,12.5-5.6,12.5,2.2  c0,3,3.4,4.4,10.4,4.4c8.2,0,10.8-1.5,12.2-6.9c3.1-11.5,2.2-19.7-2.7-23.7c-2.5-2.1-4.6-5-4.6-6.5c0-1.5,2.1-2.7,4.6-2.7  c3.1,0,4.6-3.1,4.6-9.2c0-5.1,1.4-9.2,3.1-9.2c1.7,0,3.1,1.4,3.1,3.1c0,1.7,3.4,3.1,7.7,3.1c4.2,0,7.7-1.4,7.7-3.1s3.4-3.1,7.7-3.1  c7.6,0,7.7,0.1,7.7,29.1v29.1h12.4c6.9,0,11.6-1.3,10.7-2.8c-1-1.6-0.4-3.7,1.2-4.7c5.2-3.2-0.3-11.1-7.1-10.2  c-5.9,0.8-6.7-1-8.7-18.8c-3-27.1-3.5-27.8-17.7-27.8c-16.4,0-15.9-5.5,0.6-6.7c9.5-0.7,13.3-2.4,14-6.3c0.7-3.9-1-5.4-6.6-5.4  c-4.2,0-8.2-1.7-9-3.8c-0.7-2.1-0.8-0.6-0.1,3.3c0.9,5.5,0,6.9-4.3,6.1c-4.3-0.8-5.5-4-5.4-14c0.1-12.6-0.2-12.9-9.8-12.9  c-5.4,0-10.7,1.4-11.8,3.1c-2.4,3.9-16.8,4-16.8,0.2c0-4.3,5.2-6.8,27.3-12.7c11.1-3,17.7-5.5,14.8-5.6s-5.4-1.7-5.4-3.6  c0-2.1-2.9-1.5-7.5,1.5c-10.1,6.6-13.9,6.2-13.9-1.6c0-5.5-1.3-6.2-8.7-4.8c-5,1-10.3,0.2-12.4-1.9c-4.8-4.8-9.4,2.2-9.5,14.3  c0,7.7-1,8.6-7.7,7.3c-8.9-1.7-10,3.7-3.8,18.1c4.4,10.2,14.9,10.9,12.3,0.9c-1.8-7,4.6-8.2,7.2-1.4c1,2.5,4.3,4.6,7.4,4.6  c3.7,0,5.4,2.1,5.2,5.9c-0.2,3.3-1.6,5.2-2.9,4.4s-6.9-0.6-12.4,0.6c-9.5,2.1-9.6,2.3-2.8,4.8c4.3,1.6,6.2,4,4.9,6.2  c-1.3,2.1-0.9,2.7,1,1.6c1.8-1.1,4.1,1.7,5.3,6.3c1.3,5,0.8,8.8-1.2,9.4c-1.8,0.6-3.3,2.4-3.3,4.1s1.5,2.1,3.3,0.9  c2.1-1.3,2.9,0.6,2.3,5.2c-0.8,5.9,0.3,7.1,5.7,6.5c4.4-0.5,7.4,1.4,8.6,5.3c3.2,10-1.2,13.1-15.7,11.1c-7.9-1.1-13.4-0.6-13.4,1.2  c0,1.7-2.6,3-5.7,3c-7,0-13.9,7.7-11.1,12.3c1.1,1.9,1.2,6.8,0.2,11c-1.6,6.2-3.5,7.5-10.2,6.7c-4.6-0.5-8.1-2.4-7.7-4.2  c0.3-1.9-3.1-2.7-8.4-2l-9,1.3l7.3,5.8c4,3.2,9,5.8,10.9,5.8c2,0,3,1.7,2.3,3.8c-0.8,2.2-5.1,3.4-10.2,2.9  c-8.4-0.9-14.2-0.8-36.8,0.4l-9.6,0.5l6.5,6.6C2179.3,1667.5,2191.9,1669.1,2191.9,1662.4L2191.9,1662.4z M2274.6,1573.3  c0-2.6-2.1-8.7-4.7-13.7c-4.5-8.8-4.5-9,2.7-9c9.7,0,15,6.8,12.6,16.3C2283,1575.6,2274.6,1580.7,2274.6,1573.3z M2289.9,1529.2  c0-8.8,1.3-12.2,4.6-12.2c4.7,0,6.2,10.6,2.7,19.6C2293.8,1545.5,2289.9,1541.6,2289.9,1529.2z M2271.5,1526.1c0-1.7,3.8-3,8.4-3  c6.6,0,7.4,0.7,3.8,3C2277.8,1530,2271.5,1530,2271.5,1526.1z M2259.3,1512.7c0-6.2,8.4-12.1,14.1-9.9c4.2,1.6,3.8,2.8-2.7,8  C2261.5,1518.1,2259.3,1518.4,2259.3,1512.7z M2377.7,1648c-1-2.4-1.7-1.7-1.8,1.8c-0.1,3.2,0.6,5,1.6,4  C2378.4,1652.9,2378.6,1650.2,2377.7,1648L2377.7,1648z M2500.3,1650.9c-1.9-5.8-11.5-6.6-11.5-1c0,2.8,2.6,4.8,6.4,4.8  C2499,1654.7,2501.1,1653.1,2500.3,1650.9z M2148.2,1643.7c-1-1-3.7-1.1-5.9-0.2c-2.4,1-1.7,1.7,1.8,1.8  C2147.4,1645.4,2149.2,1644.7,2148.2,1643.7L2148.2,1643.7z M2169.5,1637.4c-1.1-1.1-0.3-4.2,1.8-6.9c3.4-4.3,3.2-4.4-1.5-0.7  c-4.8,3.8-4.9,9.6-0.1,9.6C2170.7,1639.4,2170.6,1638.5,2169.5,1637.4L2169.5,1637.4z M2184.1,1626.9c-1-1.6-3.4-2.7-5.4-2.6  c-2.6,0.2-2.6,0.7,0.2,1.8c2.1,0.9,2.9,3,1.8,4.8c-1.2,2-0.6,2.4,1.6,1.1C2184.3,1630.8,2185.1,1628.5,2184.1,1626.9L2184.1,1626.9z   M2433.7,1629.2c0-0.6-3.1-3.7-6.8-6.9c-4.7-4-5.6-4.3-2.9-0.8c3.2,4.1,3.2,5.4-0.1,6.6c-2.2,0.9-0.9,1.7,2.9,1.8  C2430.6,1630.1,2433.7,1629.7,2433.7,1629.2L2433.7,1629.2z M2415.8,1623.1c-1.9-2.3-2.5-5-1.4-6.1c1.1-1.1,0.5-2-1.4-2  c-6.1,0-7.1,5.7-1.5,8.9C2418.8,1628.1,2419.8,1627.9,2415.8,1623.1z M2213.3,1614.9c0-1.7-0.6-3.1-1.3-3.1c-0.7,0-2.2,1.4-3.2,3.1  c-1,1.7-0.4,3.1,1.4,3.1C2211.9,1618,2213.3,1616.6,2213.3,1614.9z M2355.2,1588.6c-0.9-2.4-0.1-4.3,1.7-4.3s3.4-2.3,3.4-5.1  c0-4.6-0.6-4.5-6.1,0.5c-7.2,6.5-8.4,17.5-1.7,15C2354.8,1593.7,2356.1,1591,2355.2,1588.6z M2355.5,1567.2c6-6,6-8.7,0.2-13.6  c-3.2-2.6-4.6-2.7-4.6-0.4c0,1.9-2.1,3.4-4.6,3.4c-4.6,0-6.4,9.4-2.6,13.3C2347.1,1573.2,2350.3,1572.5,2355.5,1567.2L2355.5,1567.2  z M2360.3,1535.3c0-1.7-0.6-3.1-1.4-3.1s-2.2,1.4-3.2,3.1s-0.4,3.1,1.3,3.1C2358.8,1538.4,2360.3,1537,2360.3,1535.3z   M2387.2,1520.2c1.8-7.5,2.4-15.1,1.3-16.8c-1.1-1.8-2.9,1.6-4,7.5c-1.1,5.9-3,14.8-4.3,19.9c-1.6,6.1-1.3,8.1,0.7,6.1  C2382.6,1535.2,2385.4,1527.7,2387.2,1520.2L2387.2,1520.2z M2231.7,1527.5c0-2.6-1.2-4-2.6-3.2c-1.4,0.9-1.9-2-1.1-6.4  c1.1-5.5,0.4-7.3-2-5.8c-3.8,2.3-4.8,14.8-1.5,18.1C2228.1,1533.8,2231.7,1532.4,2231.7,1527.5L2231.7,1527.5z M2375.1,1495.9  c0.7-4.7-0.2-6.5-2.3-5.1c-1.9,1.1-2.6,3.4-1.6,4.9c1.9,3.2-2.2,3.6-24.2,2.9c-8.2-0.3-14.1,0.7-13.2,2.2c0.9,1.5,10.4,2.6,21,2.5  C2372.6,1503.2,2374.1,1502.7,2375.1,1495.9L2375.1,1495.9z M2239.8,1491.7c-0.8-2.1-1.5-0.4-1.5,3.8c0,4.2,0.7,5.9,1.5,3.8  C2240.7,1497.2,2240.7,1493.8,2239.8,1491.7z M2354.9,1493.5c-2.1-0.8-5.5-0.8-7.7,0s-0.4,1.5,3.8,1.5S2357,1494.3,2354.9,1493.5z   M2318.9,1486.3c-0.9-1.5-3.8-1.9-6.4-0.9c-3.7,1.4-3.9,2.4-0.8,4.3C2316.3,1492.5,2321.3,1490.2,2318.9,1486.3L2318.9,1486.3z   M2336.3,1485.7c-2.2-2.2-3.6-2.4-3.6-0.5c0,4.1,3.6,7.7,5.7,5.7C2339.3,1490,2338.3,1487.7,2336.3,1485.7L2336.3,1485.7z   M2208.4,1484c-1.4-4.6-1-4.5,3.2,0.6c2.7,3.3,4.8,4.5,4.8,2.8s-2.6-5.5-5.8-8.4c-3.2-2.9-6.6-9.5-7.7-14.8  c-1.3-6.5-2.9-8.6-5.1-6.5c-2.1,2.1-1.2,7.7,3,17.4C2206.8,1489,2211.8,1494.9,2208.4,1484L2208.4,1484z M2408.3,1482.7  c3.9-3.7,7.1-10.3,7.1-14.7c0-4.4,1.7-9.8,3.8-11.9c3.1-3.1,2.8-3.5-1.3-1.9c-3,1.1-5.7,0.2-6.4-2.1c-0.7-2.2-0.9-1-0.3,2.6  c0.6,3.7-0.3,7.6-2,8.6c-1.7,1-3.1,3.5-3,5.5c0,2.2,1.2,1.8,3-0.9c2.5-3.8,3-3.5,3,1.6c0,3.4-2.9,7.5-6.6,9.2  c-3.7,1.7-7.2,4.7-7.9,6.8C2395.9,1491.4,2400.4,1490.2,2408.3,1482.7L2408.3,1482.7z M2240.7,1423.6l0.3-56.6h-7.5  c-4.1,0-8.5,1.6-9.7,3.5c-1.5,2.4-0.1,3,4.4,1.8c8.8-2.3,9.7,0,7.1,17.8c-1.7,11.6-3.4,15-7.5,14.7c-4.2-0.3-5.2,2-4.8,12.2  c0.3,9.2,0.8,10.3,1.7,4.3c1.5-10,5.5-10.8,10.1-2.1c4.9,9.2,0.8,25.4-5.7,22.6c-13.6-5.6-14.2-5.2-14.8,9.9  c-0.3,9.2,0.3,12.5,1.8,8.8c1.5-3.9,3-4.7,4.4-2.4c1.2,1.9,0.4,6.2-1.7,9.6c-4.1,6.5-2,11.4,3.4,8c1.8-1.1,3.3-6.1,3.3-11  c0-5,1.3-9,3-9c4,0,9.3,10.4,9.3,18.2c0,3.5,0.6,6.3,1.3,6.3C2239.8,1480.2,2240.5,1454.7,2240.7,1423.6L2240.7,1423.6z   M2222.5,1449.6c0-1.7,1.3-3.1,2.9-3.1c1.6,0,3.7,1.4,4.8,3.1c1,1.7-0.3,3.1-2.9,3.1C2224.7,1452.7,2222.5,1451.3,2222.5,1449.6z   M2392.8,1471c6.5,0,7.5-1.2,6.7-8.4c-0.8-6.7-2.6-8.4-8.6-8.5c-6.2-0.1-7.7-1.6-7.8-8.3c-0.1-4.5-1.1-9.2-2.3-10.4  c-4.1-4.1-2.1-9.9,4.2-11.9c3.5-1.1,5.7-2.7,4.9-3.5c-0.8-0.8-4.4,0-7.9,1.9c-5.3,2.8-6.4,6.3-6.4,20.1c0,16.5,0.1,16.7,9,16.7  c13.2,0,14.1,5.1,1.8,9.6c-5.9,2.1-10.8,5.8-10.8,8.1c0,3.3,1,3.2,4.8-0.6C2383,1473.2,2388.6,1471,2392.8,1471L2392.8,1471z   M2417.4,1433c-1-2.6-3.9-4.8-6.5-4.8c-3.8,0-4,1.3-1.1,7.7C2413.7,1444.3,2420.7,1441.5,2417.4,1433z M2204.1,1432.6  c0-5.1-4.8-5.9-7.7-1.3c-2.5,4,1.2,9.8,4.8,7.5C2202.9,1437.8,2204.1,1435,2204.1,1432.6z M2213.3,1415.7c0-3.3-1.4-5.9-3.1-5.9  c-1.7,0-3.1,3.5-3.1,7.8c0,4.4,1.3,7,3.1,5.9C2212,1422.5,2213.3,1419,2213.3,1415.7z M2377.3,1415.2c1.2-3.8,3.1-7.6,4.4-8.4  c1.2-0.8,0.4-7-1.9-13.8s-3.4-8.5-2.6-3.8c1.2,6.9,0.4,8.4-4.7,8.4c-3.9,0-6.2,2-6.1,5.4c0.1,8.6,3.5,19.1,6.2,19.1  C2374,1422.1,2376.1,1419,2377.3,1415.2L2377.3,1415.2z M2213.3,1391.4c0-5.1-1.4-9.2-3.1-9.2c-1.7,0-3.1-1.5-3.1-3.4  s2.1-2.6,4.6-1.6c4.9,1.9,6.4-2.7,1.9-5.5c-5-3.1-8.7,5.8-7.2,17.4C2208.2,1402.8,2213.3,1404.5,2213.3,1391.4L2213.3,1391.4z   M2226.5,1394.5c-0.9-3.4-2.1-6.1-2.8-6.1s-1.2,2.8-1.2,6.1c0,3.4,1.2,6.1,2.8,6.1S2227.3,1397.9,2226.5,1394.5z M2403.7,1393.8  c-2.2-2.2-3.6-2.4-3.6-0.5c0,4.1,3.6,7.7,5.7,5.7C2406.6,1398.2,2405.7,1395.8,2403.7,1393.8z M2405.4,1375.5  c0.6-7.7-4.7-15.4-8.7-12.9c-1.5,0.9-2.6,4-2.5,6.9c0.2,4.2,0.7,4,2.7-0.9c2.5-6,2.6-6,4.9-0.2c1.5,3.8,1.1,6.4-1.2,7.1  c-2,0.7-2.9,2.5-1.9,4C2401.7,1384.3,2404.9,1382.5,2405.4,1375.5z M2379.6,1363.1c-2.2-20-5.1-23.7-18.2-23.7  c-10.4,0-12-2.3-10.9-15.7c0.4-4.5-4.4-7.3-17.8-10.5c-3.8-0.9-4.8,4.2-5.6,29.4l-1,30.5h12.5c6.9,0,12.5-1,12.5-2.3  c0-1.3,6.2-1.8,13.8-1.2c9.2,0.7,13.8,2.5,13.8,5.4c0,2.4,0.6,4.3,1.4,4.3C2380.8,1379.2,2380.6,1372,2379.6,1363.1L2379.6,1363.1z   M2270.7,1367.8c3.6-4.7,3.8-4.7,3.8,0.1c0,3.5,2.5,5.2,7.7,5.2c7.1,0,7.7-1.1,7.7-14.6c0-13.4-0.8-15-9.9-19.7  c-9.9-5.1-19.2-5.6-25.8-1.5c-1.9,1.2-5.7,1.3-8.4,0.3c-2.7-1-4.9-0.3-4.9,1.6c0,1.9,4.2,4.3,9.2,5.3s10,3.1,11,4.7  c1,1.6,4.2,0.7,7.1-2c5.1-4.6,15.4-3.7,15.4,1.4c0,6.2-10.9,10.2-27.7,10c-10-0.1-18.2,1.1-18.2,2.6c0,1.5,1.4,2.7,3.1,2.7  c1.7,0,3.1,1.7,3.1,3.8C2244,1373.8,2266.2,1373.8,2270.7,1367.8L2270.7,1367.8z M2400,1352.4c0-2.9-3.5-8.6-7.7-12.6  c-4.2-4-7.6-5.7-7.6-3.9c0,1.8,2.8,5.1,6.1,7.2s6.1,5.6,6.1,7.9c0,2.3-1.5,3.1-3.5,1.9c-2.2-1.4-2.7-0.8-1.4,1.3  C2395.4,1359.6,2400.1,1358.5,2400,1352.4z M2224.9,1344.2c1.9-4.1,8.5-13.1,14.6-19.9c11.5-12.8,11.1-16.5-0.8-6.6  c-7.4,6.1-22.4,27.2-22.4,31.4C2216.4,1354.4,2221.6,1351.4,2224.9,1344.2L2224.9,1344.2z M2265.4,1330.2c0-1.9,4.7-2.4,12-1.2  l12,1.9l-0.3-10.9c-0.3-11-5.2-12.8-5.2-1.9c0,7-8.6,8-11.1,1.3c-2.7-7.1-6.3-5.5-9.8,4.6c-1.9,5.6-2.1,9.2-0.3,9.2  C2264.1,1333.3,2265.4,1331.9,2265.4,1330.2z M2378.6,1321.8c0-3.9-0.7-4.3-2.5-1.5c-1.9,3-3.9,2.3-8.4-2.8  c-5.8-6.6-5.8-6.7,0.2-4.7c6,2,6,2,0.2-2.5c-12.7-9.8-14.6-4.2-2.7,8.2C2374.9,1328.5,2378.7,1329.4,2378.6,1321.8L2378.6,1321.8z   M2305.2,1313.7c0-0.6-2.8-1.9-6.1-2.8c-3.4-0.9-5.4-0.4-4.4,1.2C2296.3,1314.8,2305.2,1316.1,2305.2,1313.7L2305.2,1313.7z   M2323.5,1313.7c0-0.7-2.1-2-4.8-3c-2.7-1-4-0.5-2.9,1.2C2317.7,1314.8,2323.5,1316.2,2323.5,1313.7L2323.5,1313.7z M2292.9,1293  c0-3.1-6.9-1.6-23.4,5.1c-17.6,7.2-13.8,10.4,4.9,4.1C2284.6,1298.8,2292.9,1294.6,2292.9,1293L2292.9,1293z M2353.5,1301.6  c-0.5-5.7-1.9-6.8-6.9-5.5c-5.6,1.6-5.7,1.8-0.7,2.9c3.3,0.7,4.9,2.9,3.9,5.5c-0.9,2.4-0.3,4.3,1.3,4.3S2353.8,1305.5,2353.5,1301.6  z M2311.3,1292.1c0-2.4-1.4-5.3-3-6.3c-1.7-1.1-2.2,0.2-1.2,2.9c1,2.6,0.3,4.8-1.6,4.8c-1.9,0-3.4-1.6-3.4-3.6c0-2-0.8-2.7-1.8-1.7  c-2.8,2.8,1.6,8.4,6.6,8.4C2309.3,1296.5,2311.3,1294.6,2311.3,1292.1z"
     style="fill:#ffffff" /></svg>